<svg width="16" height="16" viewBox="0 0 16 16" fill="none" xmlns="http://www.w3.org/2000/svg">
<path d="M2.66667 0C1.19391 0 0 1.19391 0 2.66667V4.66667C0 6.13943 1.19391 7.33333 2.66667 7.33333H4.66667C6.13943 7.33333 7.33333 6.13943 7.33333 4.66667V2.66667C7.33333 1.19391 6.13943 0 4.66667 0H2.66667Z" fill="#6CC4F4"/>
<path d="M11.3333 0C9.86057 0 8.66667 1.19391 8.66667 2.66667V4.66667C8.66667 6.13943 9.86057 7.33333 11.3333 7.33333H13.3333C14.8061 7.33333 16 6.13943 16 4.66667V2.66667C16 1.19391 14.8061 0 13.3333 0H11.3333Z" fill="#6CC4F4"/>
<path d="M2.66667 8.66667C1.19391 8.66667 0 9.86057 0 11.3333V13.3333C0 14.8061 1.19391 16 2.66667 16H4.66667C6.13943 16 7.33333 14.8061 7.33333 13.3333V11.3333C7.33333 9.86057 6.13943 8.66667 4.66667 8.66667H2.66667Z" fill="#6CC4F4"/>
<path d="M13 9.33333C13 8.96514 12.7015 8.66667 12.3333 8.66667C11.9651 8.66667 11.6667 8.96514 11.6667 9.33333V11.6667H9.33333C8.96514 11.6667 8.66667 11.9651 8.66667 12.3333C8.66667 12.7015 8.96514 13 9.33333 13H11.6667V15.3333C11.6667 15.7015 11.9651 16 12.3333 16C12.7015 16 13 15.7015 13 15.3333V13H15.3333C15.7015 13 16 12.7015 16 12.3333C16 11.9651 15.7015 11.6667 15.3333 11.6667H13V9.33333Z" fill="#6CC4F4"/>
</svg>
