<svg width="16" height="16" viewBox="0 0 16 16" fill="none" xmlns="http://www.w3.org/2000/svg">
<path fill-rule="evenodd" clip-rule="evenodd" d="M6.61484 0C10.231 0 13.1672 2.93616 13.1672 6.55234C13.1672 10.1685 10.231 13.1047 6.61484 13.1047C2.99866 13.1047 0.0625 10.1685 0.0625 6.55234C0.0625 2.93616 2.99866 0 6.61484 0ZM6.61484 1.06254C3.58518 1.06254 1.12504 3.52268 1.12504 6.55234C1.12504 9.582 3.58518 12.0421 6.61484 12.0421C9.6445 12.0421 12.1046 9.582 12.1046 6.55234C12.1046 3.52268 9.6445 1.06254 6.61484 1.06254Z" fill="#929292"/>
<path fill-rule="evenodd" clip-rule="evenodd" d="M6.61526 2.83354C6.47435 2.83354 6.33922 2.77756 6.23959 2.67793C6.13996 2.5783 6.08398 2.44317 6.08398 2.30227C6.08398 2.16137 6.13996 2.02623 6.23959 1.9266C6.33922 1.82697 6.47435 1.771 6.61526 1.771C8.27707 1.771 9.74267 2.62103 10.5998 3.90954C10.6778 4.02696 10.7059 4.17054 10.678 4.30869C10.6501 4.44685 10.5684 4.56827 10.451 4.64623C10.3336 4.7242 10.19 4.75233 10.0519 4.72443C9.91372 4.69653 9.7923 4.6149 9.71433 4.49748C9.37528 3.98584 8.91482 3.56612 8.37405 3.27577C7.83328 2.98543 7.22904 2.83349 6.61526 2.83354ZM10.49 11.178C10.3904 11.0785 10.3345 10.9434 10.3345 10.8026C10.3345 10.6618 10.3904 10.5267 10.49 10.4272C10.5896 10.3276 10.7246 10.2717 10.8654 10.2717C11.0062 10.2717 11.1413 10.3276 11.2409 10.4272L15.8452 15.0315C15.8945 15.0808 15.9336 15.1393 15.9603 15.2038C15.987 15.2682 16.0007 15.3372 16.0007 15.4069C16.0007 15.4767 15.987 15.5457 15.9603 15.6101C15.9336 15.6745 15.8945 15.7331 15.8452 15.7824C15.7959 15.8317 15.7374 15.8708 15.673 15.8975C15.6085 15.9242 15.5395 15.9379 15.4698 15.9379C15.4 15.9379 15.331 15.9242 15.2666 15.8975C15.2022 15.8708 15.1436 15.8317 15.0943 15.7824L10.49 11.178Z" fill="#929292"/>
</svg>
