<svg width="16" height="14" viewBox="0 0 16 14" fill="none" xmlns="http://www.w3.org/2000/svg">
<path d="M13.625 7.62501L14.875 7.625C15.2202 7.625 15.5 7.34517 15.5 6.99999C15.5 6.65482 15.2202 6.375 14.875 6.375L13.625 6.37501C13.2798 6.37502 13 6.65484 13 7.00002C13 7.3452 13.2798 7.62502 13.625 7.62501Z" fill="#A5A5A7"/>
<path d="M8 2C8 1.65482 8.27982 1.375 8.625 1.375L14.875 1.37501C15.2202 1.37501 15.5 1.65484 15.5 2.00001C15.5 2.34519 15.2202 2.62501 14.875 2.62501L8.625 2.625C8.27982 2.625 8 2.34518 8 2Z" fill="#A5A5A7"/>
<path d="M8 12C8 11.6548 8.27982 11.375 8.625 11.375L14.875 11.375C15.2202 11.375 15.5 11.6548 15.5 12C15.5 12.3452 15.2202 12.625 14.875 12.625L8.625 12.625C8.27982 12.625 8 12.3452 8 12Z" fill="#A5A5A7"/>
<path d="M1.12501 2.62501L2.37501 2.625C2.72018 2.625 3 2.34517 3 1.99999C3 1.65482 2.72017 1.375 2.37499 1.375L1.12499 1.37501C0.779817 1.37502 0.499997 1.65484 0.5 2.00002C0.500004 2.3452 0.779829 2.62502 1.12501 2.62501Z" fill="#A5A5A7"/>
<path d="M2.37501 12.625L1.12501 12.625C0.779828 12.625 0.500004 12.3452 0.5 12C0.499996 11.6548 0.779816 11.375 1.12499 11.375L2.37499 11.375C2.72017 11.375 3 11.6548 3 12C3 12.3452 2.72018 12.625 2.37501 12.625Z" fill="#A5A5A7"/>
<path d="M0.5 7C0.5 6.65482 0.779823 6.375 1.125 6.375H7.375C7.72018 6.375 8 6.65482 8 7C8 7.34518 7.72018 7.625 7.375 7.625H1.125C0.779823 7.625 0.5 7.34518 0.5 7Z" fill="#A5A5A7"/>
<path d="M5.5 0.125C4.46447 0.125 3.625 0.964466 3.625 2C3.625 3.03553 4.46447 3.875 5.5 3.875C6.53553 3.875 7.375 3.03553 7.375 2C7.375 0.964466 6.53553 0.125 5.5 0.125Z" fill="#A5A5A7"/>
<path d="M8.625 7C8.625 5.96447 9.46447 5.125 10.5 5.125C11.5355 5.125 12.375 5.96447 12.375 7C12.375 8.03553 11.5355 8.875 10.5 8.875C9.46447 8.875 8.625 8.03553 8.625 7Z" fill="#A5A5A7"/>
<path d="M5.5 10.125C4.46447 10.125 3.625 10.9645 3.625 12C3.625 13.0355 4.46447 13.875 5.5 13.875C6.53553 13.875 7.375 13.0355 7.375 12C7.375 10.9645 6.53553 10.125 5.5 10.125Z" fill="#A5A5A7"/>
</svg>
