<svg width="20" height="20" viewBox="0 0 20 20" fill="none" xmlns="http://www.w3.org/2000/svg">
<path d="M6.48438 11.5332C6.80781 11.5332 7.07031 11.7953 7.07031 12.1191V17.6562H3.55469V12.1191C3.55469 11.7953 3.81719 11.5332 4.14062 11.5332H6.48438ZM11.1719 8.01758C11.4953 8.01758 11.7578 8.27969 11.7578 8.60352V17.6562H8.24219V8.60352C8.24219 8.27969 8.50469 8.01758 8.82812 8.01758H11.1719ZM15.8594 11.5332C16.1828 11.5332 16.4453 11.7953 16.4453 12.1191V17.6562H12.9297V12.1191C12.9297 11.7953 13.1922 11.5332 13.5156 11.5332H15.8594Z" fill="white"/>
<path d="M20 19.4141C20 19.7375 19.7375 20 19.4141 20H0.585938C0.2625 20 0 19.7375 0 19.4141V0.585938C0 0.2625 0.2625 0 0.585938 0C0.909375 0 1.17188 0.2625 1.17188 0.585938V7.62695H5.99844L9.52656 2.78945C9.74531 2.47188 10.2547 2.47188 10.4734 2.78945L14.0016 7.62695H17.9996L17.382 7.00938C17.1535 6.78047 17.1535 6.40977 17.382 6.18086C17.6109 5.95195 17.982 5.95195 18.2109 6.18086L19.8285 7.79844C20.052 8.01406 20.0559 8.40195 19.834 8.6207C19.8309 8.62461 19.827 8.62813 19.8234 8.63203L18.1668 10.2496C18.0527 10.3609 17.9051 10.4164 17.7574 10.4164C17.6051 10.4164 17.4531 10.357 17.3383 10.2395C17.1121 10.0082 17.1164 9.63711 17.348 9.41094L17.9754 8.79883H13.7035C13.5164 8.79883 13.3402 8.70938 13.2301 8.55781L10 4.12891L6.76992 8.55781C6.71561 8.63248 6.6444 8.69324 6.56212 8.73512C6.47984 8.77701 6.38881 8.79884 6.29648 8.79883H1.17188V18.8281H19.4141C19.7375 18.8281 20 19.0906 20 19.4141Z" fill="white"/>
</svg>
