<svg width="20" height="20" viewBox="0 0 20 20" fill="none" xmlns="http://www.w3.org/2000/svg">
<mask id="mask0_3344_2019" style="mask-type:luminance" maskUnits="userSpaceOnUse" x="0" y="0" width="20" height="20">
<path d="M0.324219 0.786377H19.5242V19.9864H0.324219V0.786377Z" fill="white"/>
</mask>
<g mask="url(#mask0_3344_2019)">
<path d="M9.52383 12.3864C9.62995 12.3864 9.73177 12.3444 9.80703 12.2696L13.807 8.26958C13.8816 8.19417 13.9236 8.09245 13.9238 7.98638V2.55198L15.6406 4.26878C15.6775 4.30703 15.7216 4.33756 15.7703 4.35859C15.8191 4.37962 15.8716 4.39073 15.9247 4.39126C15.9778 4.3918 16.0305 4.38175 16.0797 4.36171C16.1289 4.34167 16.1736 4.31203 16.2112 4.27453C16.2488 4.23702 16.2785 4.19241 16.2987 4.14328C16.3189 4.09415 16.3291 4.0415 16.3287 3.98839C16.3283 3.93528 16.3174 3.88277 16.2965 3.83394C16.2756 3.78511 16.2452 3.74093 16.207 3.70398L13.8078 1.30478C13.7709 1.26714 13.7268 1.23724 13.6782 1.21683C13.6296 1.19642 13.5774 1.18591 13.5246 1.18591C13.4719 1.18591 13.4197 1.19642 13.3711 1.21683C13.3224 1.23724 13.2784 1.26714 13.2414 1.30478L10.8422 3.70478C10.7724 3.78077 10.7346 3.88083 10.7368 3.98402C10.739 4.08722 10.7811 4.18556 10.8541 4.2585C10.9271 4.33143 11.0255 4.37331 11.1287 4.37538C11.2319 4.37744 11.3319 4.33953 11.4078 4.26958L13.1238 2.55198V7.82078L9.24063 11.704C9.18482 11.76 9.14685 11.8312 9.13151 11.9088C9.11617 11.9863 9.12416 12.0667 9.15446 12.1397C9.18476 12.2127 9.23602 12.2751 9.30176 12.319C9.3675 12.3629 9.44478 12.3864 9.52383 12.3864ZM17.807 11.7032L15.007 8.90318C14.9316 8.83032 14.8305 8.79 14.7257 8.79091C14.6208 8.79182 14.5205 8.83389 14.4463 8.90805C14.3721 8.98221 14.3301 9.08254 14.3292 9.18742C14.3282 9.2923 14.3686 9.39334 14.4414 9.46878L17.2414 12.2688C17.2785 12.3062 17.3226 12.3359 17.3712 12.3562C17.4198 12.3765 17.472 12.387 17.5246 12.387C17.5773 12.387 17.6295 12.3765 17.6781 12.3562C17.7267 12.3359 17.7708 12.3062 17.8078 12.2688C17.8826 12.1937 17.9246 12.092 17.9246 11.986C17.9246 11.88 17.8818 11.7783 17.807 11.7032ZM15.9238 14.3936C14.9977 14.3953 14.0772 14.2486 13.1974 13.9592C12.7814 13.8176 12.267 13.9464 12.011 14.2104L10.2846 15.5144C8.30383 14.456 7.03823 13.1896 5.99503 11.224L7.26223 9.53998C7.58303 9.21998 7.69743 8.75278 7.55983 8.31598C7.2694 7.43502 7.1222 6.51317 7.12383 5.58558C7.12383 4.92398 6.58543 4.38558 5.92383 4.38558H3.12383C2.46223 4.38558 1.92383 4.92398 1.92383 5.58558C1.92383 13.3056 8.20463 19.5856 15.9238 19.5856C16.5854 19.5856 17.1238 19.0472 17.1238 18.3856V15.5936C17.1238 14.9312 16.5854 14.3936 15.9238 14.3936Z" fill="white"/>
</g>
</svg>
