<svg width="20" height="20" viewBox="0 0 20 20" fill="none" xmlns="http://www.w3.org/2000/svg">
<g clip-path="url(#clip0_3344_1891)">
<path d="M19.4141 17.6172H2.38281V0.585938C2.38281 0.26207 2.12074 0 1.79688 0C1.47301 0 1.21094 0.26207 1.21094 0.585938V3.55469H0.585938C0.26207 3.55469 0 3.81676 0 4.14062C0 4.46449 0.26207 4.72656 0.585938 4.72656H1.21094V7.07031H0.585938C0.26207 7.07031 0 7.33238 0 7.65625C0 7.98012 0.26207 8.24219 0.585938 8.24219H1.21094V10.5859H0.585938C0.26207 10.5859 0 10.848 0 11.1719C0 11.4957 0.26207 11.7578 0.585938 11.7578H1.21094V14.1016H0.585938C0.26207 14.1016 0 14.3636 0 14.6875C0 15.0114 0.26207 15.2734 0.585938 15.2734H1.21094V17.6172H0.585938C0.26207 17.6172 0 17.8793 0 18.2031C0 18.527 0.26207 18.7891 0.585938 18.7891H1.21094V19.4141C1.21094 19.7379 1.47301 20 1.79688 20C2.12074 20 2.38281 19.7379 2.38281 19.4141V18.7891H4.72656V19.4141C4.72656 19.7379 4.98863 20 5.3125 20C5.63637 20 5.89844 19.7379 5.89844 19.4141V18.7891H8.24219V19.4141C8.24219 19.7379 8.50426 20 8.82812 20C9.15199 20 9.41406 19.7379 9.41406 19.4141V18.7891H11.7578V19.4141C11.7578 19.7379 12.0199 20 12.3438 20C12.6676 20 12.9297 19.7379 12.9297 19.4141V18.7891H15.2734V19.4141C15.2734 19.7379 15.5355 20 15.8594 20C16.1832 20 16.4453 19.7379 16.4453 19.4141V18.7891H19.4141C19.7379 18.7891 20 18.527 20 18.2031C20 17.8793 19.7379 17.6172 19.4141 17.6172Z" fill="white"/>
<path d="M18.7891 6.44531C18.7891 6.12145 18.527 5.85938 18.2031 5.85938C17.0227 5.85938 16.1226 4.55875 15.1693 3.18203C14.0861 1.61762 12.9663 0 11.1719 0C9.37742 0 8.25766 1.61762 7.17445 3.18203C6.22117 4.55875 5.32109 5.85938 4.14062 5.85938C3.81676 5.85938 3.55469 6.12145 3.55469 6.44531C3.55469 6.76918 3.81676 7.03125 4.14062 7.03125C5.93508 7.03125 7.05484 5.41363 8.13805 3.84922C9.09133 2.4725 9.99141 1.17188 11.1719 1.17188C12.3523 1.17188 13.2524 2.4725 14.2057 3.84922C15.2889 5.41363 16.4087 7.03125 18.2031 7.03125C18.527 7.03125 18.7891 6.76918 18.7891 6.44531ZM7.65625 8.20312H5.3125C4.98863 8.20312 4.72656 8.4652 4.72656 8.78906V15.8594C4.72656 16.1832 4.98863 16.4453 5.3125 16.4453H7.65625C7.98012 16.4453 8.24219 16.1832 8.24219 15.8594V8.78906C8.24219 8.4652 7.98012 8.20312 7.65625 8.20312Z" fill="white"/>
<path d="M12.3438 4.6875H10C9.67613 4.6875 9.41406 4.94957 9.41406 5.27344V15.8594C9.41406 16.1832 9.67613 16.4453 10 16.4453H12.3438C12.6676 16.4453 12.9297 16.1832 12.9297 15.8594V5.27344C12.9297 4.94957 12.6676 4.6875 12.3438 4.6875ZM14.6875 8.20312C14.3636 8.20312 14.1016 8.4652 14.1016 8.78906V15.8594C14.1016 16.1832 14.3636 16.4453 14.6875 16.4453H17.0312C17.3551 16.4453 17.6172 16.1832 17.6172 15.8594V8.78906C17.6172 8.4652 17.3551 8.20312 17.0312 8.20312H14.6875Z" fill="white"/>
</g>
<defs>
<clipPath id="clip0_3344_1891">
<rect width="20" height="20" fill="white"/>
</clipPath>
</defs>
</svg>
