<svg width="20" height="20" viewBox="0 0 20 20" fill="none" xmlns="http://www.w3.org/2000/svg">
<path d="M12.7108 11.1947H7.33234C7.15958 11.1947 7.01953 11.3348 7.01953 11.5075V19.3816C7.01953 19.5543 7.15958 19.6944 7.33234 19.6944H12.7108C12.8835 19.6944 13.0236 19.5543 13.0236 19.3816V11.5075C13.0236 11.3348 12.8835 11.1947 12.7108 11.1947Z" fill="white"/>
<path d="M13.046 2.49185L11.1351 2.21342L10.2813 0.480917C10.2526 0.431844 10.2115 0.391145 10.1622 0.362864C10.1128 0.334582 10.057 0.319702 10.0001 0.319702C9.94322 0.319702 9.88734 0.334582 9.838 0.362864C9.78866 0.391145 9.74758 0.431844 9.71884 0.480917L8.86509 2.21342L6.95415 2.49185C6.89596 2.49972 6.84116 2.52383 6.79603 2.56141C6.75091 2.59899 6.71729 2.64852 6.69902 2.70433C6.68075 2.76014 6.67858 2.81997 6.69275 2.87696C6.70693 2.93395 6.73687 2.98579 6.77915 3.02654L8.16447 4.37498L7.83603 6.27623C7.82613 6.33386 7.83259 6.39311 7.85469 6.44725C7.87678 6.50139 7.91363 6.54824 7.96103 6.58248C8.00875 6.61655 8.065 6.63667 8.1235 6.64059C8.18201 6.64451 8.24044 6.63207 8.29228 6.60467L10.0001 5.70654L11.7076 6.60404C11.7527 6.62841 11.8032 6.64129 11.8545 6.64154C11.9208 6.64206 11.9854 6.62112 12.0388 6.58185C12.0862 6.54761 12.1231 6.50076 12.1452 6.44662C12.1673 6.39249 12.1737 6.33323 12.1638 6.2756L11.8357 4.37498L13.221 3.02717C13.2633 2.98641 13.2933 2.93457 13.3074 2.87758C13.3216 2.8206 13.3194 2.76077 13.3012 2.70496C13.2829 2.64915 13.2493 2.59961 13.2042 2.56203C13.159 2.52445 13.1042 2.50035 13.046 2.49248V2.49185ZM18.0901 13.69H13.6495V19.694H18.0901C18.173 19.694 18.2525 19.6611 18.3111 19.6025C18.3697 19.5439 18.4026 19.4644 18.4026 19.3815V14.0028C18.4026 13.9617 18.3946 13.9211 18.3789 13.8831C18.3632 13.8452 18.3402 13.8107 18.3112 13.7816C18.2822 13.7526 18.2477 13.7295 18.2098 13.7138C18.1718 13.6981 18.1312 13.69 18.0901 13.69ZM18.8813 3.57998C18.8633 3.52434 18.8299 3.47489 18.7851 3.43727C18.7403 3.39965 18.6858 3.37536 18.6279 3.36717L17.2301 3.16717L16.6076 1.9006C16.582 1.84777 16.542 1.80321 16.4923 1.77203C16.4426 1.74086 16.385 1.72432 16.3263 1.72432C16.2676 1.72432 16.2101 1.74086 16.1604 1.77203C16.1106 1.80321 16.0707 1.84777 16.0451 1.9006L15.4229 3.16717L14.0251 3.36717C13.9672 3.37536 13.9127 3.39965 13.8679 3.43727C13.8231 3.47489 13.7897 3.52434 13.7717 3.57998C13.7536 3.63568 13.7514 3.6953 13.7652 3.75219C13.7791 3.80908 13.8084 3.86101 13.8501 3.90217L14.8632 4.88717L14.6223 6.2756C14.6126 6.3331 14.619 6.39216 14.641 6.44618C14.6629 6.5002 14.6995 6.54704 14.7466 6.58146C14.7936 6.61588 14.8494 6.63651 14.9075 6.64105C14.9656 6.64559 15.0239 6.63386 15.0757 6.60717L16.3257 5.95092L17.5735 6.60717C17.6194 6.6292 17.6695 6.64094 17.7204 6.64154C17.7867 6.64206 17.8514 6.62112 17.9048 6.58185C17.9517 6.54727 17.988 6.50027 18.0096 6.44616C18.0311 6.39204 18.0372 6.33297 18.027 6.2756L17.7892 4.88717L18.8023 3.90217C18.844 3.86103 18.8734 3.80914 18.8874 3.75226C18.9014 3.69538 18.8993 3.63574 18.8813 3.57998ZM1.59759 14.0028V19.3815C1.59759 19.4644 1.63052 19.5439 1.68912 19.6025C1.74773 19.6611 1.82721 19.694 1.91009 19.694H6.39447V13.69H1.91009C1.86903 13.69 1.82837 13.6981 1.79043 13.7138C1.7525 13.7295 1.71803 13.7526 1.68901 13.7816C1.65999 13.8107 1.63698 13.8452 1.62129 13.8831C1.6056 13.9211 1.59755 13.9617 1.59759 14.0028ZM1.97259 6.2756C1.96238 6.33297 1.96842 6.39204 1.99001 6.44616C2.0116 6.50027 2.04789 6.54727 2.09478 6.58185C2.14819 6.62112 2.21287 6.64206 2.27915 6.64154C2.33003 6.64094 2.38016 6.6292 2.42603 6.60717L3.67384 5.95092L4.92384 6.60717C4.97568 6.63386 5.03393 6.64559 5.09206 6.64105C5.1502 6.63651 5.20592 6.61588 5.25298 6.58146C5.30005 6.54704 5.33661 6.5002 5.35856 6.44618C5.38052 6.39216 5.387 6.3331 5.37728 6.2756L5.13634 4.88717L6.14947 3.90217C6.19111 3.86101 6.2205 3.80908 6.23435 3.75219C6.2482 3.6953 6.24597 3.63568 6.2279 3.57998C6.20982 3.52434 6.17647 3.47489 6.13167 3.43727C6.08686 3.39965 6.0324 3.37536 5.97447 3.36717L4.57665 3.16717L3.9554 1.9006C3.92624 1.85207 3.88501 1.81191 3.83572 1.78402C3.78644 1.75614 3.73078 1.74149 3.67415 1.74149C3.61753 1.74149 3.56187 1.75614 3.51258 1.78402C3.4633 1.81191 3.42207 1.85207 3.3929 1.9006L2.77009 3.16717L1.37228 3.36717C1.31435 3.37536 1.25988 3.39965 1.21508 3.43727C1.17027 3.47489 1.13693 3.52434 1.11884 3.57998C1.10085 3.63568 1.09865 3.69529 1.1125 3.75216C1.12635 3.80904 1.15569 3.86097 1.19728 3.90217L2.2104 4.88717L1.97259 6.2756Z" fill="white"/>
</svg>
