<svg width="40" height="40" viewBox="0 0 40 40" fill="none" xmlns="http://www.w3.org/2000/svg">
<path opacity="0.2" d="M35.7907 16.9985L28.1813 23.561L30.5063 33.372C30.5678 33.6241 30.5531 33.8888 30.4642 34.1326C30.3753 34.3764 30.2161 34.5884 30.0067 34.7417C29.7974 34.895 29.5472 34.9829 29.288 34.9941C29.0287 35.0053 28.7719 34.9394 28.5501 34.8048L20.0001 29.5454L11.4501 34.8032C11.2282 34.9379 10.9715 35.0038 10.7122 34.9925C10.4529 34.9813 10.2028 34.8935 9.99345 34.7401C9.78409 34.5868 9.62488 34.3748 9.53595 34.131C9.44703 33.8872 9.43237 33.6225 9.49383 33.3704L11.8188 23.5595L4.20946 16.997C4.01545 16.8266 3.87557 16.6032 3.8071 16.3542C3.73863 16.1053 3.74456 15.8417 3.82416 15.5961C3.90375 15.3505 4.05354 15.1336 4.25502 14.9721C4.45649 14.8107 4.70084 14.7118 4.9579 14.6876L14.9438 13.8751L18.7907 4.56259C18.8888 4.32234 19.0562 4.11674 19.2716 3.97201C19.487 3.82729 19.7406 3.75 20.0001 3.75C20.2596 3.75 20.5132 3.82729 20.7286 3.97201C20.944 4.11674 21.1114 4.32234 21.2095 4.56259L25.0563 13.8751L35.0423 14.6876C35.2997 14.7115 35.5444 14.8103 35.7462 14.9719C35.948 15.1334 36.0981 15.3506 36.1777 15.5965C36.2574 15.8425 36.2631 16.1063 36.1944 16.3555C36.1256 16.6047 35.9852 16.8283 35.7907 16.9985Z" fill="#F6F6F6"/>
<path d="M37.3717 15.1967C37.2155 14.7162 36.9205 14.2928 36.524 13.9797C36.1275 13.6666 35.6472 13.4779 35.1436 13.4373L25.9249 12.6935L22.3655 4.08572C22.173 3.61668 21.8454 3.21548 21.4243 2.93312C21.0032 2.65076 20.5076 2.5 20.0006 2.5C19.4936 2.5 18.9981 2.65076 18.577 2.93312C18.1559 3.21548 17.8283 3.61668 17.6358 4.08572L14.0795 12.692L4.85611 13.4373C4.3517 13.4799 3.87109 13.6705 3.47451 13.9851C3.07792 14.2997 2.78299 14.7243 2.62667 15.2058C2.47035 15.6873 2.4596 16.2042 2.59574 16.6917C2.73189 17.1793 3.0089 17.6158 3.39205 17.9467L10.4233 24.0138L8.28111 33.0857C8.1613 33.5786 8.19064 34.0959 8.36539 34.5721C8.54014 35.0482 8.85243 35.4617 9.26261 35.7601C9.67279 36.0584 10.1624 36.2281 10.6692 36.2477C11.176 36.2673 11.6772 36.1359 12.1092 35.8701L19.9999 31.0138L27.8952 35.8701C28.3273 36.1327 28.8275 36.2616 29.3328 36.2406C29.838 36.2195 30.3258 36.0494 30.7345 35.7517C31.1433 35.454 31.4549 35.0421 31.63 34.5676C31.8051 34.0932 31.8359 33.5776 31.7186 33.0857L29.5686 24.0123L36.5999 17.9451C36.9861 17.6148 37.2657 17.1773 37.4031 16.6881C37.5405 16.1988 37.5296 15.6797 37.3717 15.1967ZM34.9749 16.0513L27.3655 22.6138C27.192 22.7634 27.0629 22.9578 26.9923 23.1758C26.9218 23.3937 26.9125 23.6269 26.9655 23.8498L29.2905 33.6623C29.2965 33.6758 29.2971 33.6911 29.2922 33.7051C29.2872 33.719 29.2771 33.7306 29.2639 33.7373C29.2358 33.7592 29.228 33.7545 29.2045 33.7373L20.6545 28.4795C20.4576 28.3584 20.231 28.2943 19.9999 28.2943C19.7687 28.2943 19.5421 28.3584 19.3452 28.4795L10.7952 33.7404C10.7717 33.7545 10.7655 33.7592 10.7358 33.7404C10.7226 33.7337 10.7125 33.7222 10.7076 33.7082C10.7026 33.6943 10.7032 33.6789 10.7092 33.6654L13.0342 23.8529C13.0872 23.63 13.0779 23.3969 13.0074 23.1789C12.9369 22.9609 12.8078 22.7665 12.6342 22.617L5.02486 16.0545C5.00611 16.0388 4.98892 16.0248 5.00455 15.9763C5.02017 15.9279 5.03267 15.9342 5.05611 15.931L15.0436 15.1248C15.2727 15.1051 15.4919 15.0227 15.6772 14.8865C15.8624 14.7503 16.0065 14.5657 16.0936 14.3529L19.9405 5.03885C19.953 5.01228 19.9577 4.99978 19.9952 4.99978C20.0327 4.99978 20.0374 5.01228 20.0499 5.03885L23.9061 14.3529C23.994 14.5658 24.139 14.7502 24.3252 14.8859C24.5113 15.0215 24.7312 15.1031 24.9608 15.1217L34.9483 15.9279C34.9717 15.9279 34.9858 15.9279 34.9999 15.9732C35.0139 16.0185 34.9999 16.0357 34.9749 16.0513Z" fill="#F6F6F6"/>
</svg>
