<svg width="20" height="20" viewBox="0 0 20 20" fill="none" xmlns="http://www.w3.org/2000/svg">
<path fill-rule="evenodd" clip-rule="evenodd" d="M18.1613 5.3341C18.1502 5.49468 18.0777 5.6448 17.9587 5.75328C17.8398 5.86176 17.6837 5.92025 17.5228 5.9166C17.3619 5.91296 17.2085 5.84745 17.0947 5.73369C16.9808 5.61994 16.9151 5.46668 16.9113 5.30577L16.9455 3.80077L15.4413 3.7666C15.2807 3.7555 15.1306 3.68295 15.0221 3.56404C14.9136 3.44513 14.8552 3.28899 14.8588 3.12808C14.8624 2.96716 14.928 2.81383 15.0417 2.69996C15.1555 2.58609 15.3087 2.52042 15.4696 2.5166L17.5996 2.56577C17.6816 2.5675 17.7625 2.5854 17.8376 2.61844C17.9127 2.65148 17.9805 2.69901 18.0371 2.75831C18.0938 2.81762 18.1382 2.88752 18.1678 2.96402C18.1974 3.04051 18.2116 3.1221 18.2096 3.2041L18.1613 5.3341ZM4.85714 7.78827V17.9058C4.85714 18.4874 4.3863 18.9583 3.80464 18.9583H2.09547C1.95722 18.9584 1.82031 18.9312 1.69257 18.8784C1.56482 18.8255 1.44875 18.748 1.35099 18.6502C1.25324 18.5525 1.17572 18.4364 1.12286 18.3087C1.07001 18.1809 1.04286 18.044 1.04297 17.9058V7.78827C1.04297 7.20743 1.5138 6.73577 2.09547 6.73577H3.80464C4.3863 6.73577 4.85714 7.20743 4.85714 7.78827ZM14.2588 12.9166V17.9058C14.2589 18.044 14.2318 18.1809 14.1789 18.3087C14.1261 18.4364 14.0485 18.5525 13.9508 18.6502C13.853 18.748 13.737 18.8255 13.6092 18.8784C13.4815 18.9312 13.3445 18.9584 13.2063 18.9583H11.4971C11.3589 18.9584 11.222 18.9312 11.0942 18.8784C10.9665 18.8255 10.8504 18.748 10.7527 18.6502C10.6549 18.5525 10.5774 18.4364 10.5245 18.3087C10.4717 18.1809 10.4445 18.044 10.4446 17.9058V12.9166C10.4445 12.7784 10.4717 12.6414 10.5245 12.5137C10.5774 12.386 10.6549 12.2699 10.7527 12.1721C10.8504 12.0744 10.9665 11.9969 11.0942 11.944C11.222 11.8911 11.3589 11.864 11.4971 11.8641H13.2063C13.3445 11.864 13.4815 11.8911 13.6092 11.944C13.737 11.9969 13.853 12.0744 13.9508 12.1721C14.0485 12.2699 14.1261 12.386 14.1789 12.5137C14.2318 12.6414 14.2589 12.7784 14.2588 12.9166ZM9.55797 10.3524V17.9058C9.55797 18.4874 9.08714 18.9583 8.50547 18.9583H6.7963C6.65806 18.9584 6.52114 18.9312 6.3934 18.8784C6.26565 18.8255 6.14958 18.748 6.05183 18.6502C5.95407 18.5525 5.87655 18.4364 5.8237 18.3087C5.77084 18.1809 5.74369 18.044 5.7438 17.9058V10.3524C5.74369 10.2142 5.77084 10.0773 5.8237 9.94953C5.87655 9.82179 5.95407 9.70572 6.05183 9.60796C6.14958 9.5102 6.26565 9.43268 6.3934 9.37983C6.52114 9.32697 6.65806 9.29983 6.7963 9.29993H8.50547C9.08714 9.29993 9.55797 9.7716 9.55797 10.3524ZM18.9596 10.3524V17.9058C18.9596 18.4874 18.4888 18.9583 17.9071 18.9583H16.198C16.0597 18.9584 15.9228 18.9312 15.7951 18.8784C15.6673 18.8255 15.5513 18.748 15.4535 18.6502C15.3557 18.5525 15.2782 18.4364 15.2254 18.3087C15.1725 18.1809 15.1454 18.044 15.1455 17.9058V10.3524C15.1454 10.2142 15.1725 10.0773 15.2254 9.94953C15.2782 9.82179 15.3557 9.70572 15.4535 9.60796C15.5513 9.5102 15.6673 9.43268 15.7951 9.37983C15.9228 9.32697 16.0597 9.29983 16.198 9.29993H17.9071C18.4888 9.29993 18.9596 9.7716 18.9596 10.3524Z" fill="white"/>
<path fill-rule="evenodd" clip-rule="evenodd" d="M2.04297 2.16663C1.91036 2.06717 1.82269 1.91911 1.79925 1.75502C1.77581 1.59092 1.81852 1.42424 1.91797 1.29163C2.01743 1.15902 2.16549 1.07135 2.32958 1.04791C2.49368 1.02447 2.66036 1.06717 2.79297 1.16663L7.75381 4.88746H10.1096C10.2044 4.88747 10.2978 4.909 10.383 4.95043C10.4682 4.99186 10.5428 5.05211 10.6013 5.12663L12.5071 7.55246L16.9238 2.9433C16.9806 2.88404 17.0485 2.83654 17.1237 2.80353C17.1988 2.77052 17.2797 2.75263 17.3618 2.75089C17.4439 2.74915 17.5255 2.76359 17.6019 2.79338C17.6784 2.82318 17.7483 2.86775 17.8076 2.92455C17.8668 2.98134 17.9143 3.04925 17.9473 3.12441C17.9803 3.19956 17.9982 3.28047 18 3.36254C18.0017 3.4446 17.9873 3.5262 17.9575 3.60269C17.9277 3.67917 17.8831 3.74904 17.8263 3.8083L12.9113 8.93663C12.8496 9.00156 12.7746 9.0524 12.6914 9.08568C12.6082 9.11896 12.5188 9.1339 12.4294 9.12947C12.3399 9.12504 12.2524 9.10135 12.1729 9.06001C12.0934 9.01868 12.0238 8.96067 11.9688 8.88996L9.8063 6.13746H7.54547C7.41021 6.13764 7.27857 6.09376 7.17047 6.01246L2.04297 2.16663Z" fill="white"/>
</svg>
