<svg width="20" height="20" viewBox="0 0 20 20" fill="none" xmlns="http://www.w3.org/2000/svg">
<g clip-path="url(#clip0_3344_1888)">
<path fill-rule="evenodd" clip-rule="evenodd" d="M11.361 4.29686C11.9645 4.44063 12.5412 4.67971 13.0693 5.0051L14.1794 4.51206L15.4878 5.82038L14.9949 6.93014C15.3203 7.45844 15.5595 8.03527 15.7032 8.63889L16.8358 9.07483V10.9251L15.703 11.3612C15.5592 11.9646 15.3201 12.5413 14.9947 13.0695L15.4877 14.1796L14.1794 15.4879L13.0697 14.995C12.5414 15.3205 11.9645 15.5596 11.3609 15.7034L10.925 16.8359H9.07476L8.6387 15.7031C8.03523 15.5594 7.45855 15.3203 6.93038 14.9949L5.8203 15.4879L4.51195 14.1796L5.00484 13.0699C4.67936 12.5416 4.44025 11.9647 4.29652 11.3611L3.16394 10.9251V9.07487L4.29663 8.63889C4.44038 8.03536 4.67947 7.45862 5.00491 6.93042L4.51195 5.82046L5.82027 4.5121L6.93034 5.00514C7.45852 4.67976 8.0352 4.44067 8.63866 4.2969L9.07472 3.16409H10.925L11.361 4.29686ZM9.99988 6.1785C7.88941 6.1785 6.17843 7.88952 6.17843 9.99999C6.17843 12.1105 7.88941 13.8215 9.99988 13.8215C12.1103 13.8215 13.8214 12.1105 13.8214 9.99999C13.8214 7.88952 12.1103 6.1785 9.99988 6.1785ZM9.99988 6.8035C8.23448 6.8035 6.80339 8.23456 6.80339 9.99999C6.80339 11.7654 8.23445 13.1965 9.99988 13.1965C11.7653 13.1965 13.1964 11.7654 13.1964 9.99999C13.1964 8.2346 11.7653 6.8035 9.99988 6.8035ZM9.53898 10.3095L8.75491 9.52546C8.55171 9.32225 8.22206 9.32225 8.01886 9.52546C7.81566 9.72866 7.81566 10.0583 8.01886 10.2615L9.17206 11.4147C9.37527 11.6179 9.70491 11.6179 9.90808 11.4147C10.6032 10.7196 11.2904 10.0167 11.9823 9.31835C12.1841 9.11475 12.1834 8.78616 11.9801 8.58393C11.7767 8.38167 11.4472 8.38221 11.2452 8.5862L9.53898 10.3095ZM10.0258 19.0629C5.57964 19.0789 1.74905 15.8444 1.04843 11.4161C0.398195 7.30651 2.65905 3.2571 6.47187 1.65214L6.04433 2.45819C6.02524 2.49442 6.01349 2.53405 6.00972 2.57482C6.00596 2.6156 6.01027 2.65671 6.0224 2.69582C6.03453 2.73493 6.05424 2.77126 6.08042 2.80275C6.1066 2.83423 6.13872 2.86025 6.17495 2.87932C6.21118 2.89841 6.25081 2.91017 6.29158 2.91393C6.33236 2.91769 6.37347 2.91339 6.41258 2.90125C6.45169 2.88912 6.48802 2.86941 6.51951 2.84323C6.551 2.81706 6.57702 2.78493 6.59609 2.7487L7.39937 1.23425C7.50421 1.05647 7.40948 0.823698 7.20624 0.772878L5.52878 0.352331C5.48903 0.342387 5.44771 0.340371 5.40717 0.346399C5.36664 0.352427 5.32769 0.366381 5.29255 0.387464C5.25741 0.408546 5.22677 0.436345 5.20238 0.469271C5.17799 0.502197 5.16032 0.539607 5.15038 0.579362C5.14044 0.619116 5.13842 0.660439 5.14445 0.700971C5.15048 0.741503 5.16443 0.780451 5.18552 0.81559C5.2066 0.850729 5.2344 0.88137 5.26732 0.905764C5.30025 0.930158 5.33766 0.947827 5.37741 0.957761L6.09042 1.13655C2.09155 2.89757 -0.253523 7.17374 0.433196 11.5138C1.18222 16.2481 5.27253 19.7025 10.0258 19.6855C10.1073 19.6839 10.1849 19.6504 10.242 19.5922C10.2991 19.534 10.3311 19.4557 10.3311 19.3742C10.3311 19.2927 10.2991 19.2144 10.242 19.1562C10.1849 19.098 10.1073 19.0645 10.0258 19.0629ZM14.6223 19.0421L13.9086 18.8632C17.9251 17.0974 20.2545 12.8342 19.5666 8.48616C18.8173 3.75108 14.7282 0.297097 9.97394 0.314519C9.89223 0.315813 9.81431 0.349179 9.75699 0.407416C9.69967 0.465653 9.66754 0.544093 9.66754 0.625808C9.66754 0.707523 9.69967 0.785962 9.75699 0.844199C9.81431 0.902437 9.89223 0.935802 9.97394 0.937097C14.4218 0.920808 18.2504 4.15385 18.9513 8.58389C19.6029 12.7023 17.3574 16.7352 13.5273 18.3489L13.9554 17.5418C13.9745 17.5056 13.9862 17.4659 13.99 17.4252C13.9938 17.3844 13.9894 17.3433 13.9773 17.3042C13.9652 17.265 13.9455 17.2287 13.9193 17.1972C13.8931 17.1657 13.861 17.1397 13.8248 17.1206C13.7885 17.1016 13.7489 17.0898 13.7081 17.086C13.6674 17.0823 13.6262 17.0866 13.5871 17.0987C13.548 17.1108 13.5117 17.1306 13.4802 17.1567C13.4487 17.1829 13.4227 17.215 13.4036 17.2513L12.6003 18.7657C12.4955 18.9435 12.5901 19.1763 12.7934 19.2271L14.4709 19.6477C14.5107 19.6577 14.552 19.6597 14.5925 19.6537C14.6331 19.6476 14.672 19.6337 14.7072 19.6126C14.7423 19.5915 14.7729 19.5637 14.7973 19.5308C14.8217 19.4979 14.8394 19.4604 14.8493 19.4207C14.8593 19.3809 14.8613 19.3396 14.8553 19.299C14.8493 19.2585 14.8353 19.2195 14.8142 19.1844C14.7931 19.1492 14.7653 19.1186 14.7324 19.0942C14.6995 19.0698 14.6621 19.0521 14.6223 19.0421Z" fill="white"/>
</g>
<defs>
<clipPath id="clip0_3344_1888">
<rect width="20" height="20" fill="white"/>
</clipPath>
</defs>
</svg>
