<svg width="16" height="10" viewBox="0 0 16 10" fill="none" xmlns="http://www.w3.org/2000/svg">
<path d="M7.3284 6.87006C7.99853 6.42393 8.50729 5.77398 8.77946 5.01634C9.05164 4.2587 9.07276 3.43358 8.83972 2.663C8.60668 1.89242 8.13184 1.21729 7.48542 0.737449C6.839 0.25761 6.05532 -0.00146484 5.25028 -0.00146484C4.44523 -0.00146484 3.66155 0.25761 3.01513 0.737449C2.36871 1.21729 1.89388 1.89242 1.66083 2.663C1.42779 3.43358 1.44892 4.2587 1.72109 5.01634C1.99326 5.77398 2.50202 6.42393 3.17215 6.87006C1.95996 7.31683 0.924716 8.14358 0.2209 9.22693C0.18391 9.28191 0.158217 9.34369 0.145313 9.40869C0.13241 9.47368 0.132555 9.54059 0.145738 9.60553C0.158922 9.67047 0.184882 9.73214 0.222109 9.78695C0.259336 9.84177 0.307088 9.88864 0.362589 9.92484C0.41809 9.96104 0.480233 9.98585 0.545405 9.99782C0.610578 10.0098 0.67748 10.0087 0.742223 9.99458C0.806966 9.98047 0.868258 9.95363 0.922537 9.91562C0.976815 9.87761 1.023 9.8292 1.0584 9.77318C1.51239 9.07492 2.13362 8.50113 2.86567 8.10392C3.59772 7.70671 4.4174 7.49865 5.25028 7.49865C6.08315 7.49865 6.90283 7.70671 7.63488 8.10392C8.36693 8.50113 8.98816 9.07492 9.44215 9.77318C9.51549 9.88218 9.62877 9.95793 9.75751 9.98407C9.88626 10.0102 10.0201 9.98463 10.1301 9.91286C10.2402 9.84109 10.3175 9.7289 10.3455 9.60055C10.3735 9.47219 10.3498 9.33798 10.2797 9.22693C9.57583 8.14358 8.54059 7.31683 7.3284 6.87006ZM2.50028 3.75006C2.50028 3.20616 2.66156 2.67447 2.96373 2.22224C3.26591 1.77 3.6954 1.41753 4.1979 1.20939C4.70039 1.00125 5.25333 0.946788 5.78677 1.0529C6.32022 1.15901 6.81022 1.42092 7.19482 1.80551C7.57941 2.19011 7.84133 2.68011 7.94743 3.21356C8.05354 3.74701 7.99908 4.29994 7.79094 4.80244C7.5828 5.30493 7.23033 5.73442 6.77809 6.0366C6.32586 6.33877 5.79417 6.50006 5.25028 6.50006C4.52118 6.49923 3.82219 6.20923 3.30664 5.69369C2.7911 5.17814 2.5011 4.47915 2.50028 3.75006ZM15.634 9.91881C15.523 9.99123 15.3877 10.0166 15.2579 9.98927C15.1282 9.96196 15.0146 9.88423 14.9422 9.77318C14.4887 9.07451 13.8676 8.50047 13.1354 8.10342C12.4032 7.70637 11.5832 7.49894 10.7503 7.50006C10.6177 7.50006 10.4905 7.44738 10.3967 7.35361C10.303 7.25984 10.2503 7.13267 10.2503 7.00006C10.2503 6.86745 10.303 6.74027 10.3967 6.6465C10.4905 6.55274 10.6177 6.50006 10.7503 6.50006C11.1553 6.49968 11.5552 6.40985 11.9214 6.237C12.2876 6.06416 12.6112 5.81255 12.8689 5.50017C13.1266 5.18778 13.3122 4.82233 13.4123 4.42992C13.5124 4.03751 13.5247 3.62783 13.4481 3.23015C13.3715 2.83247 13.2081 2.45661 12.9694 2.12943C12.7307 1.80225 12.4228 1.53181 12.0675 1.33745C11.7122 1.14309 11.3183 1.02961 10.9141 1.0051C10.5099 0.980591 10.1052 1.04567 9.72903 1.19568C9.66769 1.2222 9.60167 1.23615 9.53485 1.23671C9.46803 1.23728 9.40178 1.22444 9.34001 1.19897C9.27823 1.1735 9.22219 1.1359 9.1752 1.0884C9.1282 1.0409 9.0912 0.984465 9.06639 0.922425C9.04157 0.860385 9.02944 0.794 9.03071 0.727193C9.03199 0.660386 9.04664 0.594513 9.07381 0.533464C9.10097 0.472416 9.14009 0.417431 9.18887 0.37176C9.23764 0.326088 9.29508 0.290656 9.35778 0.267557C10.2187 -0.0757864 11.1763 -0.0881419 12.0457 0.232873C12.9152 0.553889 13.635 1.18553 14.0663 2.00594C14.4975 2.82635 14.6097 3.77741 14.3811 4.67563C14.1525 5.57385 13.5994 6.3556 12.8284 6.87006C14.0406 7.31683 15.0758 8.14358 15.7797 9.22693C15.8521 9.338 15.8774 9.47328 15.8501 9.60303C15.8228 9.73277 15.7451 9.84636 15.634 9.91881Z" fill="#F6F6F6"/>
</svg>
