<svg width="20" height="21" viewBox="0 0 20 21" fill="none" xmlns="http://www.w3.org/2000/svg">
<path fill-rule="evenodd" clip-rule="evenodd" d="M14.2723 3.35394L12.972 8.04434C12.9606 8.01536 12.9488 7.98516 12.9365 7.95381C12.3982 6.57824 10.9911 2.98242 7.21347 2.98242C3.3497 2.98242 1.12988 7.02267 1.12988 10.4128C1.12988 13.6171 2.89459 17.936 7.49211 17.936C11.1701 17.936 12.941 15.196 13.3899 13.8957C13.5757 15.196 14.3373 17.9824 16.2692 17.9824C18.2011 17.9824 18.8079 15.3818 18.8698 14.0815H18.1268C18.0958 14.7781 17.6252 16.1713 16.3621 16.1713C14.8723 16.1713 14.4065 13.8306 14.1542 12.5624C14.1469 12.5261 14.1399 12.4906 14.133 12.4561L16.78 3.35394H14.2723ZM12.3683 9.76261C11.9813 7.87406 10.5664 4.09697 8.00295 4.09697C4.79861 4.09697 4.05558 7.30131 4.05558 10.5521C4.05558 13.8029 4.93793 17.1465 7.91007 16.8214C10.4348 16.5453 11.3287 13.3873 12.015 10.9625C12.1366 10.5328 12.2518 10.1261 12.3683 9.76261Z" fill="#F6F6F6"/>
</svg>
