<svg width="14" height="14" viewBox="0 0 24 24" fill="none" xmlns="http://www.w3.org/2000/svg">
<g clip-path="url(#clip0_3344_1744)">
<mask id="mask0_3344_1744" style="mask-type:luminance" maskUnits="userSpaceOnUse" x="0" y="0" width="24" height="24">
<path d="M23.4999 23.5V0.500071H0.5V23.5H23.4999Z" fill="white" stroke="white"/>
</mask>
<g mask="url(#mask0_3344_1744)">
<path d="M13.1593 6.27566C14.6652 8.828 15.3411 12 15.3411 12C15.3411 12 13.4022 20.8797 8.94284 20.8797C5.89827 20.8797 4.16094 16.9043 4.16094 12C4.16094 7.09569 5.89827 3.12028 8.94284 3.12028C10.257 3.12028 11.3489 3.87553 12.2363 4.94554M20.6357 5.65579L21.6142 3.12009C21.6777 2.95176 21.779 2.8003 21.9104 2.67742C22.0418 2.55455 22.1997 2.46357 22.3719 2.41153C22.5718 2.35111 22.7109 2.17022 22.7109 1.96139V1.33369C22.7109 1.0748 22.501 0.864943 22.2421 0.864943H19.0705C18.9177 0.864933 18.7691 0.914697 18.6471 1.0067C18.5252 1.0987 18.4365 1.22794 18.3945 1.37485L16.3828 8.41409C16.3828 8.41409 14.3671 0.850459 8.94284 0.850459C3.39843 0.850459 0.351562 5.84207 0.351562 12C0.351562 13.2846 0.453514 14.5184 0.67167 15.6668M1.0664 17.2535C2.16899 20.7625 4.62247 23.1495 8.94284 23.1495C14.1796 23.1495 16.664 16.1016 16.664 16.1016L17.6019 19.145M18.0739 20.6763L18.6217 22.454C18.666 22.5976 18.7551 22.7233 18.876 22.8126C18.997 22.9018 19.1433 22.95 19.2936 22.95H23.1796C23.4385 22.95 23.6484 22.7401 23.6484 22.4812V21.9222C23.6484 21.6633 23.4385 21.4534 23.1796 21.4534H22.9704C22.742 21.4534 22.5186 21.3867 22.3276 21.2614C22.1366 21.1361 21.9864 20.9578 21.8954 20.7483L18.1874 12L20.0438 7.18954" stroke="#00FFFF" stroke-miterlimit="10" stroke-linecap="round" stroke-linejoin="round"/>
<path d="M16.3815 8.41407L15.3398 12" stroke="#00FFFF" stroke-miterlimit="10" stroke-linecap="round" stroke-linejoin="round"/>
<path d="M18.1875 12L16.6641 16.1016" stroke="#00FFFF" stroke-miterlimit="10" stroke-linecap="round" stroke-linejoin="round"/>
</g>
</g>
<defs>
<clipPath id="clip0_3344_1744">
<rect width="24" height="24" fill="white"/>
</clipPath>
</defs>
</svg>
