<svg width="11" height="14" viewBox="0 0 11 14" fill="none" xmlns="http://www.w3.org/2000/svg">
<path fill-rule="evenodd" clip-rule="evenodd" d="M1.19318 0H3.34091C4.65886 0 5.72727 1.11929 5.72727 2.5V3.75C5.72727 4.44036 6.26148 5 6.92045 5H8.11364C9.43159 5 10.5 6.11929 10.5 7.5V12.75C10.5 13.4404 9.96579 14 9.30682 14H1.19318C0.534205 14 0 13.4404 0 12.75V1.25C0 0.559644 0.534206 0 1.19318 0ZM3.81818 10.5C3.81818 10.2239 3.6045 10 3.34091 10C3.07732 10 2.86364 10.2239 2.86364 10.5V11C2.86364 11.2761 3.07732 11.5 3.34091 11.5C3.6045 11.5 3.81818 11.2761 3.81818 11V10.5ZM5.25 8.5C5.51359 8.5 5.72727 8.72386 5.72727 9V11C5.72727 11.2761 5.51359 11.5 5.25 11.5C4.98641 11.5 4.77273 11.2761 4.77273 11V9C4.77273 8.72386 4.98641 8.5 5.25 8.5ZM7.63636 7.5C7.63636 7.22386 7.42268 7 7.15909 7C6.8955 7 6.68182 7.22386 6.68182 7.5V11C6.68182 11.2761 6.8955 11.5 7.15909 11.5C7.42268 11.5 7.63636 11.2761 7.63636 11V7.5Z" fill="#00FFFF"/>
<path d="M6.68182 2.5C6.68182 1.62463 6.37507 0.824319 5.86803 0.210603C8.03099 0.802516 9.73396 2.58658 10.299 4.85254C9.71315 4.32136 8.94922 4 8.11364 4H6.92045C6.78866 4 6.68182 3.88807 6.68182 3.75V2.5Z" fill="#00FFFF"/>
</svg>
