<svg width="20" height="21" viewBox="0 0 20 21" fill="none" xmlns="http://www.w3.org/2000/svg">
<path opacity="0.2" d="M17.5 6.73242L10 11.1074L2.5 6.73242L10 2.35742L17.5 6.73242Z" fill="#F6F6F6"/>
<path d="M18.0398 13.9199C18.1224 14.0631 18.1448 14.2332 18.1022 14.393C18.0596 14.5527 17.9554 14.6891 17.8125 14.7722L10.3125 19.1472C10.2169 19.2029 10.1083 19.2323 9.99766 19.2323C9.88703 19.2323 9.77838 19.2029 9.68281 19.1472L2.18281 14.7722C2.04195 14.6876 1.94009 14.5508 1.8993 14.3916C1.8585 14.2324 1.88205 14.0636 1.96484 13.9216C2.04764 13.7797 2.18301 13.676 2.34166 13.6331C2.50031 13.5903 2.66946 13.6116 2.8125 13.6925L10 17.8839L17.1875 13.6925C17.3308 13.61 17.5009 13.5875 17.6606 13.6302C17.8204 13.6728 17.9567 13.7769 18.0398 13.9199ZM17.1875 9.94252L10 14.1339L2.8125 9.94252C2.67019 9.87166 2.50623 9.8577 2.35399 9.90347C2.20175 9.94924 2.07267 10.0513 1.99303 10.1889C1.91338 10.3265 1.88916 10.4892 1.92529 10.644C1.96142 10.7989 2.05518 10.9341 2.1875 11.0222L9.6875 15.3972C9.78307 15.4529 9.89171 15.4823 10.0023 15.4823C10.113 15.4823 10.2216 15.4529 10.3172 15.3972L17.8172 11.0222C17.8892 10.9814 17.9524 10.9268 18.0032 10.8614C18.0539 10.796 18.0912 10.7212 18.1128 10.6413C18.1344 10.5614 18.1399 10.478 18.129 10.396C18.1181 10.3139 18.091 10.2349 18.0493 10.1634C18.0076 10.0919 17.9521 10.0294 17.8861 9.97948C17.82 9.92961 17.7447 9.89334 17.6646 9.87279C17.5844 9.85225 17.5009 9.84783 17.419 9.8598C17.3371 9.87177 17.2584 9.89989 17.1875 9.94252ZM1.875 6.73236C1.87525 6.62289 1.90425 6.51541 1.95909 6.42067C2.01393 6.32593 2.0927 6.24725 2.1875 6.19252L9.6875 1.81752C9.78307 1.76179 9.89171 1.73242 10.0023 1.73242C10.113 1.73242 10.2216 1.76179 10.3172 1.81752L17.8172 6.19252C17.9115 6.24756 17.9898 6.32637 18.0442 6.42109C18.0986 6.51581 18.1272 6.62313 18.1272 6.73236C18.1272 6.84159 18.0986 6.94891 18.0442 7.04363C17.9898 7.13835 17.9115 7.21716 17.8172 7.2722L10.3172 11.6472C10.2216 11.7029 10.113 11.7323 10.0023 11.7323C9.89171 11.7323 9.78307 11.7029 9.6875 11.6472L2.1875 7.2722C2.0927 7.21747 2.01393 7.13879 1.95909 7.04405C1.90425 6.94931 1.87525 6.84183 1.875 6.73236ZM3.74063 6.73236L10 10.3839L16.2594 6.73236L10 3.0808L3.74063 6.73236Z" fill="#F6F6F6"/>
</svg>
