<svg width="20" height="21" viewBox="0 0 20 21" fill="none" xmlns="http://www.w3.org/2000/svg">
<path opacity="0.2" d="M17.5 9.72534V16.1074C17.5 16.2731 17.4342 16.4321 17.3169 16.5493C17.1997 16.6665 17.0408 16.7324 16.875 16.7324H3.125C2.95924 16.7324 2.80027 16.6665 2.68306 16.5493C2.56585 16.4321 2.5 16.2731 2.5 16.1074V9.72534C4.77931 11.0439 7.36677 11.7363 10 11.7324C12.6333 11.7366 15.2208 11.0441 17.5 9.72534Z" fill="#F6F6F6"/>
<path d="M8.125 9.23242C8.125 9.06666 8.19085 8.90769 8.30806 8.79048C8.42527 8.67327 8.58424 8.60742 8.75 8.60742H11.25C11.4158 8.60742 11.5747 8.67327 11.6919 8.79048C11.8092 8.90769 11.875 9.06666 11.875 9.23242C11.875 9.39818 11.8092 9.55715 11.6919 9.67436C11.5747 9.79157 11.4158 9.85742 11.25 9.85742H8.75C8.58424 9.85742 8.42527 9.79157 8.30806 9.67436C8.19085 9.55715 8.125 9.39818 8.125 9.23242ZM18.125 6.10742V16.1074C18.125 16.4389 17.9933 16.7569 17.7589 16.9913C17.5245 17.2257 17.2065 17.3574 16.875 17.3574H3.125C2.79348 17.3574 2.47554 17.2257 2.24112 16.9913C2.0067 16.7569 1.875 16.4389 1.875 16.1074V6.10742C1.875 5.7759 2.0067 5.45796 2.24112 5.22354C2.47554 4.98912 2.79348 4.85742 3.125 4.85742H6.25V4.23242C6.25 3.73514 6.44754 3.25823 6.79917 2.9066C7.15081 2.55497 7.62772 2.35742 8.125 2.35742H11.875C12.3723 2.35742 12.8492 2.55497 13.2008 2.9066C13.5525 3.25823 13.75 3.73514 13.75 4.23242V4.85742H16.875C17.2065 4.85742 17.5245 4.98912 17.7589 5.22354C17.9933 5.45796 18.125 5.7759 18.125 6.10742ZM7.5 4.85742H12.5V4.23242C12.5 4.06666 12.4342 3.90769 12.3169 3.79048C12.1997 3.67327 12.0408 3.60742 11.875 3.60742H8.125C7.95924 3.60742 7.80027 3.67327 7.68306 3.79048C7.56585 3.90769 7.5 4.06666 7.5 4.23242V4.85742ZM3.125 6.10742V9.35898C5.23471 10.5068 7.59828 11.1079 10 11.1074C12.4018 11.1079 14.7655 10.5065 16.875 9.3582V6.10742H3.125ZM16.875 16.1074V10.766C14.7344 11.8132 12.383 12.3575 10 12.3574C7.61708 12.3579 5.26557 11.8138 3.125 10.7668V16.1074H16.875Z" fill="#F6F6F6"/>
</svg>
