<svg width="14" height="11" viewBox="0 0 14 11" fill="none" xmlns="http://www.w3.org/2000/svg">
<path fill-rule="evenodd" clip-rule="evenodd" d="M0 1.19318C0 0.534205 0.559644 0 1.25 0H12.75C13.4404 0 14 0.534206 14 1.19318V9.30682C14 9.96579 13.4404 10.5 12.75 10.5H1.25C0.559644 10.5 0 9.96579 0 9.30682V1.19318ZM13 3.57955C13 3.44775 12.8881 3.34091 12.75 3.34091H7.75C7.61193 3.34091 7.5 3.44775 7.5 3.57955V4.53409C7.5 4.66589 7.61193 4.77273 7.75 4.77273H12.75C12.8881 4.77273 13 4.66589 13 4.53409V3.57955ZM13 5.96591C13 5.83411 12.8881 5.72727 12.75 5.72727H7.75C7.61193 5.72727 7.5 5.83411 7.5 5.96591V6.92045C7.5 7.05225 7.61193 7.15909 7.75 7.15909H12.75C12.8881 7.15909 13 7.05225 13 6.92045V5.96591ZM13 8.35227C13 8.22048 12.8881 8.11364 12.75 8.11364H7.75C7.61193 8.11364 7.5 8.22048 7.5 8.35227V9.30682C7.5 9.43861 7.61193 9.54545 7.75 9.54545H12.75C12.8881 9.54545 13 9.43861 13 9.30682V8.35227ZM6.25 9.54545C6.38807 9.54545 6.5 9.43861 6.5 9.30682V8.35227C6.5 8.22048 6.38807 8.11364 6.25 8.11364H1.25C1.11193 8.11364 1 8.22048 1 8.35227V9.30682C1 9.43861 1.11193 9.54545 1.25 9.54545H6.25ZM1.25 7.15909H6.25C6.38807 7.15909 6.5 7.05225 6.5 6.92045V5.96591C6.5 5.83411 6.38807 5.72727 6.25 5.72727H1.25C1.11193 5.72727 1 5.83411 1 5.96591V6.92045C1 7.05225 1.11193 7.15909 1.25 7.15909ZM1.25 4.77273H6.25C6.38807 4.77273 6.5 4.66589 6.5 4.53409V3.57955C6.5 3.44775 6.38807 3.34091 6.25 3.34091H1.25C1.11193 3.34091 1 3.44775 1 3.57955V4.53409C1 4.66589 1.11193 4.77273 1.25 4.77273Z" fill="#00FFFF"/>
</svg>
