<svg width="20" height="21" viewBox="0 0 20 21" fill="none" xmlns="http://www.w3.org/2000/svg">
<path opacity="0.2" d="M10 9.23242C9.44374 9.23242 8.89997 9.06747 8.43746 8.75843C7.97495 8.44939 7.61446 8.01014 7.40159 7.49622C7.18872 6.9823 7.13302 6.4168 7.24154 5.87123C7.35006 5.32566 7.61793 4.82452 8.01126 4.43119C8.4046 4.03785 8.90574 3.76999 9.45131 3.66146C9.99688 3.55294 10.5624 3.60864 11.0763 3.82151C11.5902 4.03438 12.0295 4.39487 12.3385 4.85738C12.6476 5.31989 12.8125 5.86366 12.8125 6.41992C12.8125 7.16584 12.5162 7.88121 11.9887 8.40866C11.4613 8.93611 10.7459 9.23242 10 9.23242ZM14.6875 11.1074C14.1312 11.1074 13.5875 11.2724 13.125 11.5814C12.6624 11.8905 12.302 12.3297 12.0891 12.8436C11.8762 13.3575 11.8205 13.923 11.929 14.4686C12.0376 15.0142 12.3054 15.5153 12.6988 15.9087C13.0921 16.302 13.5932 16.5699 14.1388 16.6784C14.6844 16.7869 15.2499 16.7312 15.7638 16.5183C16.2777 16.3055 16.717 15.945 17.026 15.4825C17.3351 15.02 17.5 14.4762 17.5 13.9199C17.5 13.174 17.2037 12.4586 16.6762 11.9312C16.1488 11.4037 15.4334 11.1074 14.6875 11.1074ZM5.3125 11.1074C4.75624 11.1074 4.21247 11.2724 3.74996 11.5814C3.28745 11.8905 2.92696 12.3297 2.71409 12.8436C2.50122 13.3575 2.44552 13.923 2.55404 14.4686C2.66256 15.0142 2.93043 15.5153 3.32376 15.9087C3.7171 16.302 4.21824 16.5699 4.76381 16.6784C5.30938 16.7869 5.87488 16.7312 6.3888 16.5183C6.90272 16.3055 7.34197 15.945 7.65101 15.4825C7.96005 15.02 8.125 14.4762 8.125 13.9199C8.125 13.174 7.82868 12.4586 7.30124 11.9312C6.77379 11.4037 6.05842 11.1074 5.3125 11.1074Z" fill="#F6F6F6"/>
<path d="M13.4375 6.41992C13.4375 5.74005 13.2359 5.07544 12.8582 4.51015C12.4805 3.94486 11.9436 3.50426 11.3155 3.24409C10.6874 2.98391 9.99619 2.91584 9.32938 3.04847C8.66257 3.18111 8.05007 3.5085 7.56932 3.98924C7.08858 4.46999 6.76119 5.08249 6.62855 5.7493C6.49592 6.41611 6.56399 7.10728 6.82417 7.7354C7.08434 8.36352 7.52494 8.90038 8.09023 9.2781C8.65552 9.65582 9.32013 9.85742 10 9.85742C10.9114 9.85639 11.7851 9.49389 12.4295 8.84946C13.074 8.20503 13.4365 7.33129 13.4375 6.41992ZM10 8.60742C9.56736 8.60742 9.14442 8.47913 8.78469 8.23876C8.42496 7.9984 8.14458 7.65676 7.97902 7.25704C7.81345 6.85733 7.77013 6.4175 7.85453 5.99316C7.93894 5.56883 8.14728 5.17905 8.45321 4.87313C8.75913 4.5672 9.14891 4.35886 9.57324 4.27446C9.99757 4.19005 10.4374 4.23337 10.8371 4.39894C11.2368 4.5645 11.5785 4.84488 11.8188 5.20461C12.0592 5.56435 12.1875 5.98728 12.1875 6.41992C12.1875 7.00008 11.957 7.55648 11.5468 7.96672C11.1366 8.37696 10.5802 8.60742 10 8.60742ZM14.6875 10.4824C14.0076 10.4824 13.343 10.684 12.7777 11.0617C12.2124 11.4395 11.7718 11.9763 11.5117 12.6044C11.2515 13.2326 11.1834 13.9237 11.3161 14.5905C11.4487 15.2574 11.7761 15.8699 12.2568 16.3506C12.7376 16.8313 13.3501 17.1587 14.0169 17.2914C14.6837 17.424 15.3749 17.3559 16.003 17.0958C16.6311 16.8356 17.168 16.395 17.5457 15.8297C17.9234 15.2644 18.125 14.5998 18.125 13.9199C18.124 13.0086 17.7615 12.1348 17.117 11.4904C16.4726 10.846 15.5989 10.4835 14.6875 10.4824ZM14.6875 16.1074C14.2549 16.1074 13.8319 15.9791 13.4722 15.7388C13.1125 15.4984 12.8321 15.1568 12.6665 14.757C12.5009 14.3573 12.4576 13.9175 12.542 13.4932C12.6264 13.0688 12.8348 12.6791 13.1407 12.3731C13.4466 12.0672 13.8364 11.8589 14.2607 11.7745C14.6851 11.6901 15.1249 11.7334 15.5246 11.8989C15.9243 12.0645 16.266 12.3449 16.5063 12.7046C16.7467 13.0643 16.875 13.4873 16.875 13.9199C16.875 14.5001 16.6445 15.0565 16.2343 15.4667C15.8241 15.877 15.2677 16.1074 14.6875 16.1074ZM5.3125 10.4824C4.63263 10.4824 3.96802 10.684 3.40273 11.0617C2.83743 11.4395 2.39684 11.9763 2.13667 12.6044C1.87649 13.2326 1.80842 13.9237 1.94105 14.5905C2.07369 15.2574 2.40108 15.8699 2.88182 16.3506C3.36257 16.8313 3.97507 17.1587 4.64188 17.2914C5.30869 17.424 5.99986 17.3559 6.62798 17.0958C7.2561 16.8356 7.79296 16.395 8.17068 15.8297C8.5484 15.2644 8.75 14.5998 8.75 13.9199C8.74897 13.0086 8.38647 12.1348 7.74204 11.4904C7.09761 10.846 6.22387 10.4835 5.3125 10.4824ZM5.3125 16.1074C4.87985 16.1074 4.45692 15.9791 4.09719 15.7388C3.73746 15.4984 3.45708 15.1568 3.29152 14.757C3.12595 14.3573 3.08263 13.9175 3.16703 13.4932C3.25144 13.0688 3.45978 12.6791 3.76571 12.3731C4.07163 12.0672 4.46141 11.8589 4.88574 11.7745C5.31007 11.6901 5.74991 11.7334 6.14962 11.8989C6.54933 12.0645 6.89098 12.3449 7.13134 12.7046C7.37171 13.0643 7.5 13.4873 7.5 13.9199C7.5 14.5001 7.26953 15.0565 6.8593 15.4667C6.44906 15.877 5.89266 16.1074 5.3125 16.1074Z" fill="#F6F6F6"/>
</svg>
