<svg width="32" height="32" viewBox="0 0 32 32" fill="none" xmlns="http://www.w3.org/2000/svg">
<path d="M21.0574 4.41149L23.3434 5.73523C23.3434 5.73523 22.6582 6.60197 21.4955 5.95591C20.7035 5.48327 21.0574 4.41149 21.0574 4.41149Z" fill="white"/>
<path d="M9.99809 2.99359C8.76403 2.80419 6.92537 2.66205 4.96566 3.91732C4.96566 3.91732 7.36099 3.08847 9.34485 3.51454L9.99809 2.99359Z" fill="white"/>
<path d="M26.1666 7.00923C26.1666 7.00923 25.8341 6.76043 25.4714 6.49178C25.1029 6.21897 24.7036 5.92534 24.5901 5.85137C24.3648 5.7044 24.2333 5.28397 23.3514 4.649C22.4694 4.01372 17.9461 0.928544 11.2083 4.649C11.2083 4.649 11.9391 3.8693 13.2815 3.12963H13.2819C14.4931 2.46168 16.2025 1.82672 18.3215 1.82672C22.7882 1.82672 25.3972 3.49915 26.1666 7.00923Z" fill="white"/>
<path fill-rule="evenodd" clip-rule="evenodd" d="M28.3514 7.12674C29.3397 7.31823 30.5085 7.7224 31.1202 8.49774C31.4713 8.93354 31.5853 9.52712 31.4358 10.0613C31.3282 10.5151 31.0829 10.9555 30.681 11.2203C30.2245 11.5226 29.6422 11.565 29.1118 11.4938C28.6897 11.4385 28.3002 11.327 27.9065 11.198C25.3908 10.3442 22.5691 10.3873 20.0325 11.1334C19.6626 11.2422 19.298 11.3676 18.939 11.5073C18.972 11.9219 18.9678 12.659 18.6823 13.524C18.4296 14.29 18.0082 15.001 17.4291 15.6374C16.7145 16.4224 15.758 17.0939 14.5865 17.6325C14.5382 17.6548 14.4867 17.6656 14.4356 17.6656C14.3376 17.6656 14.241 17.6259 14.1721 17.5512C14.0674 17.4379 14.0507 17.2708 14.1306 17.1397C14.1423 17.1203 15.2021 15.3541 14.9237 13.8549C14.4603 14.2093 14.0047 14.5751 13.5492 14.9408L13.5235 14.9614C13.4793 14.9968 13.4352 15.0322 13.3912 15.0676C13.2311 15.1963 13.0712 15.3249 12.9047 15.4483C13.0272 15.2158 13.165 14.9924 13.313 14.7748C13.749 14.1364 14.2719 13.5564 14.8538 13.0396C14.8712 13.0198 14.8914 13.0021 14.9138 12.9864C15.2056 12.731 15.5116 12.4912 15.829 12.2684C17.6759 10.9405 19.8919 10.1186 22.1715 9.89828C23.7762 9.73946 25.4015 9.84337 26.9728 10.2027C27.2352 10.2639 27.4954 10.332 27.7574 10.4151C27.9495 10.48 28.2967 10.5947 28.4927 10.6507C29.1757 10.8377 30.1449 11.0444 30.572 10.3355C30.6611 10.1895 30.7165 10.0227 30.7566 9.85693C30.9725 8.99158 30.1534 8.4543 29.4281 8.16098C29.0319 8.00008 28.607 7.88192 28.1838 7.80094C28.1487 7.79353 28.0873 7.78373 28.041 7.77634C28.0287 7.77438 28.0174 7.77259 28.0081 7.77106C27.8547 7.74708 27.7389 7.63135 27.7088 7.4906C27.6566 7.24664 27.5859 7.00545 27.5075 6.76774C26.1417 2.77602 22.8886 0.565392 18.5897 0.700928C15.4492 0.804144 12.2298 1.79634 9.90408 3.92183C8.49819 5.199 7.4768 6.80388 6.809 8.55022C6.8051 8.56342 6.80013 8.57628 6.79445 8.58879C6.17564 10.2211 5.865 11.9755 5.83695 13.7013C5.83269 14.0839 5.84547 14.4718 5.88914 14.8513C6.32582 18.2793 8.22767 21.6006 10.8868 23.8502C12.2895 25.0224 13.9481 25.8985 15.7208 26.4003C15.8596 26.4403 15.9551 26.5553 15.9742 26.6871C16.0577 27.1653 16.2114 27.6309 16.4003 28.0793C16.7517 28.9053 17.2566 29.6682 17.8995 30.3027C17.8434 30.1832 17.788 30.0584 17.7344 29.9285C17.1007 28.3903 17.0258 26.8886 17.5179 25.5861C17.9826 24.3558 18.9816 23.4488 20.4876 22.8907C20.8984 22.7384 21.3102 22.6255 21.6997 22.5407C20.8182 22.5313 19.9349 22.6981 19.1258 23.0404C18.2371 23.4085 17.4501 23.9694 16.7635 24.6366C16.669 24.7305 16.5316 24.76 16.4109 24.7239C16.1702 24.6519 15.9355 24.5577 15.7062 24.458C12.2529 22.9094 10.4941 19.6708 10.5879 16.019C10.5893 15.9568 10.5914 15.8925 10.5946 15.8268C10.6361 14.9563 10.9188 14.1141 11.3309 13.3425C11.8572 12.3574 12.302 11.8435 13.5114 11.1377C13.5154 11.1363 13.5195 11.1348 13.5235 11.1334C12.1974 12.5306 11.7396 13.9365 11.594 15.8761C11.3519 19.2145 12.8195 22.2349 15.9281 23.7699C16.09 23.8488 16.2561 23.9239 16.4248 23.9892C17.3205 23.1544 18.4029 22.4802 19.5951 22.1358C21.0283 21.7181 22.6114 21.7396 24.0141 22.2585C24.0219 22.2613 24.0297 22.2641 24.0375 22.2672C24.0388 22.2676 24.0402 22.2681 24.0415 22.2686C24.0434 22.2693 24.0454 22.2701 24.0474 22.2707C24.048 22.271 24.0484 22.2713 24.0489 22.2715C24.0493 22.2718 24.0497 22.272 24.0503 22.2724C24.0556 22.2745 24.0606 22.2773 24.0655 22.2797C24.3258 22.4013 24.3268 22.7742 24.0691 22.8966C24.0638 22.8993 24.0581 22.9021 24.0524 22.9046C24.0489 22.9059 24.046 22.908 24.0421 22.9094C23.6711 23.0519 23.3147 23.2354 22.9746 23.4491C21.9414 24.1014 21.0979 24.9814 20.3247 25.9239C20.0162 26.2718 19.4907 25.861 19.7705 25.4895C20.4656 24.6408 21.2488 23.8106 22.1566 23.1572C20.7053 23.4255 18.8457 24.075 18.1835 25.8269C17.7497 26.9759 17.8175 28.2621 18.3855 29.6504C18.4115 29.7133 18.4377 29.7748 18.464 29.835C18.4494 29.6376 18.4395 29.4391 18.4367 29.2397C18.4267 28.3806 18.5339 27.485 18.9284 26.6999C19.1581 26.2888 19.7613 26.5918 19.5635 27.0106C18.9838 28.2023 19.1023 29.7192 19.3359 30.9909C19.3725 31.1813 19.4165 31.3777 19.4655 31.5632C19.4684 31.5726 19.4701 31.582 19.4719 31.5914L19.4719 31.5914V31.5924C19.5042 31.7679 19.3945 31.9413 19.2152 31.9883C19.1318 32.0102 19.0466 32.0004 18.9738 31.9674C18.9719 31.9666 18.9701 31.9657 18.9682 31.9647C18.9654 31.9633 18.9627 31.9619 18.96 31.9605C18.9557 31.9584 18.9515 31.9566 18.9472 31.9542C18.9433 31.9521 18.9397 31.95 18.9362 31.9479C18.9358 31.9476 18.9355 31.9476 18.9351 31.9473C17.072 30.9151 15.7616 29.0443 15.315 27.0068C14.1246 26.6474 12.9793 26.1307 11.9291 25.4735C11.8609 25.4323 11.745 25.3539 11.6345 25.2792C11.5482 25.2208 11.4653 25.1648 11.4111 25.1305C11.3081 25.0575 11.1994 24.9776 11.0923 24.8989C11.0305 24.8534 10.9692 24.8083 10.9099 24.7652C10.8454 24.718 10.7366 24.6295 10.6332 24.5453C10.5531 24.4801 10.4761 24.4175 10.4256 24.3788L10.115 24.1077C7.55029 21.8331 5.68926 18.4916 5.20643 15.1303C5.07685 14.1159 5.11661 13.0848 5.23129 12.0724C5.3701 10.8272 5.66015 9.59697 6.09896 8.42789C5.7379 6.9005 4.7836 5.94375 3.26056 5.5844C2.0581 5.30047 0.933394 5.50517 0.922033 5.50725C0.767954 5.5361 0.612454 5.46277 0.54003 5.32619C0.467605 5.18996 0.495297 5.02315 0.608194 4.91645C1.70273 3.88012 2.91938 3.0464 4.22515 2.43823C5.32324 1.92666 6.48735 1.57218 7.68484 1.38487C8.64411 1.23508 9.60089 1.19372 10.5289 1.26219C11.152 1.30841 11.7452 1.40676 12.1876 1.535C14.1668 0.564002 16.3669 0.0785039 18.5719 0.00621784C22.8233 -0.127928 26.2432 1.91207 27.8905 5.7818C28.0752 6.2183 28.2346 6.66731 28.3514 7.12674ZM3.40363 4.90325C4.48965 5.15486 5.82985 5.80265 6.51788 7.42874C7.53751 5.23653 9.11735 3.32755 11.2475 2.04309C10.4224 1.91311 9.2093 1.85021 7.79703 2.07123C6.66628 2.24813 5.56714 2.5828 4.53012 3.06586C3.59251 3.50271 2.70247 4.06327 1.87349 4.73782C2.31301 4.73782 2.84696 4.77431 3.40363 4.90325ZM16.881 15.1946C17.394 14.6358 17.7689 14.0137 17.995 13.3458C18.2056 12.7237 18.2474 12.1742 18.2414 11.8007C17.5566 12.111 16.8969 12.4749 16.2707 12.8867C16.0236 13.0507 15.7804 13.221 15.5404 13.3948C15.8723 14.4881 15.5493 15.6947 15.2191 16.5149C15.8755 16.1253 16.4322 15.6832 16.881 15.1946Z" fill="white"/>
</svg>
