<svg width="20" height="21" viewBox="0 0 20 21" fill="none" xmlns="http://www.w3.org/2000/svg">
<path opacity="0.2" d="M16.0625 12.9365L16.693 15.4825L14.375 14.1185L12.057 15.4825L12.6875 12.9365L10.625 11.2333L13.332 11.0247L14.375 8.60754L15.418 11.0247L18.125 11.2333L16.0625 12.9365Z" fill="#F6F6F6"/>
<path d="M2.5 5.48254C2.5 5.31678 2.56585 5.15781 2.68306 5.0406C2.80027 4.92339 2.95924 4.85754 3.125 4.85754H16.875C17.0408 4.85754 17.1997 4.92339 17.3169 5.0406C17.4342 5.15781 17.5 5.31678 17.5 5.48254C17.5 5.6483 17.4342 5.80728 17.3169 5.92449C17.1997 6.0417 17.0408 6.10754 16.875 6.10754H3.125C2.95924 6.10754 2.80027 6.0417 2.68306 5.92449C2.56585 5.80728 2.5 5.6483 2.5 5.48254ZM3.125 11.1075H7.5C7.66576 11.1075 7.82473 11.0417 7.94194 10.9245C8.05915 10.8073 8.125 10.6483 8.125 10.4825C8.125 10.3168 8.05915 10.1578 7.94194 10.0406C7.82473 9.92339 7.66576 9.85754 7.5 9.85754H3.125C2.95924 9.85754 2.80027 9.92339 2.68306 10.0406C2.56585 10.1578 2.5 10.3168 2.5 10.4825C2.5 10.6483 2.56585 10.8073 2.68306 10.9245C2.80027 11.0417 2.95924 11.1075 3.125 11.1075ZM8.75 14.8575H3.125C2.95924 14.8575 2.80027 14.9234 2.68306 15.0406C2.56585 15.1578 2.5 15.3168 2.5 15.4825C2.5 15.6483 2.56585 15.8073 2.68306 15.9245C2.80027 16.0417 2.95924 16.1075 3.125 16.1075H8.75C8.91576 16.1075 9.07473 16.0417 9.19194 15.9245C9.30915 15.8073 9.375 15.6483 9.375 15.4825C9.375 15.3168 9.30915 15.1578 9.19194 15.0406C9.07473 14.9234 8.91576 14.8575 8.75 14.8575ZM18.5227 11.7154L16.7633 13.1677L17.2992 15.3325C17.3286 15.4519 17.3221 15.5773 17.2806 15.693C17.2391 15.8087 17.1644 15.9096 17.0658 15.983C16.9673 16.0565 16.8492 16.0993 16.7265 16.106C16.6038 16.1127 16.4818 16.0831 16.3758 16.0208L14.375 14.8435L12.3742 16.0208C12.2682 16.0831 12.1462 16.1127 12.0235 16.106C11.9008 16.0993 11.7827 16.0565 11.6842 15.983C11.5856 15.9096 11.5109 15.8087 11.4694 15.693C11.4279 15.5773 11.4214 15.4519 11.4508 15.3325L11.9859 13.1677L10.2273 11.7154C10.1314 11.636 10.0614 11.5299 10.0262 11.4105C9.991 11.2912 9.99223 11.164 10.0297 11.0453C10.0673 10.9267 10.1393 10.8219 10.2368 10.7445C10.3342 10.667 10.4525 10.6204 10.5766 10.6107L12.9078 10.4302L13.8008 8.35989C13.849 8.24761 13.9291 8.15194 14.0312 8.08471C14.1333 8.01749 14.2528 7.98166 14.375 7.98166C14.4972 7.98166 14.6167 8.01749 14.7188 8.08471C14.8209 8.15194 14.901 8.24761 14.9492 8.35989L15.8422 10.4302L18.1734 10.6107C18.2975 10.6204 18.4158 10.667 18.5132 10.7445C18.6107 10.8219 18.6827 10.9267 18.7203 11.0453C18.7578 11.164 18.759 11.2912 18.7238 11.4105C18.6886 11.5299 18.6186 11.636 18.5227 11.7154ZM16.5328 11.7372L15.3695 11.6474C15.2561 11.6387 15.1471 11.5991 15.0545 11.5331C14.9618 11.467 14.8889 11.3768 14.8438 11.2724L14.375 10.1849L13.9062 11.2724C13.8611 11.3768 13.7882 11.467 13.6955 11.5331C13.6029 11.5991 13.4939 11.6387 13.3805 11.6474L12.2172 11.7372L13.0852 12.4544C13.1761 12.5293 13.244 12.6284 13.281 12.7402C13.3181 12.8521 13.3227 12.9721 13.2945 13.0865L13.0211 14.1896L14.0578 13.5794C14.1539 13.5228 14.2634 13.493 14.375 13.493C14.4866 13.493 14.5961 13.5228 14.6922 13.5794L15.7289 14.1896L15.4555 13.0865C15.4273 12.9721 15.4319 12.8521 15.469 12.7402C15.506 12.6284 15.5739 12.5293 15.6648 12.4544L16.5328 11.7372Z" fill="#F6F6F6"/>
</svg>
