<svg width="14" height="14" viewBox="0 0 14 14" fill="none" xmlns="http://www.w3.org/2000/svg">
<path fill-rule="evenodd" clip-rule="evenodd" d="M5 2C5.22324 2 5.41943 2.14799 5.48076 2.36264L6.02289 4.2601C6.26018 5.09062 6.90938 5.73982 7.7399 5.97711L9.63736 6.51924C9.85201 6.58057 10 6.77676 10 7C10 7.22324 9.85201 7.41943 9.63736 7.48076L7.7399 8.02289C6.90938 8.26019 6.26018 8.90938 6.02289 9.7399L5.48076 11.6374C5.41943 11.852 5.22324 12 5 12C4.77676 12 4.58057 11.852 4.51924 11.6374L3.97711 9.7399C3.73982 8.90938 3.09062 8.26018 2.2601 8.02289L0.362639 7.48076C0.147989 7.41943 0 7.22324 0 7C0 6.77676 0.147989 6.58057 0.362639 6.51924L2.2601 5.97711C3.09062 5.73982 3.73982 5.09062 3.97711 4.2601L4.51924 2.36264C4.58057 2.14799 4.77676 2 5 2Z" fill="#00FFFF"/>
<path fill-rule="evenodd" clip-rule="evenodd" d="M11 0C11.2294 0 11.4294 0.156149 11.4851 0.378732L11.6576 1.06904C11.8144 1.69604 12.304 2.1856 12.931 2.34235L13.6213 2.51493C13.8439 2.57057 14 2.77057 14 3C14 3.22943 13.8439 3.42943 13.6213 3.48507L12.931 3.65765C12.304 3.8144 11.8144 4.30396 11.6576 4.93096L11.4851 5.62127C11.4294 5.84385 11.2294 6 11 6C10.7706 6 10.5706 5.84385 10.5149 5.62127L10.3424 4.93096C10.1856 4.30396 9.69604 3.8144 9.06904 3.65765L8.37873 3.48507C8.15615 3.42943 8 3.22943 8 3C8 2.77057 8.15615 2.57057 8.37873 2.51493L9.06904 2.34235C9.69604 2.1856 10.1856 1.69604 10.3424 1.06904L10.5149 0.378732C10.5706 0.156149 10.7706 0 11 0Z" fill="#00FFFF"/>
<path fill-rule="evenodd" clip-rule="evenodd" d="M10 9C10.2152 9 10.4063 9.13772 10.4743 9.34189L10.7372 10.1304C10.8367 10.429 11.071 10.6633 11.3696 10.7628L12.1581 11.0257C12.3623 11.0937 12.5 11.2848 12.5 11.5C12.5 11.7152 12.3623 11.9063 12.1581 11.9743L11.3696 12.2372C11.071 12.3367 10.8367 12.571 10.7372 12.8696L10.4743 13.6581C10.4063 13.8623 10.2152 14 10 14C9.78478 14 9.59372 13.8623 9.52566 13.6581L9.26283 12.8696C9.16329 12.571 8.92898 12.3367 8.63037 12.2372L7.84189 11.9743C7.63771 11.9063 7.5 11.7152 7.5 11.5C7.5 11.2848 7.63771 11.0937 7.84189 11.0257L8.63037 10.7628C8.92898 10.6633 9.16329 10.429 9.26283 10.1304L9.52566 9.34189C9.59372 9.13772 9.78478 9 10 9Z" fill="#00FFFF"/>
</svg>
