<svg width="616" height="97" viewBox="0 0 616 97" fill="none" xmlns="http://www.w3.org/2000/svg">
<path d="M0 0H35.5313L66.8261 96.6177H31.2948L0 0Z" fill="white"/>
<path d="M182.371 0H146.84L131.192 48.3089H166.724L182.371 0Z" fill="white"/>
<path d="M80.1503 48.2433L68.7735 13.1192L57.3967 48.2433H80.1503Z" fill="white"/>
<path d="M72.9758 0H108.507L139.802 96.6177H104.271L72.9758 0Z" fill="white"/>
<path d="M232.145 77.6761L219.053 17.6689H235.055L242.965 65.311H243.965L253.875 17.6689H272.332L282.424 65.311H283.424L291.334 17.6689H306.427L293.243 77.6761H272.877L263.331 30.125H262.422L252.966 77.6761H232.145Z" fill="white"/>
<path d="M325.207 78.9489C322.54 78.9489 320.176 78.4337 318.115 77.4033C316.054 76.3123 314.448 74.7666 313.296 72.7664C312.145 70.7055 311.569 68.2204 311.569 65.311C311.569 62.5834 312.084 60.3407 313.114 58.5829C314.205 56.7645 315.751 55.3401 317.751 54.3097C319.812 53.2186 322.267 52.3397 325.116 51.673C327.965 50.9456 331.207 50.3092 334.844 49.7637C336.602 49.4606 338.057 49.1878 339.208 48.9454C340.421 48.6423 341.33 48.1877 341.936 47.5816C342.542 46.9755 342.845 46.0966 342.845 44.9449C342.845 43.4296 342.3 42.1264 341.209 41.0354C340.118 39.9443 338.36 39.3988 335.935 39.3988C334.238 39.3988 332.692 39.7019 331.298 40.308C329.965 40.9141 328.813 41.793 327.843 42.9447C326.874 44.0963 326.146 45.4904 325.661 47.127L312.751 43.3083C313.539 40.7626 314.63 38.5502 316.024 36.6712C317.479 34.7922 319.206 33.2465 321.206 32.0343C323.206 30.7614 325.479 29.8522 328.025 29.3067C330.632 28.7006 333.39 28.3975 336.299 28.3975C341.148 28.3975 345.088 29.1855 348.119 30.7614C351.21 32.2767 353.483 34.671 354.938 37.9441C356.453 41.1566 357.211 45.3086 357.211 50.4001V57.7646C357.211 59.9467 357.241 62.1591 357.301 64.4018C357.423 66.5838 357.544 68.7962 357.665 71.0389C357.847 73.221 358.059 75.4334 358.302 77.6761H345.391C345.148 76.282 344.906 74.6151 344.664 72.6755C344.421 70.6752 344.239 68.6447 344.118 66.5838H342.391C341.542 68.8871 340.299 71.0086 338.663 72.9482C337.087 74.8272 335.147 76.3123 332.844 77.4033C330.601 78.4337 328.056 78.9489 325.207 78.9489ZM331.844 68.5841C332.935 68.5841 334.026 68.4022 335.117 68.0386C336.269 67.6143 337.36 67.0687 338.39 66.402C339.421 65.6746 340.36 64.7957 341.209 63.7653C342.057 62.7349 342.694 61.6136 343.118 60.4013L342.936 53.2186L344.936 53.6732C343.785 54.4006 342.512 54.9764 341.118 55.4007C339.724 55.825 338.299 56.1584 336.844 56.4008C335.45 56.6433 334.056 56.916 332.662 57.2191C331.329 57.4615 330.116 57.7949 329.025 58.2192C327.995 58.6435 327.177 59.2193 326.571 59.9467C325.964 60.674 325.661 61.6742 325.661 62.947C325.661 64.6442 326.237 66.008 327.389 67.0384C328.54 68.0689 330.025 68.5841 331.844 68.5841Z" fill="white"/>
<path d="M379.206 77.6761L363.477 29.7613H379.751L388.843 66.2202H390.389L399.663 29.7613H415.21L399.39 77.6761H379.206Z" fill="white"/>
<path d="M444.746 78.9489C440.745 78.9489 437.169 78.4337 434.017 77.4033C430.865 76.3123 428.168 74.7363 425.925 72.6755C423.743 70.6146 422.076 68.0689 420.925 65.0382C419.773 62.0075 419.197 58.5223 419.197 54.5824C419.197 50.7638 419.743 47.2482 420.834 44.0357C421.986 40.8232 423.592 38.0653 425.653 35.762C427.774 33.3981 430.35 31.5797 433.381 30.3068C436.472 29.0339 439.927 28.3975 443.746 28.3975C447.625 28.3975 451.019 29.0339 453.929 30.3068C456.899 31.5191 459.323 33.3375 461.202 35.762C463.142 38.1865 464.566 41.1566 465.476 44.6721C466.385 48.1271 466.688 52.0973 466.385 56.5826L428.835 56.8554V49.2181L458.02 48.9454L452.838 52.4913C453.262 49.4606 453.08 47.0058 452.292 45.1267C451.504 43.1871 450.353 41.793 448.837 40.9444C447.322 40.0352 445.685 39.5806 443.928 39.5806C441.806 39.5806 439.927 40.1565 438.291 41.3081C436.715 42.4598 435.472 44.1266 434.563 46.3087C433.654 48.4908 433.199 51.1578 433.199 54.3097C433.199 59.2799 434.26 62.8864 436.381 65.1291C438.563 67.3718 441.321 68.4932 444.655 68.4932C446.291 68.4932 447.655 68.281 448.746 67.8567C449.837 67.3718 450.716 66.796 451.383 66.1292C452.11 65.4019 452.656 64.6139 453.02 63.7653C453.444 62.9167 453.777 62.0985 454.02 61.3105L466.748 64.0381C466.264 66.2808 465.476 68.3113 464.385 70.1297C463.354 71.9481 461.93 73.5241 460.111 74.8575C458.354 76.191 456.202 77.1912 453.656 77.8579C451.171 78.5853 448.201 78.9489 444.746 78.9489Z" fill="white"/>
<path d="M482.658 58.8556V52.764H497.842C504.085 52.764 508.752 51.6124 511.843 49.3091C514.995 46.9451 516.571 43.1568 516.571 37.9441C516.571 33.095 515.086 29.4885 512.116 27.1246C509.207 24.7607 504.782 23.5787 498.842 23.5787H482.658V17.6689H498.933C502.873 17.6689 506.358 18.1235 509.389 19.0327C512.48 19.9419 515.056 21.2754 517.117 23.0332C519.238 24.7304 520.845 26.8822 521.936 29.4885C523.027 32.0343 523.572 34.9437 523.572 38.2168C523.572 42.7022 522.542 46.4602 520.481 49.4909C518.481 52.5216 515.511 54.8552 511.571 56.4917C507.631 58.0677 502.812 58.8556 497.114 58.8556H482.658ZM479.84 77.6761V17.6689H486.568V77.6761H479.84Z" fill="white"/>
<path d="M536.86 77.6761V30.8523H543.224L542.224 47.3088H543.679C544.285 43.9145 545.134 40.9141 546.225 38.3078C547.377 35.6408 548.892 33.5496 550.771 32.0343C552.65 30.519 554.923 29.7613 557.59 29.7613C558.257 29.7613 559.014 29.8219 559.863 29.9431C560.711 30.0037 561.651 30.2159 562.681 30.5796L562.227 37.5804C561.378 37.2773 560.499 37.0349 559.59 36.853C558.741 36.6712 557.923 36.5803 557.135 36.5803C554.711 36.5803 552.65 37.4289 550.953 39.126C549.256 40.7626 547.801 42.975 546.589 45.7632C545.437 48.4908 544.437 51.5214 543.588 54.8552V77.6761H536.86Z" fill="white"/>
<path d="M593.746 78.7671C589.321 78.7671 585.411 77.7973 582.017 75.8577C578.683 73.8574 576.077 71.0389 574.198 67.4021C572.38 63.7047 571.47 59.2496 571.47 54.0369C571.47 48.5817 572.44 44.066 574.38 40.4898C576.38 36.9137 579.047 34.2467 582.381 32.4889C585.715 30.6705 589.412 29.7613 593.473 29.7613C597.655 29.7613 601.413 30.7311 604.747 32.6707C608.141 34.5497 610.808 37.3379 612.748 41.0354C614.748 44.6721 615.748 49.1575 615.748 54.4915C615.748 59.8255 614.779 64.3108 612.839 67.9476C610.899 71.5238 608.263 74.2211 604.929 76.0395C601.595 77.8579 597.867 78.7671 593.746 78.7671ZM594.019 72.9482C597.11 72.9482 599.777 72.1906 602.02 70.6752C604.262 69.1599 605.99 67.0384 607.202 64.3108C608.414 61.5226 609.02 58.2798 609.02 54.5824C609.02 50.7638 608.384 47.4604 607.111 44.6721C605.838 41.8233 604.02 39.6412 601.656 38.1259C599.353 36.55 596.564 35.762 593.291 35.762C590.261 35.762 587.624 36.4894 585.381 37.9441C583.138 39.3382 581.381 41.399 580.108 44.1266C578.835 46.7936 578.198 50.0364 578.198 53.8551C578.198 59.7345 579.623 64.4018 582.472 67.8567C585.321 71.2511 589.169 72.9482 594.019 72.9482Z" fill="white"/>
</svg>
