<svg width="14" height="14" viewBox="0 0 14 14" fill="none" xmlns="http://www.w3.org/2000/svg">
<path d="M2.33333 0C1.04467 0 0 1.04467 0 2.33333V4.08333C0 5.372 1.04467 6.41667 2.33333 6.41667H4.08333C5.372 6.41667 6.41667 5.372 6.41667 4.08333V2.33333C6.41667 1.04467 5.372 0 4.08333 0H2.33333Z" fill="#00FFFF"/>
<path d="M9.91667 0C8.628 0 7.58333 1.04467 7.58333 2.33333V4.08333C7.58333 5.372 8.628 6.41667 9.91667 6.41667H11.6667C12.9553 6.41667 14 5.372 14 4.08333V2.33333C14 1.04467 12.9553 0 11.6667 0H9.91667Z" fill="#00FFFF"/>
<path d="M2.33333 7.58333C1.04467 7.58333 0 8.628 0 9.91667V11.6667C0 12.9553 1.04467 14 2.33333 14H4.08333C5.372 14 6.41667 12.9553 6.41667 11.6667V9.91667C6.41667 8.628 5.372 7.58333 4.08333 7.58333H2.33333Z" fill="#00FFFF"/>
<path d="M11.375 8.16667C11.375 7.8445 11.1138 7.58333 10.7917 7.58333C10.4695 7.58333 10.2083 7.8445 10.2083 8.16667V10.2083H8.16667C7.8445 10.2083 7.58333 10.4695 7.58333 10.7917C7.58333 11.1138 7.8445 11.375 8.16667 11.375H10.2083V13.4167C10.2083 13.7388 10.4695 14 10.7917 14C11.1138 14 11.375 13.7388 11.375 13.4167V11.375H13.4167C13.7388 11.375 14 11.1138 14 10.7917C14 10.4695 13.7388 10.2083 13.4167 10.2083H11.375V8.16667Z" fill="#00FFFF"/>
</svg>
