<svg width="24" height="24" viewBox="0 0 24 24" fill="none" xmlns="http://www.w3.org/2000/svg">
<path d="M19.2949 0.411621V4.68746H23.5872L19.2949 0.411621Z" fill="#00FFFF"/>
<path d="M18.5877 6.09375C18.1978 6.09375 17.8818 5.77894 17.8818 5.39062V0H7.76413C6.59646 0 5.64648 0.946266 5.64648 2.10938V9.9698C5.87905 9.9488 6.11439 9.9375 6.35237 9.9375C8.75839 9.9375 10.9122 11.0332 12.3376 12.75H19.9994C20.3893 12.75 20.7053 13.0648 20.7053 13.4531C20.7053 13.8414 20.3893 14.1562 19.9994 14.1562H13.2676C13.7186 15.0328 13.996 15.9877 14.0846 16.9688H19.9994C20.3893 16.9688 20.7053 17.2836 20.7053 17.6719C20.7053 18.0602 20.3893 18.375 19.9994 18.375H14.0846C13.8735 20.6971 12.628 22.7262 10.8116 24H21.8818C23.0494 24 23.9994 23.0537 23.9994 21.8906V6.09375H18.5877ZM19.9994 9.9375H9.64648C9.25665 9.9375 8.9406 9.62269 8.9406 9.23438C8.9406 8.84606 9.25665 8.53125 9.64648 8.53125H19.9994C20.3893 8.53125 20.7053 8.84606 20.7053 9.23438C20.7053 9.62269 20.3893 9.9375 19.9994 9.9375Z" fill="#00FFFF"/>
<path d="M12.21 17.2872C12.21 20.5053 9.59047 23.1174 6.355 23.1174C3.11953 23.1174 0.5 20.5053 0.5 17.2872C0.5 14.0691 3.11953 11.457 6.355 11.457C9.59047 11.457 12.21 14.0691 12.21 17.2872Z" stroke="#00FFFF"/>
<path d="M9.52317 19.7275H8.40946C7.70764 19.7275 7.13665 19.1566 7.13665 18.4548C7.13665 17.753 7.70764 17.182 8.40946 17.182H9.52317C9.54407 17.182 9.56476 17.1779 9.58407 17.1699C9.60338 17.1619 9.62093 17.1502 9.63571 17.1354C9.65048 17.1207 9.6622 17.1031 9.67019 17.0838C9.67819 17.0645 9.68229 17.0438 9.68228 17.0229V16.5456C9.68228 16.212 9.42349 15.9407 9.09652 15.9144L8.18278 14.3185C8.0981 14.1709 7.96137 14.0654 7.79776 14.0216C7.63492 13.978 7.46465 14.0009 7.3189 14.0857L4.18655 15.9092H3.63641C3.28543 15.9092 3 16.1946 3 16.5456V20.3639C3 20.7149 3.28541 21.0003 3.63641 21.0003H9.04587C9.39685 21.0003 9.68228 20.7149 9.68228 20.3639V19.8866C9.68229 19.8657 9.67819 19.845 9.67019 19.8257C9.6622 19.8064 9.65048 19.7889 9.63571 19.7741C9.62093 19.7593 9.60338 19.7476 9.58407 19.7396C9.56476 19.7316 9.54407 19.7275 9.52317 19.7275ZM8.3801 15.3037L8.72677 15.9092H7.34004L8.3801 15.3037ZM4.81898 15.9092L7.47909 14.3607C7.55102 14.3186 7.63507 14.3074 7.71541 14.3289C7.79667 14.3506 7.86442 14.4031 7.90653 14.4766L7.90685 14.4772L5.4471 15.9092H4.81898Z" fill="#00FFFF"/>
<path d="M9.52145 17.5001H8.40773C7.88133 17.5001 7.45312 17.9283 7.45312 18.4547C7.45312 18.9811 7.88133 19.4093 8.40773 19.4093H9.52145C9.78465 19.4093 9.99875 19.1952 9.99875 18.932V17.9774C9.99875 17.7142 9.78465 17.5001 9.52145 17.5001ZM8.40773 18.7729C8.23232 18.7729 8.08954 18.6301 8.08954 18.4547C8.08954 18.2793 8.23232 18.1365 8.40773 18.1365C8.58314 18.1365 8.72593 18.2793 8.72593 18.4547C8.72595 18.6301 8.58316 18.7729 8.40773 18.7729Z" fill="#00FFFF"/>
</svg>
