<svg width="20" height="21" viewBox="0 0 20 21" fill="none" xmlns="http://www.w3.org/2000/svg">
<path opacity="0.2" d="M16.9303 8.27383L15.7115 15.5855C15.6871 15.7314 15.6118 15.8639 15.4989 15.9594C15.3861 16.055 15.243 16.1074 15.0951 16.1074H4.90449C4.75661 16.1074 4.61353 16.055 4.50067 15.9594C4.38781 15.8639 4.31249 15.7314 4.28809 15.5855L3.06934 8.27383H3.07559C3.33976 8.22962 3.58794 8.11764 3.7959 7.94883L6.8748 11.7324L9.3748 5.97852C9.57107 6.06366 9.78274 6.1076 9.99668 6.1076C10.2106 6.1076 10.4223 6.06366 10.6186 5.97852L13.1248 11.7324L16.2021 7.94492C16.4101 8.11373 16.6583 8.22571 16.9225 8.26992L16.9303 8.27383Z" fill="#F6F6F6"/>
<path d="M19.3746 6.73246C19.3749 6.38985 19.2947 6.05196 19.1405 5.74601C18.9863 5.44006 18.7624 5.17461 18.4868 4.97104C18.2112 4.76748 17.8917 4.63149 17.5539 4.57403C17.2162 4.51657 16.8696 4.53926 16.5423 4.64025C16.2149 4.74125 15.9158 4.91773 15.6691 5.15549C15.4224 5.39324 15.235 5.68562 15.122 6.00906C15.009 6.33249 14.9736 6.67796 15.0185 7.0176C15.0635 7.35725 15.1876 7.68159 15.3808 7.96449L13.2879 10.5426L11.4058 6.21684C11.7491 5.92795 11.9952 5.5405 12.1108 5.10702C12.2265 4.67354 12.206 4.21498 12.0523 3.79351C11.8985 3.37204 11.6189 3.00804 11.2513 2.75085C10.8837 2.49366 10.4459 2.35571 9.99725 2.35571C9.54861 2.35571 9.11082 2.49366 8.74322 2.75085C8.37562 3.00804 8.09599 3.37204 7.94223 3.79351C7.78847 4.21498 7.76803 4.67354 7.88366 5.10702C7.99929 5.5405 8.24541 5.92795 8.58866 6.21684L6.71131 10.5403L4.61835 7.96215C4.88721 7.5682 5.01994 7.09718 4.99635 6.62081C4.97275 6.14445 4.79411 5.68885 4.48763 5.3234C4.18115 4.95795 3.76363 4.70268 3.29866 4.59647C2.83369 4.49026 2.34674 4.53892 1.91198 4.73505C1.47723 4.93119 1.11848 5.26403 0.890391 5.68291C0.662298 6.10178 0.577355 6.58372 0.648499 7.05534C0.719643 7.52695 0.942974 7.96239 1.28448 8.29534C1.62599 8.62829 2.06695 8.8405 2.54022 8.89965L3.67147 15.6879C3.7201 15.9798 3.87068 16.2449 4.09642 16.4362C4.32215 16.6274 4.60841 16.7324 4.90428 16.7325H15.0949C15.3908 16.7324 15.677 16.6274 15.9028 16.4362C16.1285 16.2449 16.2791 15.9798 16.3277 15.6879L17.4582 8.90278C17.9872 8.8367 18.4739 8.57969 18.8268 8.18004C19.1797 7.78039 19.3745 7.26562 19.3746 6.73246ZM9.9996 3.60746C10.185 3.60746 10.3663 3.66245 10.5204 3.76546C10.6746 3.86847 10.7948 4.01489 10.8657 4.1862C10.9367 4.3575 10.9553 4.546 10.9191 4.72786C10.8829 4.90972 10.7936 5.07676 10.6625 5.20788C10.5314 5.33899 10.3643 5.42828 10.1825 5.46445C10.0006 5.50062 9.81214 5.48206 9.64083 5.4111C9.46952 5.34014 9.32311 5.21998 9.22009 5.06581C9.11708 4.91164 9.0621 4.73038 9.0621 4.54496C9.0621 4.29632 9.16087 4.05787 9.33668 3.88205C9.5125 3.70623 9.75096 3.60746 9.9996 3.60746ZM1.8746 6.73246C1.8746 6.54704 1.92958 6.36579 2.03259 6.21162C2.13561 6.05745 2.28202 5.93728 2.45333 5.86633C2.62464 5.79537 2.81314 5.7768 2.99499 5.81298C3.17685 5.84915 3.3439 5.93844 3.47501 6.06955C3.60612 6.20066 3.69541 6.36771 3.73158 6.54957C3.76776 6.73142 3.74919 6.91992 3.67823 7.09123C3.60728 7.26253 3.48711 7.40895 3.33294 7.51197C3.17877 7.61498 2.99752 7.66996 2.8121 7.66996C2.56345 7.66996 2.325 7.57119 2.14918 7.39538C1.97337 7.21956 1.8746 6.9811 1.8746 6.73246ZM15.0949 15.4825H4.90428L3.81678 8.96059L6.38944 12.1231C6.44771 12.1959 6.52152 12.2547 6.60546 12.2952C6.68941 12.3358 6.78137 12.3571 6.8746 12.3575C6.90281 12.3576 6.93101 12.3558 6.95897 12.352C7.06545 12.3375 7.16639 12.2958 7.25206 12.231C7.33773 12.1661 7.40522 12.0802 7.44803 11.9817L9.7371 6.71606C9.91141 6.73792 10.0878 6.73792 10.2621 6.71606L12.5512 11.9817C12.594 12.0802 12.6615 12.1661 12.7471 12.231C12.8328 12.2958 12.9337 12.3375 13.0402 12.352C13.0682 12.3558 13.0964 12.3576 13.1246 12.3575C13.2178 12.3571 13.3098 12.3358 13.3937 12.2952C13.4777 12.2547 13.5515 12.1959 13.6098 12.1231L16.1824 8.95746L15.0949 15.4825ZM17.1871 7.66996C17.0017 7.66996 16.8204 7.61498 16.6662 7.51197C16.5121 7.40895 16.3919 7.26253 16.321 7.09123C16.25 6.91992 16.2314 6.73142 16.2676 6.54957C16.3038 6.36771 16.3931 6.20066 16.5242 6.06955C16.6553 5.93844 16.8223 5.84915 17.0042 5.81298C17.1861 5.7768 17.3746 5.79537 17.5459 5.86633C17.7172 5.93728 17.8636 6.05745 17.9666 6.21162C18.0696 6.36579 18.1246 6.54704 18.1246 6.73246C18.1246 6.9811 18.0258 7.21956 17.85 7.39538C17.6742 7.57119 17.4357 7.66996 17.1871 7.66996Z" fill="#F6F6F6"/>
</svg>
