<svg width="20" height="21" viewBox="0 0 20 21" fill="none" xmlns="http://www.w3.org/2000/svg">
<path d="M18.1246 11.1592C17.9918 12.7029 17.4209 14.1766 16.479 15.4069C15.5371 16.6371 14.2634 17.5728 12.8078 18.1038C11.3522 18.6348 9.77524 18.739 8.26242 18.4042C6.74959 18.0694 5.36386 17.3095 4.26825 16.2139C3.17263 15.1183 2.41272 13.7326 2.07792 12.2197C1.74311 10.7069 1.84734 9.12994 2.37834 7.67434C2.90934 6.21874 3.84502 4.94507 5.0753 4.00318C6.30558 3.0613 7.77927 2.49038 9.323 2.35759C9.40508 2.35082 9.48769 2.36028 9.56611 2.38544C9.64453 2.41059 9.71722 2.45094 9.78005 2.50419C9.84287 2.55744 9.8946 2.62254 9.93226 2.69578C9.96992 2.76901 9.9928 2.84895 9.99957 2.93103C10.0063 3.01311 9.99688 3.09571 9.97172 3.17413C9.94657 3.25255 9.90622 3.32525 9.85297 3.38807C9.79972 3.4509 9.73462 3.50262 9.66138 3.54028C9.58814 3.57795 9.50821 3.60082 9.42613 3.60759C8.11956 3.71985 6.87223 4.20296 5.8309 5.00006C4.78958 5.79717 3.99758 6.87511 3.5481 8.10706C3.09862 9.33902 3.01036 10.6737 3.2937 11.9541C3.57703 13.2345 4.22018 14.4074 5.14748 15.3347C6.07477 16.262 7.24762 16.9051 8.52803 17.1885C9.80844 17.4718 11.1431 17.3835 12.3751 16.9341C13.607 16.4846 14.685 15.6926 15.4821 14.6513C16.2792 13.6099 16.7623 12.3626 16.8746 11.056C16.8882 10.8903 16.9672 10.7367 17.0941 10.6292C17.221 10.5216 17.3854 10.4689 17.5511 10.4826C17.7169 10.4963 17.8704 10.5752 17.978 10.7021C18.0855 10.829 18.1382 10.9934 18.1246 11.1592ZM9.37457 6.10759V10.4826C9.37457 10.6484 9.44042 10.8073 9.55763 10.9245C9.67484 11.0417 9.83381 11.1076 9.99957 11.1076H14.3746C14.5403 11.1076 14.6993 11.0417 14.8165 10.9245C14.9337 10.8073 14.9996 10.6484 14.9996 10.4826C14.9996 10.3168 14.9337 10.1579 14.8165 10.0407C14.6993 9.92344 14.5403 9.85759 14.3746 9.85759H10.6246V6.10759C10.6246 5.94183 10.5587 5.78286 10.4415 5.66565C10.3243 5.54844 10.1653 5.48259 9.99957 5.48259C9.83381 5.48259 9.67484 5.54844 9.55763 5.66565C9.44042 5.78286 9.37457 5.94183 9.37457 6.10759ZM12.4996 4.23259C12.685 4.23259 12.8662 4.17761 13.0204 4.07459C13.1746 3.97158 13.2947 3.82516 13.3657 3.65386C13.4367 3.48255 13.4552 3.29405 13.4191 3.1122C13.3829 2.93034 13.2936 2.76329 13.1625 2.63218C13.0314 2.50107 12.8643 2.41178 12.6825 2.37561C12.5006 2.33943 12.3121 2.358 12.1408 2.42896C11.9695 2.49991 11.8231 2.62007 11.7201 2.77424C11.6171 2.92842 11.5621 3.10967 11.5621 3.29509C11.5621 3.54373 11.6608 3.78219 11.8367 3.958C12.0125 4.13382 12.2509 4.23259 12.4996 4.23259ZM15.3121 6.10759C15.4975 6.10759 15.6787 6.05261 15.8329 5.9496C15.9871 5.84658 16.1072 5.70016 16.1782 5.52886C16.2492 5.35755 16.2677 5.16905 16.2316 4.9872C16.1954 4.80534 16.1061 4.63829 15.975 4.50718C15.8439 4.37607 15.6768 4.28678 15.495 4.25061C15.3131 4.21443 15.1246 4.233 14.9533 4.30396C14.782 4.37491 14.6356 4.49507 14.5326 4.64925C14.4296 4.80342 14.3746 4.98467 14.3746 5.17009C14.3746 5.41873 14.4733 5.65719 14.6492 5.833C14.825 6.00882 15.0634 6.10759 15.3121 6.10759ZM17.1871 8.92009C17.3725 8.92009 17.5537 8.86511 17.7079 8.76209C17.8621 8.65908 17.9822 8.51266 18.0532 8.34136C18.1242 8.17005 18.1427 7.98155 18.1066 7.79969C18.0704 7.61784 17.9811 7.45079 17.85 7.31968C17.7189 7.18857 17.5518 7.09928 17.37 7.06311C17.1881 7.02693 16.9996 7.0455 16.8283 7.11646C16.657 7.18741 16.5106 7.30757 16.4076 7.46175C16.3046 7.61592 16.2496 7.79717 16.2496 7.98259C16.2496 8.23123 16.3483 8.46969 16.5242 8.6455C16.7 8.82132 16.9384 8.92009 17.1871 8.92009Z" fill="#F6F6F6"/>
</svg>
