<svg width="20" height="21" viewBox="0 0 20 21" fill="none" xmlns="http://www.w3.org/2000/svg">
<path opacity="0.2" d="M16.25 7.35742H11.875V2.98242L16.25 7.35742Z" fill="#F6F6F6"/>
<path d="M16.6922 6.91523L12.3172 2.54023C12.2591 2.48221 12.1902 2.4362 12.1143 2.40484C12.0384 2.37347 11.9571 2.35736 11.875 2.35742H4.375C4.04348 2.35742 3.72554 2.48912 3.49112 2.72354C3.2567 2.95796 3.125 3.2759 3.125 3.60742V17.3574C3.125 17.6889 3.2567 18.0069 3.49112 18.2413C3.72554 18.4757 4.04348 18.6074 4.375 18.6074H15.625C15.9565 18.6074 16.2745 18.4757 16.5089 18.2413C16.7433 18.0069 16.875 17.6889 16.875 17.3574V7.35742C16.8751 7.27532 16.859 7.19401 16.8276 7.11814C16.7962 7.04227 16.7502 6.97332 16.6922 6.91523ZM12.5 4.49102L14.7414 6.73242H12.5V4.49102ZM15.625 17.3574H4.375V3.60742H11.25V7.35742C11.25 7.52318 11.3158 7.68215 11.4331 7.79936C11.5503 7.91657 11.7092 7.98242 11.875 7.98242H15.625V17.3574ZM13.125 11.1074C13.125 11.2732 13.0592 11.4322 12.9419 11.5494C12.8247 11.6666 12.6658 11.7324 12.5 11.7324H7.5C7.33424 11.7324 7.17527 11.6666 7.05806 11.5494C6.94085 11.4322 6.875 11.2732 6.875 11.1074C6.875 10.9417 6.94085 10.7827 7.05806 10.6655C7.17527 10.5483 7.33424 10.4824 7.5 10.4824H12.5C12.6658 10.4824 12.8247 10.5483 12.9419 10.6655C13.0592 10.7827 13.125 10.9417 13.125 11.1074ZM13.125 13.6074C13.125 13.7732 13.0592 13.9322 12.9419 14.0494C12.8247 14.1666 12.6658 14.2324 12.5 14.2324H7.5C7.33424 14.2324 7.17527 14.1666 7.05806 14.0494C6.94085 13.9322 6.875 13.7732 6.875 13.6074C6.875 13.4417 6.94085 13.2827 7.05806 13.1655C7.17527 13.0483 7.33424 12.9824 7.5 12.9824H12.5C12.6658 12.9824 12.8247 13.0483 12.9419 13.1655C13.0592 13.2827 13.125 13.4417 13.125 13.6074Z" fill="#F6F6F6"/>
</svg>
