<svg width="14" height="13" viewBox="0 0 14 13" fill="none" xmlns="http://www.w3.org/2000/svg">
<path fill-rule="evenodd" clip-rule="evenodd" d="M4.5 2.45C4.5 1.0969 5.61929 0 7 0C8.38071 0 9.5 1.0969 9.5 2.45C9.5 3.8031 8.38071 4.9 7 4.9C5.61929 4.9 4.5 3.8031 4.5 2.45Z" fill="#00FFFF"/>
<path fill-rule="evenodd" clip-rule="evenodd" d="M9.5 4.41C9.5 3.32752 10.3954 2.45 11.5 2.45C12.6046 2.45 13.5 3.32752 13.5 4.41C13.5 5.49248 12.6046 6.37 11.5 6.37C10.3954 6.37 9.5 5.49248 9.5 4.41Z" fill="#00FFFF"/>
<path fill-rule="evenodd" clip-rule="evenodd" d="M0.5 4.41C0.5 3.32752 1.39543 2.45 2.5 2.45C3.60457 2.45 4.5 3.32752 4.5 4.41C4.5 5.49248 3.60457 6.37 2.5 6.37C1.39543 6.37 0.5 5.49248 0.5 4.41Z" fill="#00FFFF"/>
<path fill-rule="evenodd" clip-rule="evenodd" d="M3.20657 7.91678C4.00522 6.69302 5.40557 5.88 7 5.88C8.59463 5.88 9.99513 6.69321 10.7937 7.91723C11.3458 8.76344 11.5847 9.78379 11.4726 10.7786C11.4551 10.9341 11.3629 11.0721 11.2245 11.1499C9.97961 11.8499 8.53672 12.25 7 12.25C5.46328 12.25 4.02039 11.8499 2.7755 11.1499C2.63706 11.0721 2.54486 10.9341 2.52736 10.7786C2.41529 9.78361 2.65427 8.76307 3.20657 7.91678Z" fill="#00FFFF"/>
<path d="M2.38819 7.35241C2.38016 7.36449 2.37218 7.37661 2.36425 7.38877C1.72061 8.37502 1.42605 9.54956 1.51648 10.7075C1.11111 10.6471 0.717798 10.5501 0.340285 10.4198L0.263647 10.3933C0.123839 10.3451 0.0261516 10.2207 0.014394 10.0759L0.00794876 9.99649C0.0026781 9.93158 0 9.86604 0 9.8C0 8.48362 1.05936 7.40972 2.38819 7.35241Z" fill="#00FFFF"/>
<path d="M12.4838 10.7074C12.5742 9.54977 12.2797 8.37545 11.6363 7.38932C11.6283 7.37698 11.6202 7.36468 11.6121 7.35242C12.9408 7.40985 14 8.4837 14 9.8C14 9.86605 13.9973 9.93158 13.9921 9.99649L13.9856 10.0759C13.9738 10.2207 13.8762 10.3451 13.7364 10.3933L13.6597 10.4198C13.2823 10.5501 12.889 10.6471 12.4838 10.7074Z" fill="#00FFFF"/>
</svg>
