<svg width="14" height="14" viewBox="0 0 14 14" fill="none" xmlns="http://www.w3.org/2000/svg">
<path fill-rule="evenodd" clip-rule="evenodd" d="M6.57457 0C6.14684 0 5.78179 0.309236 5.71147 0.731151L5.59559 1.42644C5.54061 1.75637 5.29727 2.02096 4.98836 2.14921C4.67933 2.27751 4.32448 2.26036 4.0522 2.06588L3.47851 1.6561C3.13045 1.40748 2.65366 1.44694 2.35121 1.7494L1.74956 2.35105C1.44711 2.6535 1.40765 3.13029 1.65626 3.47835L2.06591 4.05186C2.26045 4.32421 2.27759 4.67915 2.14925 4.98825C2.02097 5.29722 1.75632 5.54061 1.42633 5.59561L0.731151 5.71147C0.309236 5.78179 0 6.14684 0 6.57457V7.42543C0 7.85316 0.309236 8.21821 0.731151 8.28853L1.42646 8.40441C1.75637 8.4594 2.02095 8.70273 2.1492 9.01163C2.27749 9.32065 2.26035 9.67548 2.06587 9.94775L1.65596 10.5216C1.40734 10.8697 1.4468 11.3465 1.74925 11.6489L2.3509 12.2506C2.65336 12.553 3.13014 12.5925 3.47821 12.3439L4.05191 11.9341C4.32425 11.7396 4.67917 11.7224 4.98827 11.8508C5.29723 11.979 5.54061 12.2437 5.59561 12.5737L5.71147 13.2689C5.78179 13.6908 6.14684 14 6.57457 14H7.42543C7.85316 14 8.21821 13.6908 8.28853 13.2689L8.40441 12.5736C8.45939 12.2436 8.70274 11.979 9.01165 11.8508C9.32069 11.7225 9.67555 11.7396 9.94784 11.9341L10.5215 12.3439C10.8696 12.5925 11.3464 12.5531 11.6488 12.2506L12.2505 11.649C12.5529 11.3465 12.5924 10.8697 12.3438 10.5217L11.9341 9.94809C11.7396 9.67575 11.7224 9.32083 11.8508 9.01173C11.979 8.70277 12.2437 8.45939 12.5737 8.40439L13.2689 8.28853C13.6908 8.21821 14 7.85316 14 7.42543V6.57457C14 6.14684 13.6908 5.78179 13.2689 5.71147L12.5735 5.59559C12.2436 5.5406 11.979 5.29728 11.8508 4.98838C11.7225 4.67937 11.7397 4.32454 11.9341 4.05227L12.344 3.4784C12.5927 3.13034 12.5532 2.65355 12.2507 2.3511L11.6491 1.74945C11.3466 1.44699 10.8699 1.40753 10.5218 1.65615L9.94813 2.06591C9.67578 2.26044 9.32084 2.27758 9.01174 2.14925C8.70278 2.02097 8.45939 1.75633 8.40439 1.42634L8.28853 0.731151C8.21821 0.309236 7.85316 0 7.42543 0H6.57457ZM7.00057 9.33337C8.28923 9.33337 9.3339 8.2887 9.3339 7.00004C9.3339 5.71137 8.28923 4.6667 7.00057 4.6667C5.71191 4.6667 4.66724 5.71137 4.66724 7.00004C4.66724 8.2887 5.71191 9.33337 7.00057 9.33337Z" fill="#00FFFF"/>
</svg>
