<svg width="16" height="16" viewBox="0 0 16 16" fill="none" xmlns="http://www.w3.org/2000/svg">
<path d="M6.71147 1.73115C6.78179 1.30924 7.14684 1 7.57457 1H8.42543C8.85316 1 9.21821 1.30924 9.28852 1.73115L9.40439 2.42634C9.45939 2.75633 9.70278 3.02097 10.0117 3.14925C10.3208 3.27758 10.6758 3.26044 10.9481 3.06591L11.5218 2.65615C11.8699 2.40753 12.3466 2.44699 12.6491 2.74945L13.2507 3.3511C13.5532 3.65355 13.5927 4.13034 13.344 4.4784L12.9341 5.05227C12.7397 5.32454 12.7225 5.67937 12.8508 5.98838C12.979 6.29728 13.2436 6.5406 13.5735 6.59559L14.2688 6.71147C14.6908 6.78179 15 7.14684 15 7.57457V8.42543C15 8.85316 14.6908 9.21821 14.2688 9.28852L13.5737 9.40439C13.2437 9.45939 12.979 9.70277 12.8508 10.0117C12.7224 10.3208 12.7396 10.6758 12.9341 10.9481L13.3438 11.5217C13.5924 11.8697 13.5529 12.3465 13.2505 12.649L12.6488 13.2506C12.3464 13.5531 11.8696 13.5925 11.5215 13.3439L10.9478 12.9341C10.6756 12.7396 10.3207 12.7225 10.0117 12.8508C9.70274 12.979 9.45939 13.2436 9.40441 13.5736L9.28852 14.2688C9.21821 14.6908 8.85316 15 8.42543 15H7.57457C7.14684 15 6.78179 14.6908 6.71147 14.2688L6.59561 13.5737C6.54061 13.2437 6.29723 12.979 5.98827 12.8508C5.67917 12.7224 5.32425 12.7396 5.05191 12.9341L4.47821 13.3439C4.13014 13.5925 3.65336 13.553 3.3509 13.2506L2.74925 12.6489C2.4468 12.3465 2.40734 11.8697 2.65596 11.5216L3.06587 10.9478C3.26035 10.6755 3.27749 10.3206 3.1492 10.0116C3.02095 9.70273 2.75637 9.4594 2.42646 9.40441L1.73115 9.28852C1.30924 9.21821 1 8.85316 1 8.42543V7.57457C1 7.14684 1.30924 6.78179 1.73115 6.71147L2.42633 6.59561C2.75632 6.54061 3.02097 6.29722 3.14925 5.98825C3.27759 5.67915 3.26045 5.32421 3.06591 5.05186L2.65626 4.47835C2.40765 4.13029 2.44711 3.6535 2.74956 3.35105L3.35121 2.7494C3.65366 2.44694 4.13045 2.40748 4.47851 2.6561L5.0522 3.06588C5.32448 3.26036 5.67933 3.27751 5.98836 3.14921C6.29727 3.02096 6.54061 2.75637 6.59559 2.42644L6.71147 1.73115Z" stroke="white" stroke-linecap="round" stroke-linejoin="round"/>
<path d="M10.3339 8.00002C10.3339 9.28868 9.28921 10.3334 8.00054 10.3334C6.71188 10.3334 5.66721 9.28868 5.66721 8.00002C5.66721 6.71135 6.71188 5.66668 8.00054 5.66668C9.28921 5.66668 10.3339 6.71135 10.3339 8.00002Z" stroke="white" stroke-linecap="round" stroke-linejoin="round"/>
</svg>
