<svg width="13" height="14" viewBox="0 0 13 14" fill="none" xmlns="http://www.w3.org/2000/svg">
<path fill-rule="evenodd" clip-rule="evenodd" d="M6.78061 0.213664C6.69774 0.098001 6.57323 0.022396 6.4357 0.00422983C6.29818 -0.0139364 6.15947 0.0268991 6.05146 0.117349C4.77869 1.18322 3.89101 2.72954 3.64316 4.49224C3.19633 4.15511 2.80389 3.74437 2.48239 3.27709C2.39395 3.14855 2.25509 3.06768 2.10356 3.05648C1.95203 3.04528 1.80359 3.10491 1.69858 3.21915C0.646847 4.36336 0 5.91625 0 7.62526C0 11.1459 2.74226 14 6.125 14C9.50774 14 12.25 11.1459 12.25 7.62526C12.25 5.03224 10.7625 2.80195 8.62929 1.80612C7.87442 1.42258 7.25109 0.8703 6.78061 0.213664ZM8.67708 8.688C8.67708 10.1549 7.53448 11.3441 6.125 11.3441C4.71552 11.3441 3.57292 10.1549 3.57292 8.688C3.57292 8.39806 3.61755 8.11898 3.70006 7.85778C4.12777 8.18686 4.6194 8.4311 5.15201 8.5666C5.29894 7.57443 5.77558 6.69547 6.4618 6.05478C7.71209 6.22634 8.67708 7.33988 8.67708 8.688Z" fill="#00FFFF"/>
</svg>
