<svg width="20" height="21" viewBox="0 0 20 21" fill="none" xmlns="http://www.w3.org/2000/svg">
<path opacity="0.2" d="M16.25 7.35742H11.875V2.98242L16.25 7.35742Z" fill="#F6F6F6"/>
<path d="M16.6922 6.91523L12.3172 2.54023C12.2591 2.48221 12.1902 2.4362 12.1143 2.40484C12.0384 2.37347 11.9571 2.35736 11.875 2.35742H4.375C4.04348 2.35742 3.72554 2.48912 3.49112 2.72354C3.2567 2.95796 3.125 3.2759 3.125 3.60742V17.3574C3.125 17.6889 3.2567 18.0069 3.49112 18.2413C3.72554 18.4757 4.04348 18.6074 4.375 18.6074H15.625C15.9565 18.6074 16.2745 18.4757 16.5089 18.2413C16.7433 18.0069 16.875 17.6889 16.875 17.3574V7.35742C16.8751 7.27532 16.859 7.19401 16.8276 7.11814C16.7962 7.04227 16.7502 6.97332 16.6922 6.91523ZM12.5 4.49102L14.7414 6.73242H12.5V4.49102ZM15.625 17.3574H4.375V3.60742H11.25V7.35742C11.25 7.52318 11.3158 7.68215 11.4331 7.79936C11.5503 7.91657 11.7092 7.98242 11.875 7.98242H15.625V17.3574ZM12.0672 13.541C12.436 12.9549 12.576 12.2534 12.4604 11.5706C12.3447 10.8878 11.9816 10.2716 11.4403 9.83959C10.899 9.40762 10.2175 9.19022 9.52609 9.22893C8.83464 9.26764 8.1817 9.55975 7.69201 10.0494C7.20232 10.5391 6.91022 11.1921 6.87151 11.8835C6.8328 12.575 7.0502 13.2564 7.48217 13.7977C7.91414 14.339 8.5304 14.7021 9.2132 14.8178C9.896 14.9334 10.5975 14.7935 11.1836 14.4246L12.0578 15.2996C12.1159 15.3577 12.1848 15.4037 12.2607 15.4352C12.3366 15.4666 12.4179 15.4828 12.5 15.4828C12.5821 15.4828 12.6634 15.4666 12.7393 15.4352C12.8152 15.4037 12.8841 15.3577 12.9422 15.2996C13.0003 15.2415 13.0463 15.1726 13.0777 15.0967C13.1092 15.0209 13.1253 14.9395 13.1253 14.8574C13.1253 14.7753 13.1092 14.694 13.0777 14.6181C13.0463 14.5422 13.0003 14.4733 12.9422 14.4152L12.0672 13.541ZM8.125 12.0449C8.125 11.7359 8.21664 11.4338 8.38833 11.1768C8.56002 10.9199 8.80405 10.7196 9.08956 10.6014C9.37507 10.4831 9.68923 10.4522 9.99233 10.5124C10.2954 10.5727 10.5738 10.7215 10.7924 10.9401C11.0109 11.1586 11.1597 11.437 11.22 11.7401C11.2803 12.0432 11.2493 12.3574 11.1311 12.6429C11.0128 12.9284 10.8125 13.1724 10.5556 13.3441C10.2986 13.5158 9.99653 13.6074 9.6875 13.6074C9.2731 13.6074 8.87567 13.4428 8.58265 13.1498C8.28962 12.8568 8.125 12.4593 8.125 12.0449Z" fill="#F6F6F6"/>
</svg>
