<svg width="24" height="24" viewBox="0 0 24 24" fill="none" xmlns="http://www.w3.org/2000/svg">
<path d="M21.5099 21.392L19.5599 19.436C20.0189 18.4767 20.1239 17.3859 19.8564 16.3566C19.5888 15.3272 18.9659 14.4257 18.0978 13.8113C17.2297 13.1969 16.1723 12.9092 15.1125 12.9992C14.0528 13.0892 13.059 13.5509 12.3069 14.3029C11.5548 15.0548 11.0928 16.0485 11.0026 17.1082C10.9124 18.1679 11.1998 19.2254 11.814 20.0936C12.4281 20.9619 13.3296 21.585 14.3588 21.8528C15.3881 22.1206 16.4789 22.0158 17.4384 21.557L19.3939 23.507C19.5328 23.6461 19.6978 23.7564 19.8795 23.8317C20.0611 23.907 20.2557 23.9458 20.4523 23.9459C20.6489 23.946 20.8436 23.9073 21.0253 23.8321C21.207 23.757 21.372 23.6468 21.5111 23.5078C21.6502 23.3688 21.7605 23.2038 21.8358 23.0222C21.9111 22.8406 21.9499 22.6459 21.95 22.4493C21.9501 22.2527 21.9114 22.058 21.8362 21.8763C21.7611 21.6947 21.6508 21.5296 21.5119 21.3905L21.5099 21.392ZM13.0259 19.975C12.5364 19.4855 12.2031 18.8619 12.0681 18.183C11.9331 17.504 12.0024 16.8003 12.2673 16.1608C12.5322 15.5213 12.9808 14.9747 13.5564 14.5901C14.132 14.2055 14.8086 14.0003 15.5009 14.0003C16.1931 14.0003 16.8698 14.2055 17.4453 14.5901C18.0209 14.9747 18.4695 15.5213 18.7344 16.1608C18.9993 16.8003 19.0687 17.504 18.9336 18.183C18.7986 18.8619 18.4653 19.4855 17.9759 19.975C17.319 20.6306 16.4289 20.9988 15.5009 20.9988C14.5728 20.9988 13.6827 20.6306 13.0259 19.975ZM20.8009 22.8C20.7073 22.8925 20.581 22.9444 20.4494 22.9444C20.3178 22.9444 20.1915 22.8925 20.0979 22.8L18.3074 21.0135C18.57 20.8067 18.8073 20.5696 19.0144 20.307L20.8009 22.1C20.8472 22.1461 20.884 22.2008 20.9091 22.2612C20.9342 22.3215 20.9471 22.3862 20.9471 22.4515C20.9471 22.5169 20.9342 22.5816 20.9091 22.6419C20.884 22.7022 20.8472 22.757 20.8009 22.803V22.8Z" fill="#00FFFF"/>
<path d="M12.5 22H6C5.60218 22 5.22064 21.842 4.93934 21.5607C4.65804 21.2794 4.5 20.8978 4.5 20.5V3.50001C4.5 3.10219 4.65804 2.72066 4.93934 2.43935C5.22064 2.15805 5.60218 2.00001 6 2.00001H14.69C14.7942 2.00028 14.8981 2.01151 15 2.03351V5.00001C15 5.39784 15.158 5.77937 15.4393 6.06067C15.7206 6.34198 16.1022 6.50001 16.5 6.50001H19.4615C19.4862 6.60678 19.4991 6.71593 19.5 6.82551V13.5C19.5 13.6326 19.5527 13.7598 19.6464 13.8536C19.7402 13.9473 19.8674 14 20 14C20.1326 14 20.2598 13.9473 20.3536 13.8536C20.4473 13.7598 20.5 13.6326 20.5 13.5V6.82551C20.5007 6.49812 20.4367 6.17381 20.3118 5.87119C20.1869 5.56857 20.0034 5.29359 19.772 5.06201L16.462 1.73651C16.2303 1.50231 15.9543 1.31657 15.65 1.19012C15.3458 1.06367 15.0195 0.999048 14.69 1.00001H6C5.3372 1.0008 4.70178 1.26445 4.23311 1.73312C3.76444 2.20179 3.50079 2.83721 3.5 3.50001V20.5C3.50079 21.1628 3.76444 21.7982 4.23311 22.2669C4.70178 22.7356 5.3372 22.9992 6 23H12.5C12.6326 23 12.7598 22.9473 12.8536 22.8536C12.9473 22.7598 13 22.6326 13 22.5C13 22.3674 12.9473 22.2402 12.8536 22.1465C12.7598 22.0527 12.6326 22 12.5 22ZM18.797 5.50001H16.5C16.3674 5.50001 16.2402 5.44733 16.1464 5.35356C16.0527 5.2598 16 5.13262 16 5.00001V2.69001L18.797 5.50001Z" fill="#00FFFF"/>
<path d="M7 6.5H12.5C12.6326 6.5 12.7598 6.44732 12.8536 6.35355C12.9473 6.25979 13 6.13261 13 6C13 5.86739 12.9473 5.74021 12.8536 5.64645C12.7598 5.55268 12.6326 5.5 12.5 5.5H7C6.86739 5.5 6.74021 5.55268 6.64645 5.64645C6.55268 5.74021 6.5 5.86739 6.5 6C6.5 6.13261 6.55268 6.25979 6.64645 6.35355C6.74021 6.44732 6.86739 6.5 7 6.5ZM17 8.5H8.5C8.36739 8.5 8.24021 8.55268 8.14645 8.64645C8.05268 8.74021 8 8.86739 8 9C8 9.13261 8.05268 9.25979 8.14645 9.35355C8.24021 9.44732 8.36739 9.5 8.5 9.5H17C17.1326 9.5 17.2598 9.44732 17.3536 9.35355C17.4473 9.25979 17.5 9.13261 17.5 9C17.5 8.86739 17.4473 8.74021 17.3536 8.64645C17.2598 8.55268 17.1326 8.5 17 8.5ZM17.5 11.5C17.5 11.3674 17.4473 11.2402 17.3536 11.1464C17.2598 11.0527 17.1326 11 17 11H7C6.86739 11 6.74021 11.0527 6.64645 11.1464C6.55268 11.2402 6.5 11.3674 6.5 11.5C6.5 11.6326 6.55268 11.7598 6.64645 11.8536C6.74021 11.9473 6.86739 12 7 12H17C17.1326 12 17.2598 11.9473 17.3536 11.8536C17.4473 11.7598 17.5 11.6326 17.5 11.5ZM10.5 14C10.5 13.8674 10.4473 13.7402 10.3536 13.6464C10.2598 13.5527 10.1326 13.5 10 13.5H7C6.86739 13.5 6.74021 13.5527 6.64645 13.6464C6.55268 13.7402 6.5 13.8674 6.5 14C6.5 14.1326 6.55268 14.2598 6.64645 14.3536C6.74021 14.4473 6.86739 14.5 7 14.5H10C10.1326 14.5 10.2598 14.4473 10.3536 14.3536C10.4473 14.2598 10.5 14.1326 10.5 14ZM7 17H9C9.13261 17 9.25979 16.9473 9.35355 16.8536C9.44732 16.7598 9.5 16.6326 9.5 16.5C9.5 16.3674 9.44732 16.2402 9.35355 16.1464C9.25979 16.0527 9.13261 16 9 16H7C6.86739 16 6.74021 16.0527 6.64645 16.1464C6.55268 16.2402 6.5 16.3674 6.5 16.5C6.5 16.6326 6.55268 16.7598 6.64645 16.8536C6.74021 16.9473 6.86739 17 7 17ZM7 19.5H9.5C9.63261 19.5 9.75979 19.4473 9.85355 19.3536C9.94732 19.2598 10 19.1326 10 19C10 18.8674 9.94732 18.7402 9.85355 18.6464C9.75979 18.5527 9.63261 18.5 9.5 18.5H7C6.86739 18.5 6.74021 18.5527 6.64645 18.6464C6.55268 18.7402 6.5 18.8674 6.5 19C6.5 19.1326 6.55268 19.2598 6.64645 19.3536C6.74021 19.4473 6.86739 19.5 7 19.5ZM15.5 19C15.1022 19 14.7206 18.842 14.4393 18.5607C14.158 18.2794 14 17.8978 14 17.5C14 17.3674 13.9473 17.2402 13.8536 17.1464C13.7598 17.0527 13.6326 17 13.5 17C13.3674 17 13.2402 17.0527 13.1464 17.1464C13.0527 17.2402 13 17.3674 13 17.5C13.0008 18.1628 13.2644 18.7982 13.7331 19.2669C14.2018 19.7356 14.8372 19.9992 15.5 20C15.6326 20 15.7598 19.9473 15.8536 19.8536C15.9473 19.7598 16 19.6326 16 19.5C16 19.3674 15.9473 19.2402 15.8536 19.1464C15.7598 19.0527 15.6326 19 15.5 19Z" fill="#00FFFF"/>
</svg>
