<svg width="13" height="16" viewBox="0 0 13 16" fill="none" xmlns="http://www.w3.org/2000/svg">
<path d="M9.33398 4.66663C8.89212 4.6661 8.4685 4.49033 8.15606 4.17789C7.84361 3.86544 7.66785 3.44182 7.66732 2.99996V0.666626H2.00065C1.55862 0.666626 1.1347 0.842221 0.82214 1.15478C0.509579 1.46734 0.333984 1.89127 0.333984 2.33329V13.6666C0.333984 14.1087 0.509579 14.5326 0.82214 14.8451C1.1347 15.1577 1.55862 15.3333 2.00065 15.3333H8.66732C8.07144 15.3339 7.4863 15.1748 6.97279 14.8725C6.45929 14.5702 6.0362 14.1358 5.74758 13.6145C5.45896 13.0932 5.31535 12.5041 5.33172 11.9084C5.34808 11.3128 5.52382 10.7324 5.84062 10.2277C6.15743 9.72305 6.60373 9.31252 7.13306 9.03889C7.66238 8.76525 8.25538 8.63851 8.85032 8.67185C9.44526 8.7052 10.0204 8.89741 10.5158 9.22848C11.0113 9.55955 11.4089 10.0174 11.6673 10.5543V4.66663H9.33398ZM2.66732 3.66663H6.33398C6.42239 3.66663 6.50717 3.70175 6.56969 3.76426C6.6322 3.82677 6.66732 3.91155 6.66732 3.99996C6.66732 4.08836 6.6322 4.17315 6.56969 4.23566C6.50717 4.29817 6.42239 4.33329 6.33398 4.33329H2.66732C2.57891 4.33329 2.49413 4.29817 2.43162 4.23566C2.3691 4.17315 2.33398 4.08836 2.33398 3.99996C2.33398 3.91155 2.3691 3.82677 2.43162 3.76426C2.49413 3.70175 2.57891 3.66663 2.66732 3.66663ZM4.33398 13H2.66732C2.57891 13 2.49413 12.9648 2.43162 12.9023C2.3691 12.8398 2.33398 12.755 2.33398 12.6666C2.33398 12.5782 2.3691 12.4934 2.43162 12.4309C2.49413 12.3684 2.57891 12.3333 2.66732 12.3333H4.33398C4.42239 12.3333 4.50717 12.3684 4.56969 12.4309C4.6322 12.4934 4.66732 12.5782 4.66732 12.6666C4.66732 12.755 4.6322 12.8398 4.56969 12.9023C4.50717 12.9648 4.42239 13 4.33398 13ZM2.33398 11C2.33398 10.9116 2.3691 10.8268 2.43162 10.7643C2.49413 10.7017 2.57891 10.6666 2.66732 10.6666H4.00065C4.08906 10.6666 4.17384 10.7017 4.23635 10.7643C4.29887 10.8268 4.33398 10.9116 4.33398 11C4.33398 11.0884 4.29887 11.1732 4.23635 11.2357C4.17384 11.2982 4.08906 11.3333 4.00065 11.3333H2.66732C2.57891 11.3333 2.49413 11.2982 2.43162 11.2357C2.3691 11.1732 2.33398 11.0884 2.33398 11ZM4.66732 9.66663H2.66732C2.57891 9.66663 2.49413 9.63151 2.43162 9.569C2.3691 9.50648 2.33398 9.4217 2.33398 9.33329C2.33398 9.24489 2.3691 9.1601 2.43162 9.09759C2.49413 9.03508 2.57891 8.99996 2.66732 8.99996H4.66732C4.75572 8.99996 4.84051 9.03508 4.90302 9.09759C4.96553 9.1601 5.00065 9.24489 5.00065 9.33329C5.00065 9.4217 4.96553 9.50648 4.90302 9.569C4.84051 9.63151 4.75572 9.66663 4.66732 9.66663ZM9.33398 7.99996H2.66732C2.57891 7.99996 2.49413 7.96484 2.43162 7.90233C2.3691 7.83982 2.33398 7.75503 2.33398 7.66663C2.33398 7.57822 2.3691 7.49344 2.43162 7.43092C2.49413 7.36841 2.57891 7.33329 2.66732 7.33329H9.33398C9.42239 7.33329 9.50717 7.36841 9.56969 7.43092C9.6322 7.49344 9.66732 7.57822 9.66732 7.66663C9.66732 7.75503 9.6322 7.83982 9.56969 7.90233C9.50717 7.96484 9.42239 7.99996 9.33398 7.99996ZM9.33398 6.33329H3.66732C3.57891 6.33329 3.49413 6.29817 3.43162 6.23566C3.3691 6.17315 3.33398 6.08837 3.33398 5.99996C3.33398 5.91155 3.3691 5.82677 3.43162 5.76426C3.49413 5.70175 3.57891 5.66663 3.66732 5.66663H9.33398C9.42239 5.66663 9.50717 5.70175 9.56969 5.76426C9.6322 5.82677 9.66732 5.91155 9.66732 5.99996C9.66732 6.08837 9.6322 6.17315 9.56969 6.23566C9.50717 6.29817 9.42239 6.33329 9.33398 6.33329Z" fill="#6CC4F4"/>
<path d="M11.4729 3.80464L8.53025 0.861971C8.47366 0.806173 8.40749 0.76101 8.33491 0.728638V2.99997C8.33491 3.26519 8.44027 3.51954 8.62781 3.70708C8.81534 3.89461 9.0697 3.99997 9.33491 3.99997H11.6062C11.5739 3.92739 11.5287 3.86123 11.4729 3.80464ZM12.4382 14.83L10.9636 13.3526C11.2945 12.7922 11.4096 12.1303 11.2873 11.4911C11.1651 10.8519 10.8138 10.2792 10.2994 9.88045C9.78503 9.48172 9.14285 9.28434 8.49331 9.32531C7.84377 9.36629 7.23149 9.64281 6.77129 10.103C6.31108 10.5632 6.03456 11.1755 5.99359 11.825C5.95261 12.4746 6.15 13.1167 6.54872 13.6311C6.94745 14.1455 7.52013 14.4968 8.15937 14.6191C8.79861 14.7413 9.46049 14.6262 10.0209 14.2953L11.4982 15.77C11.56 15.8317 11.6332 15.8807 11.7139 15.9141C11.7945 15.9475 11.881 15.9647 11.9682 15.9647C12.0555 15.9647 12.142 15.9475 12.2226 15.9141C12.3033 15.8807 12.3765 15.8317 12.4382 15.77C12.5 15.7083 12.5489 15.635 12.5823 15.5543C12.6157 15.4737 12.6329 15.3873 12.6329 15.3C12.6329 15.2127 12.6157 15.1263 12.5823 15.0456C12.5489 14.965 12.5 14.8917 12.4382 14.83ZM7.00158 12C7.00158 11.6703 7.09933 11.3481 7.28246 11.074C7.4656 10.7999 7.7259 10.5863 8.03044 10.4602C8.33498 10.334 8.6701 10.301 8.9934 10.3653C9.3167 10.4296 9.61367 10.5884 9.84676 10.8215C10.0798 11.0545 10.2386 11.3515 10.3029 11.6748C10.3672 11.9981 10.3342 12.3332 10.208 12.6378C10.0819 12.9423 9.86828 13.2026 9.5942 13.3858C9.32011 13.5689 8.99788 13.6666 8.66825 13.6666C8.44938 13.6666 8.23265 13.6235 8.03044 13.5398C7.82823 13.456 7.6445 13.3332 7.48974 13.1785C7.33497 13.0237 7.2122 12.84 7.12845 12.6378C7.04469 12.4356 7.00158 12.2188 7.00158 12Z" fill="#6CC4F4"/>
</svg>
