<svg width="133" height="31" viewBox="0 0 133 31" fill="none" xmlns="http://www.w3.org/2000/svg">
<path d="M18.6945 4.9853L20.7733 6.21393C20.7733 6.21393 20.1502 7.0184 19.0929 6.41876C18.3726 5.98008 18.6945 4.9853 18.6945 4.9853Z" fill="white"/>
<path d="M8.63737 3.66927C7.51514 3.49347 5.8431 3.36154 4.06098 4.52663C4.06098 4.52663 6.23924 3.75732 8.04332 4.15278L8.63737 3.66927Z" fill="white"/>
<path d="M23.3407 7.39641C23.3407 7.39641 23.0383 7.16548 22.7085 6.91613C22.3733 6.66292 22.0102 6.39038 21.907 6.32173C21.7021 6.18532 21.5826 5.79509 20.7806 5.20575C19.9785 4.6161 15.8651 1.75258 9.73787 5.20575C9.73787 5.20575 10.4025 4.48206 11.6233 3.79553H11.6236C12.7251 3.17557 14.2795 2.58623 16.2065 2.58623C20.2685 2.58623 22.641 4.1385 23.3407 7.39641Z" fill="white"/>
<path fill-rule="evenodd" clip-rule="evenodd" d="M25.3275 7.50547C26.2263 7.6832 27.2891 8.05834 27.8454 8.77797C28.1647 9.18246 28.2683 9.7334 28.1324 10.2292C28.0345 10.6504 27.8115 11.0591 27.446 11.3049C27.0308 11.5855 26.5013 11.6249 26.019 11.5588C25.6351 11.5075 25.281 11.4039 24.9229 11.2843C22.6352 10.4917 20.0692 10.5317 17.7624 11.2243C17.426 11.3252 17.0945 11.4417 16.7681 11.5713C16.7981 11.9562 16.7942 12.6403 16.5347 13.4432C16.3048 14.1541 15.9216 14.8141 15.395 15.4047C14.7451 16.1333 13.8753 16.7565 12.8099 17.2565C12.766 17.2771 12.7192 17.2871 12.6727 17.2871C12.5836 17.2871 12.4958 17.2504 12.4332 17.181C12.3379 17.0759 12.3228 16.9207 12.3954 16.7991C12.4061 16.781 13.3698 15.1418 13.1166 13.7502C12.6952 14.0792 12.2809 14.4187 11.8667 14.7581L11.8433 14.7773C11.8031 14.8101 11.763 14.843 11.723 14.8758C11.5774 14.9953 11.432 15.1146 11.2806 15.2292C11.392 15.0134 11.5172 14.806 11.6519 14.6041C12.0483 14.0115 12.5239 13.4732 13.053 12.9935C13.0689 12.9751 13.0873 12.9587 13.1076 12.9442C13.373 12.7071 13.6513 12.4845 13.9399 12.2778C15.6194 11.0453 17.6346 10.2824 19.7076 10.0779C21.1669 9.93048 22.6449 10.0269 24.0738 10.3605C24.3124 10.4172 24.5491 10.4804 24.7873 10.5575C24.962 10.6179 25.2777 10.7243 25.4559 10.7762C26.0771 10.9498 26.9585 11.1417 27.3469 10.4837C27.4279 10.3482 27.4783 10.1934 27.5148 10.0395C27.7111 9.23633 26.9662 8.73765 26.3067 8.46541C25.9464 8.31606 25.5599 8.20639 25.1751 8.13124C25.1432 8.12436 25.0873 8.11526 25.0452 8.1084C25.034 8.10658 25.0238 8.10492 25.0153 8.1035C24.8758 8.08124 24.7705 7.97383 24.7431 7.84319C24.6956 7.61675 24.6314 7.3929 24.56 7.17226C23.318 3.46733 20.3598 1.41552 16.4504 1.54132C13.5945 1.63712 10.6669 2.55803 8.55188 4.53081C7.27339 5.71622 6.34456 7.20581 5.73728 8.82668C5.73373 8.83894 5.72921 8.85087 5.72404 8.86248C5.16131 10.3776 4.87882 12.0058 4.85331 13.6077C4.84944 13.9628 4.86106 14.3228 4.90077 14.675C5.29788 17.8568 7.02738 20.9395 9.44552 23.0274C10.7211 24.1154 12.2295 24.9286 13.8414 25.3944C13.9677 25.4315 14.0545 25.5382 14.072 25.6605C14.1478 26.1043 14.2876 26.5366 14.4594 26.9527C14.779 27.7194 15.2381 28.4274 15.8228 29.0164C15.7718 28.9055 15.7214 28.7896 15.6726 28.669C15.0964 27.2414 15.0282 25.8476 15.4757 24.6386C15.8983 23.4967 16.8068 22.6549 18.1763 22.1368C18.5499 21.9956 18.9244 21.8907 19.2785 21.812C18.4769 21.8033 17.6737 21.9581 16.9379 22.2759C16.1298 22.6174 15.414 23.1381 14.7896 23.7574C14.7038 23.8445 14.5788 23.8719 14.4691 23.8383C14.2502 23.7716 14.0368 23.6842 13.8282 23.5916C10.6878 22.1543 9.08845 19.1483 9.17368 15.7588C9.17498 15.7011 9.17691 15.6414 9.17982 15.5805C9.21758 14.7725 9.47462 13.9908 9.84944 13.2747C10.328 12.3603 10.7325 11.8834 11.8323 11.2283C11.836 11.2269 11.8396 11.2256 11.8433 11.2243C10.6374 12.5211 10.221 13.826 10.0886 15.6263C9.86846 18.7248 11.2031 21.5282 14.03 22.9529C14.1772 23.0261 14.3283 23.0958 14.4817 23.1565C15.2962 22.3817 16.2806 21.7559 17.3647 21.4362C18.668 21.0485 20.1076 21.0685 21.3832 21.5501C21.3903 21.5527 21.3974 21.5553 21.4045 21.5582C21.4057 21.5586 21.407 21.559 21.4082 21.5595C21.4099 21.5602 21.4117 21.5608 21.4136 21.5614C21.414 21.5617 21.4144 21.562 21.4148 21.5622C21.4152 21.5624 21.4156 21.5627 21.4161 21.563C21.421 21.5649 21.4255 21.5675 21.43 21.5698C21.6667 21.6827 21.6676 22.0288 21.4332 22.1423C21.4284 22.1449 21.4232 22.1475 21.4181 22.1497C21.4148 22.151 21.4123 22.153 21.4087 22.1543C21.0713 22.2865 20.7472 22.4568 20.4379 22.6552C19.4984 23.2606 18.7313 24.0774 18.0282 24.9521C17.7476 25.275 17.2698 24.8938 17.5242 24.5489C18.1563 23.7612 18.8685 22.9907 19.6941 22.3842C18.3742 22.6333 16.6832 23.2361 16.081 24.8622C15.6865 25.9285 15.7482 27.1223 16.2647 28.411C16.2883 28.4693 16.3122 28.5264 16.3361 28.5822C16.3229 28.399 16.3138 28.2148 16.3112 28.0297C16.3022 27.2323 16.3997 26.4011 16.7584 25.6724C16.9673 25.2908 17.5158 25.5721 17.336 25.9608C16.8088 27.0669 16.9166 28.4748 17.129 29.6551C17.1623 29.8318 17.2023 30.0141 17.2469 30.1863C17.2494 30.195 17.2511 30.2037 17.2527 30.2124L17.2527 30.2134C17.282 30.3763 17.1823 30.5373 17.0192 30.5808C16.9434 30.6012 16.8659 30.5921 16.7997 30.5615C16.798 30.5607 16.7963 30.5599 16.7946 30.559C16.7921 30.5577 16.7896 30.5564 16.7871 30.555C16.7832 30.5531 16.7794 30.5515 16.7755 30.5492C16.7719 30.5473 16.7687 30.5453 16.7655 30.5434C16.7652 30.5431 16.7648 30.5431 16.7645 30.5428C15.0702 29.5848 13.8786 27.8484 13.4724 25.9572C12.3899 25.6237 11.3484 25.1441 10.3934 24.5341C10.3314 24.4959 10.226 24.4231 10.1255 24.3538C10.047 24.2996 9.97164 24.2476 9.92237 24.2157C9.82862 24.148 9.72981 24.0739 9.63244 24.0008C9.57623 23.9586 9.52051 23.9167 9.46651 23.8767C9.40794 23.8329 9.30898 23.7507 9.21492 23.6726C9.14204 23.6121 9.07209 23.5539 9.02614 23.518L8.74365 23.2664C6.41139 21.1553 4.71901 18.0539 4.27993 14.934C4.16209 13.9925 4.19825 13.0355 4.30253 12.0958C4.42877 10.9401 4.69254 9.79823 5.09158 8.71314C4.76324 7.29548 3.89542 6.40747 2.5104 6.07394C1.41691 5.81041 0.394119 6.0004 0.383788 6.00234C0.243672 6.02911 0.102264 5.96105 0.0364023 5.83428C-0.029459 5.70784 -0.00427671 5.55301 0.0983894 5.45398C1.09373 4.49211 2.20014 3.71828 3.38758 3.1538C4.38615 2.67899 5.44478 2.34998 6.53375 2.17612C7.40609 2.03709 8.27616 1.99871 9.12009 2.06225C9.68669 2.10515 10.2262 2.19644 10.6284 2.31546C12.4283 1.41423 14.429 0.963611 16.4342 0.896518C20.3004 0.77201 23.4104 2.66544 24.9084 6.25716C25.0763 6.6623 25.2212 7.07904 25.3275 7.50547ZM2.64051 5.44172C3.6281 5.67526 4.84686 6.27651 5.47254 7.78577C6.39976 5.75106 7.83644 3.97923 9.77354 2.78705C9.02324 2.66641 7.92006 2.60803 6.63577 2.81318C5.60749 2.97736 4.60795 3.28799 3.66491 3.73634C2.81226 4.1418 2.00288 4.66209 1.24902 5.28819C1.64871 5.28819 2.13428 5.32205 2.64051 5.44172ZM14.8965 14.9937C15.363 14.475 15.704 13.8977 15.9096 13.2777C16.1011 12.7003 16.1392 12.1903 16.1337 11.8436C15.5109 12.1316 14.911 12.4694 14.3415 12.8516C14.1168 13.0038 13.8957 13.1619 13.6774 13.3232C13.9793 14.338 13.6855 15.4579 13.3853 16.2191C13.9822 15.8575 14.4884 15.4472 14.8965 14.9937Z" fill="white"/>
<path d="M39.2592 22.4961L36.2453 8.69355H39.929L41.7499 19.652H41.9801L44.2615 8.69355H48.5104L50.8336 19.652H51.0638L52.8848 8.69355H56.3592L53.3243 22.4961H48.6359L46.4383 11.5586H46.229L44.0522 22.4961H39.2592Z" fill="white"/>
<path d="M61.2405 22.7889C60.6266 22.7889 60.0824 22.6704 59.608 22.4334C59.1336 22.1825 58.7638 21.8269 58.4987 21.3668C58.2336 20.8928 58.101 20.3212 58.101 19.652C58.101 19.0246 58.2196 18.5087 58.4568 18.1044C58.708 17.6861 59.0638 17.3585 59.5243 17.1215C59.9987 16.8705 60.5638 16.6684 61.2196 16.515C61.8754 16.3477 62.6219 16.2013 63.4591 16.0758C63.8638 16.0061 64.1987 15.9434 64.4638 15.8876C64.7429 15.8179 64.9522 15.7134 65.0917 15.5739C65.2312 15.4345 65.301 15.2324 65.301 14.9675C65.301 14.6189 65.1754 14.3192 64.9243 14.0682C64.6731 13.8172 64.2684 13.6918 63.7103 13.6918C63.3196 13.6918 62.9638 13.7615 62.6429 13.9009C62.3359 14.0403 62.0708 14.2425 61.8475 14.5074C61.6243 14.7723 61.4568 15.0929 61.3452 15.4694L58.3731 14.591C58.5545 14.0055 58.8057 13.4966 59.1266 13.0644C59.4615 12.6322 59.8592 12.2766 60.3196 11.9978C60.7801 11.705 61.3033 11.4959 61.8894 11.3704C62.4894 11.231 63.1243 11.1613 63.794 11.1613C64.9103 11.1613 65.8173 11.3425 66.515 11.705C67.2266 12.0536 67.7498 12.6043 68.0847 13.3572C68.4335 14.0961 68.608 15.0511 68.608 16.2222V17.9162C68.608 18.4181 68.6149 18.927 68.6289 19.4428C68.6568 19.9448 68.6847 20.4536 68.7126 20.9695C68.7545 21.4714 68.8033 21.9803 68.8591 22.4961H65.887C65.8312 22.1755 65.7754 21.7921 65.7196 21.3459C65.6638 20.8858 65.6219 20.4188 65.594 19.9448H65.1964C65.001 20.4746 64.715 20.9625 64.3382 21.4087C63.9754 21.8409 63.5289 22.1825 62.9987 22.4334C62.4824 22.6704 61.8964 22.7889 61.2405 22.7889ZM62.7684 20.4048C63.0196 20.4048 63.2708 20.363 63.5219 20.2794C63.787 20.1818 64.0382 20.0563 64.2754 19.9029C64.5126 19.7356 64.7289 19.5335 64.9243 19.2965C65.1196 19.0594 65.2661 18.8015 65.3638 18.5227L65.3219 16.8705L65.7824 16.9751C65.5173 17.1424 65.2243 17.2749 64.9033 17.3725C64.5824 17.47 64.2545 17.5467 63.9196 17.6025C63.5987 17.6583 63.2778 17.721 62.9568 17.7907C62.6498 17.8465 62.3708 17.9232 62.1196 18.0208C61.8824 18.1184 61.694 18.2508 61.5545 18.4181C61.415 18.5854 61.3452 18.8155 61.3452 19.1082C61.3452 19.4986 61.4778 19.8123 61.7429 20.0493C62.008 20.2863 62.3498 20.4048 62.7684 20.4048Z" fill="white"/>
<path d="M74.2295 22.4961L70.6086 11.475H74.3551L76.4481 19.8611H76.8039L78.9388 11.475H82.5179L78.876 22.4961H74.2295Z" fill="white"/>
<path d="M89.8753 22.7889C88.9543 22.7889 88.1311 22.6704 87.4055 22.4334C86.6799 22.1825 86.059 21.82 85.5427 21.3459C85.0404 20.8719 84.6567 20.2863 84.3916 19.5892C84.1265 18.8921 83.9939 18.0905 83.9939 17.1842C83.9939 16.3059 84.1195 15.4973 84.3706 14.7583C84.6358 14.0194 85.0055 13.385 85.4799 12.8552C85.9683 12.3115 86.5613 11.8932 87.259 11.6005C87.9706 11.3077 88.766 11.1613 89.645 11.1613C90.5381 11.1613 91.3195 11.3077 91.9892 11.6005C92.6729 11.8793 93.2311 12.2976 93.6636 12.8552C94.1101 13.4129 94.4381 14.0961 94.6474 14.9047C94.8567 15.6994 94.9264 16.6126 94.8567 17.6443L86.2125 17.7071V15.9504L92.9311 15.8876L91.7381 16.7032C91.8357 16.0061 91.7939 15.4415 91.6125 15.0093C91.4311 14.5631 91.166 14.2425 90.8171 14.0473C90.4683 13.8382 90.0916 13.7336 89.6869 13.7336C89.1985 13.7336 88.766 13.866 88.3892 14.1309C88.0265 14.3958 87.7404 14.7792 87.5311 15.2812C87.3218 15.7831 87.2171 16.3965 87.2171 17.1215C87.2171 18.2647 87.4613 19.0943 87.9497 19.6101C88.452 20.126 89.0869 20.3839 89.8543 20.3839C90.2311 20.3839 90.545 20.3351 90.7962 20.2375C91.0474 20.126 91.2497 19.9936 91.4032 19.8402C91.5706 19.6729 91.6962 19.4916 91.7799 19.2965C91.8776 19.1013 91.9543 18.913 92.0102 18.7318L94.9404 19.3592C94.8288 19.875 94.6474 20.3421 94.3962 20.7604C94.159 21.1786 93.8311 21.5411 93.4125 21.8478C93.0078 22.1546 92.5125 22.3846 91.9264 22.538C91.3543 22.7053 90.6706 22.7889 89.8753 22.7889Z" fill="white"/>
<path d="M99.8559 18.1672V16.766H103.351C104.788 16.766 105.863 16.5011 106.575 15.9713C107.3 15.4275 107.663 14.5562 107.663 13.3572C107.663 12.2418 107.321 11.4122 106.637 10.8685C105.968 10.3248 104.949 10.0529 103.581 10.0529H99.8559V8.69355H103.602C104.509 8.69355 105.312 8.79811 106.009 9.00724C106.721 9.21637 107.314 9.5231 107.788 9.92742C108.277 10.3178 108.647 10.8127 108.898 11.4122C109.149 11.9978 109.274 12.667 109.274 13.4199C109.274 14.4516 109.037 15.316 108.563 16.0131C108.102 16.7102 107.419 17.247 106.512 17.6234C105.605 17.9859 104.495 18.1672 103.184 18.1672H99.8559ZM99.2071 22.4961V8.69355H100.756V22.4961H99.2071Z" fill="#EDF7FF"/>
<path d="M113.587 22.4961V11.7259H115.052L114.821 15.5112H115.156C115.296 14.7304 115.491 14.0403 115.742 13.4408C116.007 12.8274 116.356 12.3464 116.789 11.9978C117.221 11.6493 117.745 11.475 118.359 11.475C118.512 11.475 118.686 11.4889 118.882 11.5168C119.077 11.5307 119.293 11.5795 119.531 11.6632L119.426 13.2735C119.231 13.2038 119.028 13.148 118.819 13.1062C118.624 13.0644 118.435 13.0435 118.254 13.0435C117.696 13.0435 117.221 13.2386 116.831 13.629C116.44 14.0055 116.105 14.5143 115.826 15.1557C115.561 15.7831 115.331 16.4802 115.135 17.247V22.4961H113.587Z" fill="#EDF7FF"/>
<path d="M127.935 22.7471C126.916 22.7471 126.016 22.524 125.235 22.0779C124.467 21.6178 123.867 20.9695 123.435 20.133C123.016 19.2825 122.807 18.2578 122.807 17.0588C122.807 15.804 123.03 14.7653 123.477 13.9427C123.937 13.1201 124.551 12.5067 125.319 12.1024C126.086 11.6841 126.937 11.475 127.872 11.475C128.835 11.475 129.7 11.6981 130.467 12.1442C131.249 12.5764 131.863 13.2177 132.309 14.0682C132.77 14.9047 133 15.9364 133 17.1633C133 18.3902 132.777 19.4219 132.33 20.2585C131.884 21.081 131.277 21.7015 130.509 22.1197C129.742 22.538 128.884 22.7471 127.935 22.7471ZM127.998 21.4087C128.709 21.4087 129.323 21.2344 129.84 20.8858C130.356 20.5373 130.753 20.0493 131.033 19.4219C131.312 18.7806 131.451 18.0347 131.451 17.1842C131.451 16.3059 131.305 15.5461 131.012 14.9047C130.719 14.2494 130.3 13.7475 129.756 13.399C129.226 13.0365 128.584 12.8552 127.83 12.8552C127.133 12.8552 126.526 13.0225 126.009 13.3572C125.493 13.6778 125.088 14.1518 124.795 14.7792C124.502 15.3927 124.356 16.1386 124.356 17.0169C124.356 18.3693 124.684 19.4428 125.34 20.2375C125.995 21.0183 126.881 21.4087 127.998 21.4087Z" fill="#EDF7FF"/>
</svg>
