<svg width="14" height="16" viewBox="0 0 14 16" fill="none" xmlns="http://www.w3.org/2000/svg">
<path d="M9.62118 2.90045C11.7597 3.88696 13.25 6.10211 13.25 8.67661C13.25 12.1689 10.5077 15 7.125 15C3.74226 15 1 12.1689 1 8.67661C1 6.98114 1.64634 5.44152 2.69853 4.30604C3.26759 5.12648 4.02203 5.80055 4.89863 6.26298C4.93212 4.13551 5.89849 2.24218 7.39384 1C7.96062 1.78468 8.71221 2.44409 9.62118 2.90045Z" stroke="white" stroke-linecap="round" stroke-linejoin="round"/>
<path d="M7.125 12.7009C8.66261 12.7009 9.90909 11.414 9.90909 9.82662C9.90909 8.36779 8.85637 7.1628 7.49242 6.97716C6.74381 7.67046 6.22384 8.6216 6.06356 9.69526C5.48253 9.54863 4.9462 9.28433 4.47961 8.92822C4.3896 9.21087 4.34091 9.51287 4.34091 9.82662C4.34091 11.414 5.58739 12.7009 7.125 12.7009Z" stroke="white" stroke-linecap="round" stroke-linejoin="round"/>
</svg>
