<svg width="17" height="16" viewBox="0 0 17 16" fill="none" xmlns="http://www.w3.org/2000/svg">
<path d="M7.85403 10.6466C7.90052 10.6931 7.9374 10.7482 7.96256 10.8089C7.98772 10.8696 8.00067 10.9347 8.00067 11.0004C8.00067 11.0661 7.98772 11.1312 7.96256 11.1919C7.9374 11.2526 7.90052 11.3077 7.85403 11.3541L5.85403 13.3541C5.80759 13.4006 5.75245 13.4375 5.69175 13.4627C5.63105 13.4878 5.56599 13.5008 5.50028 13.5008C5.43457 13.5008 5.36951 13.4878 5.30881 13.4627C5.24811 13.4375 5.19296 13.4006 5.14653 13.3541L3.14653 11.3541C3.10007 11.3077 3.06322 11.2525 3.03808 11.1918C3.01294 11.1311 3 11.0661 3 11.0004C3 10.9347 3.01294 10.8696 3.03808 10.8089C3.06322 10.7482 3.10007 10.6931 3.14653 10.6466C3.24035 10.5528 3.3676 10.5001 3.50028 10.5001C3.56598 10.5001 3.63103 10.5131 3.69173 10.5382C3.75242 10.5633 3.80757 10.6002 3.85403 10.6466L5.00028 11.7935V3.00039C5.00028 2.86779 5.05296 2.74061 5.14672 2.64684C5.24049 2.55307 5.36767 2.50039 5.50028 2.50039C5.63289 2.50039 5.76006 2.55307 5.85383 2.64684C5.9476 2.74061 6.00028 2.86779 6.00028 3.00039V11.7935L7.14653 10.6466C7.19296 10.6002 7.24811 10.5633 7.30881 10.5381C7.36951 10.513 7.43457 10.5 7.50028 10.5C7.56599 10.5 7.63105 10.513 7.69175 10.5381C7.75245 10.5633 7.80759 10.6002 7.85403 10.6466ZM13.854 4.64664L11.854 2.64664C11.8076 2.60016 11.7524 2.56328 11.6917 2.53811C11.631 2.51295 11.566 2.5 11.5003 2.5C11.4346 2.5 11.3695 2.51295 11.3088 2.53811C11.2481 2.56328 11.193 2.60016 11.1465 2.64664L9.14653 4.64664C9.05271 4.74046 9 4.86771 9 5.00039C9 5.13308 9.05271 5.26032 9.14653 5.35414C9.24035 5.44796 9.3676 5.50067 9.50028 5.50067C9.63296 5.50067 9.76021 5.44796 9.85403 5.35414L11.0003 4.20727V13.0004C11.0003 13.133 11.053 13.2602 11.1467 13.3539C11.2405 13.4477 11.3677 13.5004 11.5003 13.5004C11.6329 13.5004 11.7601 13.4477 11.8538 13.3539C11.9476 13.2602 12.0003 13.133 12.0003 13.0004V4.20727L13.1465 5.35414C13.2403 5.44796 13.3676 5.50067 13.5003 5.50067C13.633 5.50067 13.7602 5.44796 13.854 5.35414C13.9478 5.26032 14.0006 5.13308 14.0006 5.00039C14.0006 4.86771 13.9478 4.74046 13.854 4.64664Z" fill="#A8A8A8"/>
</svg>
