<svg width="16" height="16" viewBox="0 0 16 16" fill="none" xmlns="http://www.w3.org/2000/svg">
<path d="M13.4869 7.38605C13.468 7.30591 13.4295 7.23169 13.375 7.16998C13.3205 7.10827 13.2516 7.06097 13.1744 7.0323L9.57377 5.68168L10.49 1.09855C10.5108 0.992063 10.4963 0.881717 10.4489 0.784164C10.4014 0.68661 10.3235 0.607142 10.2269 0.557751C10.1303 0.50836 10.0202 0.491727 9.91337 0.510361C9.80649 0.528995 9.70858 0.581885 9.6344 0.66105L2.6344 8.16105C2.57754 8.22096 2.53641 8.29401 2.51469 8.37369C2.49296 8.45337 2.4913 8.5372 2.50987 8.61767C2.52845 8.69815 2.56666 8.77277 2.62111 8.83487C2.67556 8.89697 2.74454 8.94462 2.8219 8.97355L6.42377 10.3242L5.51002 14.9023C5.48927 15.0088 5.50372 15.1191 5.55119 15.2167C5.59866 15.3142 5.67657 15.3937 5.77316 15.4431C5.86976 15.4925 5.97979 15.5091 6.08667 15.4905C6.19355 15.4719 6.29146 15.419 6.36565 15.3398L13.3656 7.8398C13.4215 7.77988 13.4617 7.70717 13.4829 7.62805C13.504 7.54893 13.5054 7.46583 13.4869 7.38605ZM6.83565 13.3754L7.49002 10.1017C7.51344 9.98557 7.49488 9.86492 7.43765 9.76122C7.38042 9.65752 7.28824 9.5775 7.17752 9.53543L3.87502 8.2948L9.16377 2.62855L8.51002 5.9023C8.4866 6.01841 8.50516 6.13906 8.56239 6.24276C8.61962 6.34646 8.7118 6.42647 8.82252 6.46855L12.1225 7.70605L6.83565 13.3754Z" fill="#278BFE"/>
</svg>
