<svg width="24" height="24" viewBox="0 0 24 24" fill="none" xmlns="http://www.w3.org/2000/svg">
<path fill-rule="evenodd" clip-rule="evenodd" d="M10.6047 1.32399C11.0388 1.1106 11.5161 0.999634 11.9998 0.999634C12.4834 0.999634 12.9607 1.1106 13.3948 1.32399L22.1467 5.63399C23.2837 6.19399 23.2837 7.80699 22.1467 8.36699L19.8447 9.49999L22.1467 10.633C23.2837 11.193 23.2837 12.807 22.1467 13.367L19.8447 14.5L22.1467 15.633C23.2837 16.193 23.2837 17.807 22.1467 18.367L13.3948 22.675C12.9607 22.8884 12.4834 22.9993 11.9998 22.9993C11.5161 22.9993 11.0388 22.8884 10.6047 22.675L1.85275 18.366C0.71575 17.806 0.71575 16.193 1.85275 15.633L4.15475 14.5L1.85275 13.366C0.71575 12.806 0.71575 11.193 1.85275 10.633L4.15475 9.49999L1.85275 8.36699C0.71575 7.80699 0.71575 6.19299 1.85275 5.63299L10.6047 1.32399ZM12.5118 3.11899C12.3524 3.0407 12.1773 3 11.9998 3C11.8222 3 11.6471 3.0407 11.4878 3.11899L3.60475 6.99999L11.4878 10.881C11.8097 11.04 12.1898 11.04 12.5118 10.881L20.3948 6.99999L12.5118 3.11899ZM6.41875 10.615L3.60475 12L11.4878 15.881C11.8097 16.04 12.1898 16.04 12.5118 15.881L20.3948 12L17.5807 10.615L13.3948 12.675C12.9607 12.8885 12.4835 12.9995 11.9998 12.9995C11.516 12.9995 11.0388 12.8885 10.6047 12.675L6.41875 10.615ZM6.41875 15.615L3.60475 17L11.4878 20.881C11.8097 21.04 12.1898 21.04 12.5118 20.881L20.3948 17L17.5807 15.615L13.3948 17.675C12.9607 17.8884 12.4834 17.9993 11.9998 17.9993C11.5161 17.9993 11.0388 17.8884 10.6047 17.675L6.41875 15.615Z" fill="white"/>
</svg>
