<svg width="24" height="24" viewBox="0 0 24 24" fill="none" xmlns="http://www.w3.org/2000/svg">
<path fill-rule="evenodd" clip-rule="evenodd" d="M13.3948 1.32399C12.9607 1.1106 12.4834 0.999634 11.9998 0.999634C11.5161 0.999634 11.0388 1.1106 10.6047 1.32399L1.85275 5.63399C0.71575 6.19399 0.71575 7.80699 1.85275 8.36699L10.6047 12.676C11.0388 12.8895 11.516 13.0005 11.9998 13.0005C12.4835 13.0005 12.9607 12.8895 13.3948 12.676L22.1467 8.36599C23.2837 7.80599 23.2837 6.19299 22.1467 5.63299L13.3948 1.32399ZM1.90275 10.61C1.9715 10.5761 2.04711 10.5585 2.12375 10.5585C2.20039 10.5585 2.276 10.5761 2.34475 10.61L10.6047 14.677C11.0388 14.8904 11.5161 15.0013 11.9998 15.0013C12.4834 15.0013 12.9607 14.8904 13.3948 14.677L21.6548 10.61C21.7235 10.5761 21.7991 10.5585 21.8757 10.5585C21.9524 10.5585 22.028 10.5761 22.0968 10.61L22.1467 10.634C23.2837 11.194 23.2837 12.808 22.1467 13.367L13.3948 17.677C12.9607 17.8904 12.4834 18.0013 11.9998 18.0013C11.5161 18.0013 11.0388 17.8904 10.6047 17.677L1.85275 13.367C0.71575 12.807 0.71575 11.194 1.85275 10.634L1.90275 10.61ZM2.34475 15.61C2.276 15.5761 2.20039 15.5585 2.12375 15.5585C2.04711 15.5585 1.9715 15.5761 1.90275 15.61L1.85275 15.635C0.71575 16.195 0.71575 17.808 1.85275 18.368L10.6047 22.677C11.0388 22.8904 11.5161 23.0013 11.9998 23.0013C12.4834 23.0013 12.9607 22.8904 13.3948 22.677L22.1467 18.367C23.2837 17.807 23.2837 16.194 22.1467 15.634L22.0968 15.61C22.028 15.5761 21.9524 15.5585 21.8757 15.5585C21.7991 15.5585 21.7235 15.5761 21.6548 15.61L13.3948 19.677C12.9607 19.8904 12.4834 20.0013 11.9998 20.0013C11.5161 20.0013 11.0388 19.8904 10.6047 19.677L2.34475 15.61Z" fill="#00FFFF"/>
</svg>
