<svg width="16" height="16" viewBox="0 0 16 16" fill="none" xmlns="http://www.w3.org/2000/svg">
<path d="M8.00033 14.2714C4.54116 14.2714 1.72949 11.4597 1.72949 8.00057C1.72949 4.5414 4.54116 1.72974 8.00033 1.72974C11.4595 1.72974 14.2712 4.5414 14.2712 8.00057C14.2712 11.4597 11.4595 14.2714 8.00033 14.2714ZM8.00033 2.60474C5.02533 2.60474 2.60449 5.02557 2.60449 8.00057C2.60449 10.9756 5.02533 13.3964 8.00033 13.3964C10.9753 13.3964 13.3962 10.9756 13.3962 8.00057C13.3962 5.02557 10.9753 2.60474 8.00033 2.60474Z" fill="#1F73FC"/>
<path d="M8 10.6244C7.76083 10.6244 7.5625 10.4261 7.5625 10.1869V7.27026C7.5625 7.0311 7.76083 6.83276 8 6.83276C8.23917 6.83276 8.4375 7.0311 8.4375 7.27026V10.1869C8.4375 10.4261 8.23917 10.6244 8 10.6244Z" fill="#1F73FC"/>
<path d="M8.00033 6.24651C7.92449 6.24651 7.84866 6.22901 7.77866 6.19985C7.70866 6.17068 7.64449 6.12985 7.58616 6.07735C7.53366 6.01901 7.49283 5.96068 7.46366 5.88485C7.43449 5.81485 7.41699 5.73901 7.41699 5.66318C7.41699 5.58735 7.43449 5.51151 7.46366 5.44151C7.49283 5.37151 7.53366 5.30735 7.58616 5.24901C7.64449 5.19651 7.70866 5.15568 7.77866 5.12651C7.91866 5.06818 8.08199 5.06818 8.22199 5.12651C8.29199 5.15568 8.35616 5.19651 8.41449 5.24901C8.46699 5.30735 8.50783 5.37151 8.53699 5.44151C8.56616 5.51151 8.58366 5.58735 8.58366 5.66318C8.58366 5.73901 8.56616 5.81485 8.53699 5.88485C8.50783 5.96068 8.46699 6.01901 8.41449 6.07735C8.35616 6.12985 8.29199 6.17068 8.22199 6.19985C8.15199 6.22901 8.07616 6.24651 8.00033 6.24651Z" fill="#1F73FC"/>
</svg>
