<svg width="16" height="16" viewBox="0 0 16 16" fill="none" xmlns="http://www.w3.org/2000/svg">
<path d="M9.27273 12.1364H12.1364M12.1364 12.1364H15M12.1364 12.1364V9.27273M12.1364 12.1364V15M2.90909 6.72727H4.81818C5.87254 6.72727 6.72727 5.87254 6.72727 4.81818V2.90909C6.72727 1.85473 5.87254 1 4.81818 1H2.90909C1.85473 1 1 1.85473 1 2.90909V4.81818C1 5.87254 1.85473 6.72727 2.90909 6.72727ZM2.90909 15H4.81818C5.87254 15 6.72727 14.1453 6.72727 13.0909V11.1818C6.72727 10.1275 5.87254 9.27273 4.81818 9.27273H2.90909C1.85473 9.27273 1 10.1275 1 11.1818V13.0909C1 14.1453 1.85473 15 2.90909 15ZM11.1818 6.72727H13.0909C14.1453 6.72727 15 5.87254 15 4.81818V2.90909C15 1.85473 14.1453 1 13.0909 1H11.1818C10.1275 1 9.27273 1.85473 9.27273 2.90909V4.81818C9.27273 5.87254 10.1275 6.72727 11.1818 6.72727Z" stroke="white" stroke-linecap="round" stroke-linejoin="round"/>
</svg>
