<svg width="16" height="16" viewBox="0 0 16 16" fill="none" xmlns="http://www.w3.org/2000/svg">
<path d="M5.40862 10.378H4.87877V5.49634H5.40862C5.83691 5.49634 6.14997 5.64491 6.34807 5.94203C6.5459 6.23211 6.64495 6.64952 6.64495 7.1943V8.68C6.64495 9.2177 6.5459 9.63511 6.34807 9.93227C6.14997 10.2294 5.83691 10.378 5.40862 10.378Z" fill="#21CB6B"/>
<path fill-rule="evenodd" clip-rule="evenodd" d="M3.65193 1.36572C2.38965 1.36572 1.36621 2.38906 1.36621 3.65144V12.2229C1.36621 13.4852 2.38965 14.5086 3.65193 14.5086H12.2234C13.4856 14.5086 14.5091 13.4852 14.5091 12.2229V3.65144C14.5091 2.38906 13.4856 1.36572 12.2234 1.36572H3.65193ZM3.0805 10.4204V11.6514H5.39272C6.14718 11.6514 6.72001 11.4003 7.11063 10.898C7.50684 10.3886 7.70466 9.63511 7.70466 8.63756V7.23675C7.70466 6.23919 7.50684 5.48926 7.11063 4.98696C6.72001 4.47757 6.14718 4.22287 5.39272 4.22287H3.0805V5.45389H3.81906V10.4204H3.0805ZM8.58803 4.22287V11.6514H9.64774V8.56327H11.7351V11.6514H12.7948V4.22287H11.7351V7.28979H9.64774V4.22287H8.58803Z" fill="#21CB6B"/>
</svg>
