<svg width="16" height="16" viewBox="0 0 16 16" fill="none" xmlns="http://www.w3.org/2000/svg">
<path d="M10.8206 10.2381C10.638 10.5228 10.351 10.6652 9.95972 10.6652C9.57886 10.6652 9.29189 10.5298 9.09882 10.2589C8.91103 9.98117 8.81701 9.56798 8.81701 9.01937V7.08188C8.81701 6.56798 8.91619 6.16867 9.11442 5.88395C9.31794 5.59924 9.59975 5.45688 9.95972 5.45688C10.3094 5.45688 10.5859 5.59576 10.7893 5.87354C10.9981 6.14437 11.1024 6.54715 11.1024 7.08188V9.01937C11.1024 9.54715 11.0084 9.9534 10.8206 10.2381Z" fill="#21CB6B"/>
<path fill-rule="evenodd" clip-rule="evenodd" d="M3.97917 1.56104C2.7825 1.56104 1.8125 2.53107 1.8125 3.7277V12.3944C1.8125 13.591 2.7825 14.561 3.97917 14.561H12.6458C13.8425 14.561 14.8125 13.591 14.8125 12.3944V3.7277C14.8125 2.53107 13.8425 1.56104 12.6458 1.56104H3.97917ZM8.40229 11.1444C8.7936 11.6166 9.31278 11.8527 9.95972 11.8527C10.6119 11.8527 11.1311 11.6166 11.5171 11.1444C11.9084 10.6652 12.1042 9.94298 12.1042 8.97771V7.14436C12.1042 6.20686 11.9084 5.49506 11.5171 5.00894C11.1311 4.5159 10.6119 4.26937 9.95972 4.26937C9.31278 4.26937 8.7936 4.5159 8.40229 5.00894C8.01099 5.49506 7.81527 6.20686 7.81527 7.14436V8.97771C7.81527 9.94298 8.01099 10.6652 8.40229 11.1444ZM5.90449 5.39436V11.7069H6.90623V4.4152H5.09834L3.97917 7.70686H5.02785L5.76365 5.39436H5.90449Z" fill="#21CB6B"/>
</svg>
