<svg width="19" height="10" viewBox="0 0 19 10" fill="none" xmlns="http://www.w3.org/2000/svg">
<path d="M0.662992 9V0.516H2.47499L4.93499 4.992L7.34699 0.516H9.11099V9H7.85099V2.016L5.17499 6.888H4.62299L1.93499 2.016V9H0.662992ZM14.5964 9.096C13.7244 9.096 12.9924 8.912 12.4004 8.544C11.8164 8.176 11.3764 7.668 11.0804 7.02C10.7844 6.372 10.6364 5.624 10.6364 4.776C10.6364 3.928 10.7844 3.176 11.0804 2.52C11.3844 1.864 11.8284 1.352 12.4124 0.983999C13.0044 0.608 13.7364 0.42 14.6084 0.42C15.2404 0.42 15.7924 0.524 16.2644 0.732C16.7364 0.932 17.1164 1.22 17.4044 1.596C17.7004 1.964 17.8964 2.404 17.9924 2.916H16.7444C16.6244 2.508 16.3804 2.184 16.0124 1.944C15.6444 1.704 15.1724 1.584 14.5964 1.584C13.9564 1.584 13.4404 1.732 13.0484 2.028C12.6644 2.324 12.3844 2.712 12.2084 3.192C12.0324 3.664 11.9444 4.176 11.9444 4.728C11.9444 5.296 12.0364 5.824 12.2204 6.312C12.4044 6.8 12.6964 7.192 13.0964 7.488C13.4964 7.784 14.0084 7.932 14.6324 7.932C15.0164 7.932 15.3564 7.88 15.6524 7.776C15.9484 7.664 16.1964 7.508 16.3964 7.308C16.5964 7.1 16.7324 6.86 16.8044 6.588H18.1364C18.0324 7.108 17.8204 7.556 17.5004 7.932C17.1804 8.308 16.7764 8.596 16.2884 8.796C15.8004 8.996 15.2364 9.096 14.5964 9.096Z" fill="#6E6E6E"/>
</svg>
