<svg width="13" height="13" viewBox="0 0 13 13" fill="none" xmlns="http://www.w3.org/2000/svg">
<path d="M11.9965 0.974936C11.3722 0.350694 10.5256 0 9.64276 0C8.75993 0 7.91327 0.350694 7.28901 0.974936L0.945258 7.31806C0.334063 7.94499 -0.00552237 8.78747 6.7943e-05 9.66301C0.00565826 10.5385 0.355974 11.3766 0.975125 11.9957C1.59428 12.6148 2.4324 12.965 3.30794 12.9704C4.18347 12.9759 5.02591 12.6362 5.65276 12.0249L11.9971 5.68181C12.6203 5.05709 12.9703 4.21066 12.9702 3.32824C12.97 2.44583 12.6199 1.59949 11.9965 0.974936ZM4.94588 11.3181C4.50919 11.7548 3.91687 12.0003 3.29923 12.0003C2.68159 12.0004 2.08922 11.7551 1.65245 11.3184C1.21567 10.8817 0.970254 10.2894 0.970196 9.67172C0.970137 9.05408 1.21544 8.46172 1.65213 8.02494L4.47026 5.20681L7.76401 8.49994L4.94588 11.3181ZM11.2896 4.97494L8.47026 7.79306L5.17776 4.49994L7.99651 1.68181C8.43493 1.25351 9.02454 1.01532 9.63743 1.0189C10.2503 1.02249 10.8371 1.26755 11.2705 1.70094C11.7039 2.13433 11.949 2.72111 11.9525 3.33401C11.9561 3.94691 11.7179 4.53651 11.2896 4.97494ZM10.3253 3.64619C10.3717 3.69262 10.4086 3.74777 10.4338 3.80847C10.4589 3.86917 10.4719 3.93423 10.4719 3.99994C10.4719 4.06564 10.4589 4.13071 10.4338 4.19141C10.4086 4.25211 10.3717 4.30725 10.3253 4.35369L8.82526 5.85369C8.7788 5.9001 8.72366 5.93691 8.66298 5.96201C8.6023 5.98712 8.53727 6.00002 8.4716 5.99999C8.40593 5.99996 8.34091 5.987 8.28025 5.96184C8.21959 5.93669 8.16448 5.89983 8.11807 5.85337C8.07166 5.80692 8.03485 5.75178 8.00974 5.6911C7.98464 5.63042 7.97173 5.56538 7.97176 5.49972C7.97179 5.43405 7.98476 5.36903 8.00991 5.30837C8.03507 5.24771 8.07193 5.1926 8.11838 5.14619L9.61838 3.64619C9.71214 3.55249 9.83927 3.49986 9.97182 3.49986C10.1044 3.49986 10.2315 3.55249 10.3253 3.64619Z" fill="#6E6E6E"/>
</svg>
