<svg width="16" height="16" viewBox="0 0 16 16" fill="none" xmlns="http://www.w3.org/2000/svg">
<path d="M13.8673 5.19726C14.5611 6.64839 14.6928 8.30509 14.237 9.84761C13.7812 11.3901 12.7701 12.7092 11.399 13.5501C10.0278 14.391 8.39381 14.6942 6.81226 14.4012C5.2307 14.1082 3.81374 13.2397 2.83485 11.9634C1.85596 10.6871 1.38452 9.09348 1.51154 7.49003C1.63856 5.88659 2.35502 4.38702 3.52264 3.28076C4.69027 2.1745 6.22629 1.53996 7.83425 1.49961C9.44221 1.45926 11.0081 2.01596 12.2298 3.06226L13.6466 1.64476C13.7405 1.55094 13.8677 1.49823 14.0004 1.49823C14.1331 1.49823 14.2603 1.55094 14.3541 1.64476C14.448 1.73858 14.5007 1.86583 14.5007 1.99851C14.5007 2.13119 14.448 2.25844 14.3541 2.35226L8.35415 8.35226C8.26033 8.44608 8.13308 8.49879 8.0004 8.49879C7.86772 8.49879 7.74047 8.44608 7.64665 8.35226C7.55283 8.25844 7.50012 8.13119 7.50012 7.99851C7.50012 7.86583 7.55283 7.73858 7.64665 7.64476L9.37915 5.91226C8.90962 5.60173 8.34903 5.45876 7.78813 5.50648C7.22723 5.5542 6.69885 5.78982 6.28853 6.17521C5.87821 6.5606 5.60997 7.07319 5.52722 7.63C5.44447 8.18681 5.55207 8.75525 5.8326 9.2433C6.11312 9.73135 6.55015 10.1104 7.07293 10.3192C7.59572 10.528 8.17366 10.5542 8.71319 10.3936C9.25273 10.233 9.72229 9.89506 10.0458 9.43442C10.3694 8.97377 10.528 8.4174 10.496 7.85539C10.4923 7.78972 10.5016 7.72398 10.5233 7.6619C10.545 7.59983 10.5788 7.54264 10.6226 7.49359C10.6664 7.44455 10.7194 7.40462 10.7787 7.37608C10.8379 7.34754 10.9022 7.33095 10.9679 7.32726C11.1005 7.3198 11.2306 7.36533 11.3297 7.45382C11.3787 7.49764 11.4187 7.55069 11.4472 7.60993C11.4757 7.66918 11.4923 7.73347 11.496 7.79914C11.5416 8.59462 11.3144 9.38185 10.852 10.0307C10.3895 10.6796 9.71951 11.1512 8.95269 11.3677C8.18587 11.5842 7.36814 11.5326 6.63464 11.2213C5.90115 10.9101 5.2958 10.3579 4.91866 9.65602C4.54151 8.95414 4.41514 8.14458 4.56044 7.36115C4.70573 6.57772 5.11399 5.86731 5.71773 5.34734C6.32148 4.82737 7.08457 4.52897 7.88089 4.50145C8.67721 4.47394 9.45908 4.71896 10.0973 5.19601L11.5191 3.77414C10.4771 2.90901 9.15226 2.45936 7.79893 2.51156C6.44561 2.56375 5.15928 3.11411 4.18701 4.05693C3.21475 4.99974 2.62509 6.26853 2.5313 7.61961C2.43751 8.97069 2.8462 10.3088 3.67887 11.3769C4.51155 12.445 5.70949 13.1678 7.04262 13.4065C8.37575 13.6452 9.75006 13.3829 10.9016 12.6701C12.0531 11.9572 12.9007 10.844 13.2815 9.54435C13.6623 8.24466 13.5495 6.8501 12.9648 5.62851C12.9076 5.50883 12.9003 5.37134 12.9445 5.24627C12.9887 5.12121 13.0807 5.01882 13.2004 4.96164C13.3201 4.90445 13.4576 4.89715 13.5826 4.94133C13.7077 4.98552 13.8101 5.07758 13.8673 5.19726Z" fill="#ED1B24"/>
</svg>
