<svg width="17" height="16" viewBox="0 0 17 16" fill="none" xmlns="http://www.w3.org/2000/svg">
<path d="M7.99539 9.87006C8.66552 9.42393 9.17429 8.77398 9.44646 8.01634C9.71863 7.2587 9.73975 6.43358 9.50671 5.663C9.27367 4.89242 8.79883 4.21729 8.15241 3.73745C7.50599 3.25761 6.72231 2.99854 5.91727 2.99854C5.11222 2.99854 4.32854 3.25761 3.68212 3.73745C3.03571 4.21729 2.56087 4.89242 2.32782 5.663C2.09478 6.43358 2.11591 7.2587 2.38808 8.01634C2.66025 8.77398 3.16902 9.42393 3.83914 9.87006C2.62695 10.3168 1.59171 11.1436 0.887892 12.2269C0.850902 12.2819 0.825209 12.3437 0.812306 12.4087C0.799402 12.4737 0.799547 12.5406 0.812731 12.6055C0.825914 12.6705 0.851874 12.7321 0.889101 12.787C0.926329 12.8418 0.974081 12.8886 1.02958 12.9248C1.08508 12.961 1.14722 12.9858 1.2124 12.9978C1.27757 13.0098 1.34447 13.0087 1.40921 12.9946C1.47396 12.9805 1.53525 12.9536 1.58953 12.9156C1.64381 12.8776 1.68999 12.8292 1.72539 12.7732C2.17939 12.0749 2.80062 11.5011 3.53267 11.1039C4.26472 10.7067 5.08439 10.4987 5.91727 10.4987C6.75014 10.4987 7.56982 10.7067 8.30187 11.1039C9.03392 11.5011 9.65515 12.0749 10.1091 12.7732C10.1825 12.8822 10.2958 12.9579 10.4245 12.9841C10.5532 13.0102 10.6871 12.9846 10.7971 12.9129C10.9072 12.8411 10.9845 12.7289 11.0125 12.6005C11.0405 12.4722 11.0168 12.338 10.9466 12.2269C10.2428 11.1436 9.20758 10.3168 7.99539 9.87006ZM3.16727 6.75006C3.16727 6.20616 3.32855 5.67447 3.63073 5.22224C3.9329 4.77 4.36239 4.41753 4.86489 4.20939C5.36738 4.00125 5.92032 3.94679 6.45377 4.0529C6.98721 4.15901 7.47722 4.42092 7.86181 4.80551C8.24641 5.19011 8.50832 5.68011 8.61443 6.21356C8.72054 6.74701 8.66608 7.29994 8.45794 7.80244C8.24979 8.30493 7.89732 8.73442 7.44509 9.0366C6.99285 9.33877 6.46117 9.50006 5.91727 9.50006C5.18818 9.49923 4.48918 9.20923 3.97364 8.69369C3.45809 8.17814 3.16809 7.47915 3.16727 6.75006ZM16.301 12.9188C16.19 12.9912 16.0547 13.0166 15.9249 12.9893C15.7952 12.962 15.6816 12.8842 15.6091 12.7732C15.1557 12.0745 14.5345 11.5005 13.8023 11.1034C13.0701 10.7064 12.2502 10.4989 11.4173 10.5001C11.2847 10.5001 11.1575 10.4474 11.0637 10.3536C10.9699 10.2598 10.9173 10.1327 10.9173 10.0001C10.9173 9.86745 10.9699 9.74027 11.0637 9.6465C11.1575 9.55274 11.2847 9.50006 11.4173 9.50006C11.8222 9.49968 12.2221 9.40985 12.5884 9.237C12.9546 9.06416 13.2782 8.81255 13.5359 8.50017C13.7936 8.18778 13.9792 7.82233 14.0793 7.42992C14.1794 7.03751 14.1916 6.62783 14.1151 6.23015C14.0385 5.83247 13.8751 5.45661 13.6364 5.12943C13.3977 4.80225 13.0898 4.53181 12.7345 4.33745C12.3792 4.14309 11.9853 4.02961 11.5811 4.0051C11.1769 3.98059 10.7722 4.04567 10.396 4.19568C10.3347 4.2222 10.2687 4.23615 10.2018 4.23671C10.135 4.23728 10.0688 4.22444 10.007 4.19897C9.94523 4.1735 9.88919 4.1359 9.84219 4.0884C9.79519 4.0409 9.75819 3.98447 9.73338 3.92243C9.70856 3.86039 9.69643 3.794 9.69771 3.72719C9.69898 3.66039 9.71363 3.59451 9.7408 3.53346C9.76796 3.47242 9.80709 3.41743 9.85586 3.37176C9.90463 3.32609 9.96207 3.29066 10.0248 3.26756C10.8857 2.92421 11.8432 2.91186 12.7127 3.23287C13.5822 3.55389 14.302 4.18553 14.7333 5.00594C15.1645 5.82635 15.2767 6.77741 15.0481 7.67563C14.8195 8.57385 14.2664 9.3556 13.4954 9.87006C14.7076 10.3168 15.7428 11.1436 16.4466 12.2269C16.5191 12.338 16.5444 12.4733 16.5171 12.603C16.4898 12.7328 16.4121 12.8464 16.301 12.9188Z" fill="#6E6E6E"/>
</svg>
