<svg width="16" height="16" viewBox="0 0 16 16" fill="none" xmlns="http://www.w3.org/2000/svg">
<path d="M14.4167 9.67216V12.9777C14.4167 13.829 13.8046 14.5613 12.9608 14.6733C11.3378 14.8888 9.68189 15 8 15C6.31811 15 4.6622 14.8888 3.03921 14.6733C2.19536 14.5613 1.58333 13.829 1.58333 12.9777V9.67215M14.4167 9.67216C14.7837 9.35927 15 8.88579 15 8.38024V5.43776C15 4.59703 14.4027 3.87063 13.5713 3.74622C12.696 3.61526 11.8107 3.51467 10.9167 3.44558M14.4167 9.67216C14.2661 9.80053 14.0901 9.90186 13.8933 9.9673C12.0408 10.5832 10.0594 10.9167 8.00002 10.9167C5.94067 10.9167 3.95921 10.5832 2.10669 9.96728C1.90988 9.90185 1.73392 9.80051 1.58333 9.67215M1.58333 9.67215C1.21628 9.35926 1 8.88578 1 8.38023V5.43776C1 4.59703 1.59726 3.87064 2.42873 3.74623C3.30403 3.61526 4.18927 3.51467 5.08333 3.44559M10.9167 3.44558V2.75C10.9167 1.7835 10.1332 1 9.16667 1H6.83333C5.86683 1 5.08333 1.7835 5.08333 2.75V3.44559M10.9167 3.44558C9.95421 3.37121 8.98153 3.33333 8 3.33333C7.01847 3.33333 6.04579 3.37121 5.08333 3.44559M8 8.58333H8.00583V8.58917H8V8.58333Z" stroke="white" stroke-linecap="round" stroke-linejoin="round"/>
</svg>
