<svg width="12" height="11" viewBox="0 0 12 11" fill="none" xmlns="http://www.w3.org/2000/svg">
<path d="M11.6705 5.6705C12.1098 5.23116 12.1098 4.51885 11.6705 4.07951L7.92051 0.329511C7.48117 -0.109825 6.76889 -0.109849 6.3295 0.329511L0.329502 6.32951C-0.109834 6.76885 -0.109834 7.48116 0.329502 7.9205L2.5795 10.1705C2.79049 10.3815 3.07664 10.5 3.37502 10.5H11.7188C11.8741 10.5 12 10.3741 12 10.2188V9.28125C12 9.12593 11.8741 9 11.7188 9H8.34103L11.6705 5.6705ZM4.57769 4.20267L7.79737 7.42235L6.2197 9H3.53036L1.65536 7.125L4.57769 4.20267Z" fill="white"/>
</svg>
