<svg width="20" height="20" viewBox="0 0 20 20" fill="none" xmlns="http://www.w3.org/2000/svg">
<path d="M16.8945 3.10574C15.066 1.27724 12.586 0.25 10.0001 0.25C7.41423 0.25 4.93425 1.27724 3.10574 3.10574C1.27724 4.93425 0.25 7.41423 0.25 10.0001C0.25 12.586 1.27724 15.066 3.10574 16.8945C4.93425 18.723 7.41423 19.7502 10.0001 19.7502C12.586 19.7502 15.066 18.723 16.8945 16.8945C18.723 15.066 19.7502 12.586 19.7502 10.0001C19.7502 7.41423 18.723 4.93425 16.8945 3.10574ZM15.8342 15.8342C14.6803 16.9878 13.2103 17.7735 11.61 18.0917C10.0097 18.4099 8.35098 18.2465 6.84356 17.622C5.33614 16.9975 4.04774 15.9401 3.14127 14.5834C2.2348 13.2268 1.75098 11.6318 1.75098 10.0001C1.75098 8.36847 2.2348 6.77347 3.14127 5.41679C4.04774 4.06011 5.33614 3.00269 6.84356 2.37823C8.35098 1.75377 10.0097 1.59032 11.61 1.90855C13.2103 2.22678 14.6803 3.01239 15.8342 4.16606C17.3791 5.7146 18.2467 7.81271 18.2467 10.0001C18.2467 12.1875 17.3791 14.2856 15.8342 15.8342ZM13.5307 13.2195C13.6715 13.3602 13.7505 13.5511 13.7505 13.7501C13.7505 13.9491 13.6715 14.14 13.5307 14.2807C13.39 14.4215 13.1991 14.5005 13.0001 14.5005C12.8011 14.5005 12.6102 14.4215 12.4695 14.2807L10.0001 11.8104L7.53074 14.2807C7.46106 14.3504 7.37834 14.4057 7.28729 14.4434C7.19625 14.4811 7.09866 14.5005 7.00012 14.5005C6.90157 14.5005 6.80399 14.4811 6.71295 14.4434C6.6219 14.4057 6.53918 14.3504 6.46949 14.2807C6.39981 14.2111 6.34453 14.1283 6.30682 14.0373C6.26911 13.9462 6.2497 13.8487 6.2497 13.7501C6.2497 13.6516 6.26911 13.554 6.30682 13.4629C6.34453 13.3719 6.39981 13.2892 6.46949 13.2195L9.46949 10.2195C9.53915 10.1498 9.62186 10.0944 9.71291 10.0567C9.80396 10.019 9.90156 9.99953 10.0001 9.99953C10.0987 9.99953 10.1963 10.019 10.2873 10.0567C10.3784 10.0944 10.4611 10.1498 10.5307 10.2195L13.5307 13.2195ZM13.5307 7.96949C13.6004 8.03918 13.6557 8.1219 13.6934 8.21295C13.7311 8.30399 13.7505 8.40157 13.7505 8.50012C13.7505 8.59866 13.7311 8.69625 13.6934 8.78729C13.6557 8.87833 13.6004 8.96106 13.5307 9.03074C13.4611 9.10043 13.3783 9.1557 13.2873 9.19341C13.1962 9.23112 13.0987 9.25054 13.0001 9.25054C12.9016 9.25054 12.804 9.23112 12.7129 9.19341C12.6219 9.1557 12.5392 9.10043 12.4695 9.03074L10.0001 6.56043L7.53074 9.03074C7.39001 9.17147 7.19914 9.25054 7.00012 9.25054C6.8011 9.25054 6.61022 9.17147 6.46949 9.03074C6.32876 8.89001 6.2497 8.69914 6.2497 8.50012C6.2497 8.3011 6.32876 8.11022 6.46949 7.96949L9.46949 4.96949C9.53915 4.89976 9.62186 4.84444 9.71291 4.8067C9.80396 4.76896 9.90156 4.74953 10.0001 4.74953C10.0987 4.74953 10.1963 4.76896 10.2873 4.8067C10.3784 4.84444 10.4611 4.89976 10.5307 4.96949L13.5307 7.96949Z" fill="#F6F6F6"/>
</svg>
