<svg width="18" height="16" viewBox="0 0 18 16" fill="none" xmlns="http://www.w3.org/2000/svg">
<path d="M17.2496 7.24998H8.24961V1.24998C8.24973 1.10156 8.20581 0.956439 8.1234 0.832994C8.041 0.709548 7.92382 0.613328 7.78671 0.556513C7.64959 0.499699 7.4987 0.484846 7.35313 0.513833C7.20757 0.542821 7.07388 0.614347 6.96899 0.719355L0.218988 7.46936C0.149256 7.53901 0.0939369 7.62173 0.0561936 7.71278C0.0184504 7.80382 -0.000976562 7.90142 -0.000976562 7.99998C-0.000976562 8.09854 0.0184504 8.19614 0.0561936 8.28719C0.0939369 8.37823 0.149256 8.46095 0.218988 8.53061L6.96899 15.2806C7.07388 15.3856 7.20757 15.4571 7.35313 15.4861C7.4987 15.5151 7.64959 15.5003 7.78671 15.4434C7.92382 15.3866 8.041 15.2904 8.1234 15.167C8.20581 15.0435 8.24973 14.8984 8.24961 14.75V8.74998H17.2496C17.4485 8.74998 17.6393 8.67096 17.7799 8.53031C17.9206 8.38966 17.9996 8.19889 17.9996 7.99998C17.9996 7.80107 17.9206 7.6103 17.7799 7.46965C17.6393 7.329 17.4485 7.24998 17.2496 7.24998ZM6.74961 12.9397L1.80993 7.99998L6.74961 3.06029V12.9397Z" fill="#F6F6F6"/>
</svg>
