<svg width="28" height="24" viewBox="0 0 28 24" fill="none" xmlns="http://www.w3.org/2000/svg">
<path d="M25.8748 2.12502C24.5162 0.76984 22.6763 0.00775404 20.7574 0.00541161C18.8385 0.00306918 16.9967 0.760661 15.6348 2.11252L13.9998 3.63127L12.3636 2.10752C11.002 0.74978 9.15687 -0.0114778 7.23404 -0.00878193C5.3112 -0.00608608 3.46819 0.760343 2.11045 2.1219C0.75271 3.48345 -0.00854806 5.3286 -0.00585224 7.25144C-0.00315642 9.17427 0.763272 11.0173 2.12483 12.375L13.2936 23.7075C13.3866 23.802 13.4975 23.877 13.6199 23.9283C13.7422 23.9795 13.8735 24.0058 14.0061 24.0058C14.1387 24.0058 14.27 23.9795 14.3923 23.9283C14.5146 23.877 14.6255 23.802 14.7186 23.7075L25.8748 12.375C27.2335 11.0155 27.9968 9.1721 27.9968 7.25002C27.9968 5.32795 27.2335 3.48454 25.8748 2.12502ZM24.4561 10.97L13.9998 21.575L3.53733 10.96C2.55271 9.97541 1.99956 8.63998 1.99956 7.24752C1.99956 5.85507 2.55271 4.51964 3.53733 3.53502C4.52194 2.55041 5.85737 1.99725 7.24983 1.99725C8.64228 1.99725 9.97771 2.55041 10.9623 3.53502L10.9873 3.56002L13.3186 5.72877C13.5036 5.90098 13.747 5.99672 13.9998 5.99672C14.2526 5.99672 14.496 5.90098 14.6811 5.72877L17.0123 3.56002L17.0373 3.53502C18.0226 2.55107 19.3584 1.99882 20.7509 1.99975C22.1433 2.00069 23.4784 2.55474 24.4623 3.54002C25.4463 4.5253 25.9985 5.8611 25.9976 7.25356C25.9967 8.64602 25.4426 9.98107 24.4573 10.965L24.4561 10.97Z" fill="#F6F6F6"/>
</svg>
