<svg width="18" height="16" viewBox="0 0 18 16" fill="none" xmlns="http://www.w3.org/2000/svg">
<path d="M0.750387 7.24998H9.75039V1.24998C9.75027 1.10156 9.79419 0.956439 9.8766 0.832994C9.959 0.709548 10.0762 0.613328 10.2133 0.556513C10.3504 0.499699 10.5013 0.484846 10.6469 0.513833C10.7924 0.542821 10.9261 0.614347 11.031 0.719355L17.781 7.46936C17.8507 7.53901 17.9061 7.62173 17.9438 7.71278C17.9815 7.80382 18.001 7.90142 18.001 7.99998C18.001 8.09854 17.9815 8.19614 17.9438 8.28719C17.9061 8.37823 17.8507 8.46095 17.781 8.53061L11.031 15.2806C10.9261 15.3856 10.7924 15.4571 10.6469 15.4861C10.5013 15.5151 10.3504 15.5003 10.2133 15.4434C10.0762 15.3866 9.959 15.2904 9.8766 15.167C9.79419 15.0435 9.75027 14.8984 9.75039 14.75V8.74998H0.750387C0.551476 8.74998 0.360708 8.67096 0.220057 8.53031C0.0794048 8.38966 0.000387192 8.19889 0.000387192 7.99998C0.000387192 7.80107 0.0794048 7.6103 0.220057 7.46965C0.360708 7.329 0.551476 7.24998 0.750387 7.24998ZM11.2504 12.9397L16.1901 7.99998L11.2504 3.06029V12.9397Z" fill="#F6F6F6"/>
</svg>
