<svg width="20" height="20" viewBox="0 0 20 20" fill="none" xmlns="http://www.w3.org/2000/svg">
<path opacity="0.2" d="M17.4543 2.507L6.25037 10.5367L1.64099 9.63278C1.53777 9.61185 1.44413 9.55801 1.37411 9.47934C1.30409 9.40066 1.26149 9.3014 1.25268 9.19645C1.24388 9.0915 1.26935 8.98653 1.32528 8.89729C1.38121 8.80805 1.46458 8.73936 1.56287 8.70153L17.3933 2.50543C17.4031 2.5016 17.4135 2.49976 17.424 2.50003C17.4344 2.50029 17.4447 2.50266 17.4543 2.507ZM6.25037 15.625C6.25024 15.7496 6.28738 15.8714 6.35703 15.9748C6.42668 16.0782 6.52565 16.1584 6.64122 16.2051C6.75678 16.2518 6.88368 16.2629 7.00559 16.2369C7.1275 16.2109 7.23886 16.1491 7.32537 16.0593L9.71677 13.5781L6.25037 10.5367V15.625Z" fill="#F6F6F6"/>
<path d="M17.8808 2.04607C17.7839 1.96245 17.6661 1.90684 17.54 1.88523C17.4139 1.86361 17.2843 1.87682 17.1651 1.92342L1.33234 8.11951C1.10795 8.20676 0.917982 8.36455 0.79103 8.56911C0.664077 8.77367 0.607013 9.01394 0.628428 9.25374C0.649844 9.49354 0.74858 9.71989 0.909771 9.89872C1.07096 10.0776 1.28589 10.1992 1.52218 10.2453L5.62453 11.0508V15.625C5.62372 15.8741 5.69776 16.1178 5.83706 16.3244C5.97636 16.5309 6.17449 16.6909 6.40578 16.7836C6.63671 16.8779 6.89067 16.9005 7.13464 16.8485C7.3786 16.7966 7.60129 16.6724 7.77374 16.4922L9.75187 14.4406L12.8902 17.1875C13.1166 17.3883 13.4086 17.4995 13.7112 17.5C13.8439 17.4999 13.9757 17.479 14.1019 17.4383C14.3081 17.3728 14.4935 17.2545 14.6398 17.0951C14.7861 16.9357 14.888 16.7407 14.9355 16.5297L18.1066 2.73435C18.1349 2.60994 18.1289 2.48015 18.0891 2.3589C18.0493 2.23765 17.9773 2.12951 17.8808 2.04607ZM6.10499 9.87107L2.22921 9.11092L13.1042 4.85467L6.10499 9.87107ZM6.87453 15.625V11.9156L8.81124 13.614L6.87453 15.625ZM13.7128 16.25L7.25343 10.5859L16.5503 3.92263L13.7128 16.25Z" fill="#F6F6F6"/>
</svg>
