<svg width="253" height="240" viewBox="0 0 253 240" fill="none" xmlns="http://www.w3.org/2000/svg">
<path d="M22.9509 9.73158C23.6841 15.0634 19.9254 20.0207 14.5936 20.7539C9.22013 21.4928 4.26285 17.7341 3.52964 12.4023C2.7907 7.02889 6.54939 2.0716 11.9228 1.33267C17.2546 0.599455 22.2119 4.35815 22.9509 9.73158Z" fill="#3F404E"/>
<path d="M15.7354 5.41699C18.0948 7.1376 19.5417 10.0405 19.497 12.9598" stroke="#626262" stroke-width="2.083" stroke-linecap="round" stroke-linejoin="round"/>
<path d="M16.3256 17.4056C16.4392 17.5414 16.7076 17.3571 16.6207 17.2025" stroke="#626262" stroke-width="2.083" stroke-linecap="round" stroke-linejoin="round"/>
<path d="M16.8152 85.1811C17.4091 89.4998 14.3645 93.5152 10.0457 94.1091C5.69327 94.7077 1.67787 91.6631 1.08397 87.3444C0.485429 82.9919 3.52997 78.9765 7.88245 78.3779C12.2012 77.784 16.2166 80.8286 16.8152 85.1811Z" fill="#3F404E"/>
<path d="M10.9707 81.6865C12.8818 83.0802 14.0539 85.4316 14.0177 87.7962" stroke="#626262" stroke-width="1.68723" stroke-linecap="round" stroke-linejoin="round"/>
<path d="M11.4484 91.3968C11.5404 91.5068 11.7578 91.3575 11.6874 91.2323" stroke="#626262" stroke-width="1.68723" stroke-linecap="round" stroke-linejoin="round"/>
<path d="M186.405 233.281C186.405 236.706 165.805 239.456 140.429 239.456C115.005 239.456 94.4053 236.706 94.4053 233.281C94.4053 229.904 115.005 227.154 140.429 227.154C165.805 227.154 186.405 229.904 186.405 233.281Z" fill="#3F4156"/>
<path d="M180.493 150.673C175.694 152.007 170.551 152.15 166.264 149.956C159.446 146.466 153.808 140.859 149.077 134.92C146.68 131.91 144.122 129.039 141.804 125.963C140.495 124.226 139.269 122.261 137.939 120.39C136.046 117.725 137.83 114.05 141.094 113.87C150.138 113.371 159.336 115.515 167.167 120.077C176.341 125.421 183.551 134.031 187.284 143.963C188.015 145.909 187.037 148.127 185.141 148.982C183.66 149.65 182.096 150.228 180.493 150.673Z" fill="#2E2E34"/>
<path d="M156.468 124.097C160.895 125.456 165.026 127.772 168.493 130.845" stroke="#626262" stroke-width="2.083" stroke-linecap="round" stroke-linejoin="round"/>
<path d="M160.149 135.352C161.883 136.413 163.615 137.475 165.348 138.536" stroke="#626262" stroke-width="2.083" stroke-linecap="round" stroke-linejoin="round"/>
<path d="M232.644 156.666C240.967 154.114 246.838 148.301 251.518 140.959C243.502 131.494 229.581 127.528 217.611 130.78C220.131 138.797 222.273 145.047 224.645 151.302C227.16 152.827 230.129 155.141 232.644 156.666Z" fill="#2E2E34"/>
<path d="M224.88 151.194C226.445 147.249 227.301 143.023 227.392 138.779" stroke="#626262" stroke-width="2.083" stroke-linecap="round" stroke-linejoin="round"/>
<path d="M230.217 154.088C233.641 149.95 236.21 145.11 237.72 139.956" stroke="#626262" stroke-width="2.083" stroke-linecap="round" stroke-linejoin="round"/>
<path d="M230.914 161.388C229.092 166.545 226.48 171.419 223.348 175.862C217.181 184.627 208.917 191.88 199.547 197.065C186.75 204.18 172.22 207.586 157.447 208.354C152.062 208.656 146.668 208.572 141.295 208.232C129.026 207.333 116.689 204.755 105.207 200.238C92.6138 195.195 81.04 187.797 71.8113 177.602C71.8578 177.563 71.9434 177.572 71.989 177.532C62.8813 167.435 56.7059 154.676 54.3177 141.263C51.8672 127.587 52.4198 111.901 57.6244 98.9363C58.0114 97.9412 58.8127 97.1097 59.7974 96.6385C73.1344 90.2135 88.8722 89.1866 103.275 92.1578C110.392 93.636 117.377 96.1316 123.709 99.7286C124.522 100.228 127.272 102.14 130.323 104.508C133.057 106.59 136.146 108.531 138.359 111.168C140.725 114.033 142.859 117.091 144.769 120.259C151.141 130.762 154.694 142.605 162.513 152.247C173.467 165.765 189.675 169.666 206.07 164.065C211.196 162.326 215.945 159.482 220.027 155.937C221.743 154.457 223.407 151.6 225.539 151.744C226.865 151.773 229.042 152.865 230.485 154.019C230.962 154.447 231.353 154.867 231.618 155.276C232.863 157.228 231.753 159.146 230.914 161.388Z" fill="#3F404E"/>
<path d="M172.593 206.037C192.853 203.323 211.769 191.761 223.425 174.969" stroke="#626262" stroke-width="2.083" stroke-linecap="round" stroke-linejoin="round"/>
<path d="M66.6258 167.901C94.2171 162.058 117.719 139.952 125.236 112.769" stroke="#626262" stroke-width="2.083" stroke-linecap="round" stroke-linejoin="round"/>
<path d="M115.354 160.865C113.803 157.58 112.252 154.296 110.7 151.013C115.167 152.395 119.85 153.081 124.526 153.035" stroke="#626262" stroke-width="2.083" stroke-linecap="round" stroke-linejoin="round"/>
<path d="M130.016 139.16C128.444 136.068 127.288 132.764 126.587 129.367C130.582 130.074 134.53 131.051 138.394 132.288" stroke="#626262" stroke-width="2.083" stroke-linecap="round" stroke-linejoin="round"/>
<path d="M86.5908 181.676C84.797 178.685 83.8299 175.203 83.8271 171.715C86.4259 172.51 89.0245 173.306 91.6233 174.101" stroke="#626262" stroke-width="2.083" stroke-linecap="round" stroke-linejoin="round"/>
<path d="M132.233 179.03C131.656 176.934 131.079 174.839 130.501 172.744C133.111 174.159 135.991 175.071 138.941 175.416" stroke="#626262" stroke-width="2.083" stroke-linecap="round" stroke-linejoin="round"/>
<path d="M149.239 161.97C147.776 160.592 143.788 155.202 143.479 153.217C147.786 155.082 150.673 154.433 155.304 155.201" stroke="#626262" stroke-width="2.083" stroke-linecap="round" stroke-linejoin="round"/>
<path d="M159.627 196.568C157.44 194.537 155.251 192.505 153.062 190.474C156.294 190.683 159.526 190.892 162.757 191.101" stroke="#626262" stroke-width="2.083" stroke-linecap="round" stroke-linejoin="round"/>
<path d="M173.079 181.558C171.067 178.827 169.491 175.776 168.422 172.557C170.75 172.224 173.078 171.891 175.406 171.558" stroke="#626262" stroke-width="2.083" stroke-linecap="round" stroke-linejoin="round"/>
<path d="M194.28 193.621C191.86 192.687 189.439 191.754 187.019 190.82C189.612 189.19 192.206 187.56 194.799 185.93" stroke="#626262" stroke-width="2.083" stroke-linecap="round" stroke-linejoin="round"/>
<path d="M197.296 175.712C195.054 175.424 192.811 175.136 190.569 174.848C192.588 173.515 194.609 172.181 196.628 170.847" stroke="#626262" stroke-width="2.083" stroke-linecap="round" stroke-linejoin="round"/>
<path d="M212.827 166.842C211.708 169.356 210.587 171.869 209.467 174.382C211.781 174.207 214.095 174.034 216.409 173.859" stroke="#626262" stroke-width="2.083" stroke-linecap="round" stroke-linejoin="round"/>
<path d="M112.993 101.695C117.338 102.634 121.48 104.496 125.067 107.122C125.449 107.403 125.87 107.834 125.7 108.276C125.513 108.764 124.821 108.742 124.313 108.621C119.236 107.408 114.423 105.098 110.302 101.895C114.987 102.044 119.6 103.887 123.098 107.007C120.989 107.067 118.867 106.522 117.046 105.457C117.313 105.532 117.578 105.608 117.844 105.684" stroke="#626262" stroke-width="2.083" stroke-linecap="round" stroke-linejoin="round"/>
<path d="M129.168 110.777C130.399 111.463 131.497 112.385 132.386 113.478C131.569 112.783 130.752 112.087 129.936 111.391" stroke="#626262" stroke-width="2.083" stroke-linecap="round" stroke-linejoin="round"/>
<path d="M110.588 198.981C114.331 209.151 122.569 218.86 133.382 219.567C137.039 219.806 141.115 218.726 143.09 215.638C144.93 212.762 144.453 208.983 143.375 205.742C140.427 196.877 133.692 189.784 126.457 183.873C123.453 181.42 107.28 166.619 104.78 170.621C103.205 173.143 106.284 181.391 106.84 184.294C107.791 189.261 108.838 194.225 110.588 198.981Z" fill="#2E2E34"/>
<path d="M115.873 191.943C118.066 197.728 121.782 202.927 126.546 206.874" stroke="#626262" stroke-width="2.083" stroke-linecap="round" stroke-linejoin="round"/>
<path d="M125.262 192.565C126.39 194.389 127.519 196.212 128.648 198.036" stroke="#626262" stroke-width="2.083" stroke-linecap="round" stroke-linejoin="round"/>
<path d="M87.8894 113.833C88.5093 114.416 89.7143 114.881 90.551 114.689C91.1447 114.552 91.6573 114.135 91.9997 113.621C93.2737 111.71 91.9023 108.679 89.5609 108.669C86.8169 108.657 86.3192 112.356 87.8894 113.833Z" fill="#626262"/>
<path d="M88.7875 113.121C89.1886 113.498 89.7509 113.75 90.2924 113.625C90.6765 113.537 91.0083 113.267 91.2298 112.935C92.0543 111.698 91.1669 109.737 89.6517 109.73C87.8761 109.722 87.7713 112.165 88.7875 113.121Z" fill="#626262"/>
<path d="M54.0771 117.199C55.2513 118.565 55.1954 118.756 56.8817 119.389" stroke="#626262" stroke-width="0.958878" stroke-linecap="round" stroke-linejoin="round"/>
</svg>
