<svg width="20" height="20" viewBox="0 0 20 20" fill="none" xmlns="http://www.w3.org/2000/svg">
<g clip-path="url(#clip0_2121_6932)">
<path fill-rule="evenodd" clip-rule="evenodd" d="M10 1.87476C10.4602 1.87476 10.8333 2.24785 10.8333 2.70809V9.16642H17.2917C17.7519 9.16642 18.125 9.53952 18.125 9.99976C18.125 10.46 17.7519 10.8331 17.2917 10.8331H10.8333V17.2914C10.8333 17.7517 10.4602 18.1248 10 18.1248C9.53976 18.1248 9.16667 17.7517 9.16667 17.2914V10.8331H2.70833C2.2481 10.8331 1.875 10.46 1.875 9.99976C1.875 9.53952 2.2481 9.16642 2.70833 9.16642H9.16667V2.70809C9.16667 2.24785 9.53976 1.87476 10 1.87476Z" fill="#A2A8B4"/>
</g>
<defs>
<clipPath id="clip0_2121_6932">
<rect width="20" height="20" fill="white"/>
</clipPath>
</defs>
</svg>
