<svg width="17" height="16" viewBox="0 0 17 16" fill="none" xmlns="http://www.w3.org/2000/svg">
<path d="M14.5217 8.35549L10.0217 12.8555C9.9279 12.9493 9.80065 13.002 9.66797 13.002C9.53529 13.002 9.40804 12.9493 9.31422 12.8555C9.2204 12.7617 9.16769 12.6344 9.16769 12.5017C9.16769 12.3691 9.2204 12.2418 9.31422 12.148L12.9611 8.50174H3.16797C3.03536 8.50174 2.90818 8.44906 2.81442 8.3553C2.72065 8.26153 2.66797 8.13435 2.66797 8.00174C2.66797 7.86913 2.72065 7.74196 2.81442 7.64819C2.90818 7.55442 3.03536 7.50174 3.16797 7.50174H12.9611L9.31422 3.85549C9.2204 3.76167 9.16769 3.63442 9.16769 3.50174C9.16769 3.36906 9.2204 3.24181 9.31422 3.14799C9.40804 3.05417 9.53529 3.00146 9.66797 3.00146C9.80065 3.00146 9.9279 3.05417 10.0217 3.14799L14.5217 7.64799C14.5682 7.69443 14.6051 7.74957 14.6302 7.81027C14.6554 7.87097 14.6684 7.93604 14.6684 8.00174C14.6684 8.06745 14.6554 8.13251 14.6302 8.19321C14.6051 8.25391 14.5682 8.30906 14.5217 8.35549Z" fill="#278BFE"/>
</svg>
