<svg width="12" height="12" viewBox="0 0 12 12" fill="none" xmlns="http://www.w3.org/2000/svg">
<path d="M9.37521 4.12521V9.00021C9.37521 9.09966 9.3357 9.19505 9.26537 9.26537C9.19505 9.3357 9.09966 9.37521 9.00021 9.37521H4.12521C4.02575 9.37521 3.93037 9.3357 3.86004 9.26537C3.78972 9.19505 3.75021 9.09966 3.75021 9.00021C3.75021 8.90075 3.78972 8.80537 3.86004 8.73504C3.93037 8.66472 4.02575 8.62521 4.12521 8.62521H8.09505L2.7349 3.26552C2.66453 3.19516 2.625 3.09972 2.625 3.00021C2.625 2.9007 2.66453 2.80526 2.7349 2.7349C2.80526 2.66453 2.9007 2.625 3.00021 2.625C3.09972 2.625 3.19516 2.66453 3.26552 2.7349L8.62521 8.09505V4.12521C8.62521 4.02575 8.66472 3.93037 8.73504 3.86004C8.80537 3.78972 8.90075 3.75021 9.00021 3.75021C9.09966 3.75021 9.19505 3.78972 9.26537 3.86004C9.3357 3.93037 9.37521 4.02575 9.37521 4.12521Z" fill="#ED1B24"/>
</svg>
