<svg width="20" height="20" viewBox="0 0 20 20" fill="none" xmlns="http://www.w3.org/2000/svg">
<g clip-path="url(#clip0_2121_6951)">
<path fill-rule="evenodd" clip-rule="evenodd" d="M9.40814 1.91107C9.73358 1.58563 10.2612 1.58563 10.5867 1.91107L14.7533 6.07774C15.0788 6.40317 15.0788 6.93081 14.7533 7.25625C14.4279 7.58168 13.9002 7.58168 13.5748 7.25625L10.8307 4.51217V12.5003C10.8307 12.9606 10.4576 13.3337 9.9974 13.3337C9.53716 13.3337 9.16406 12.9606 9.16406 12.5003V4.51217L6.41999 7.25625C6.09455 7.58168 5.56691 7.58168 5.24147 7.25625C4.91604 6.93081 4.91604 6.40317 5.24147 6.07774L9.40814 1.91107ZM2.4974 11.667C2.95763 11.667 3.33073 12.0401 3.33073 12.5003V13.5003C3.33073 14.2141 3.33138 14.6994 3.36202 15.0745C3.39187 15.4398 3.44598 15.6266 3.51239 15.757C3.67217 16.0706 3.92714 16.3255 4.24075 16.4853C4.37108 16.5517 4.55792 16.6058 4.92326 16.6357C5.29834 16.6663 5.78358 16.667 6.4974 16.667H13.4974C14.2112 16.667 14.6965 16.6663 15.0715 16.6357C15.4369 16.6058 15.6237 16.5517 15.754 16.4853C16.0677 16.3255 16.3226 16.0706 16.4824 15.757C16.5488 15.6266 16.6029 15.4398 16.6328 15.0745C16.6634 14.6994 16.6641 14.2141 16.6641 13.5003V12.5003C16.6641 12.0401 17.0372 11.667 17.4974 11.667C17.9576 11.667 18.3307 12.0401 18.3307 12.5003V13.5348C18.3307 14.2056 18.3307 14.7592 18.2939 15.2102C18.2556 15.6786 18.1735 16.1092 17.9674 16.5136C17.6478 17.1408 17.1379 17.6508 16.5107 17.9703C16.1063 18.1764 15.6757 18.2586 15.2073 18.2968C14.7563 18.3337 14.2026 18.3337 13.5318 18.3337H6.46296C5.79216 18.3337 5.23853 18.3337 4.78754 18.2968C4.31913 18.2586 3.88854 18.1764 3.48409 17.9703C2.85689 17.6508 2.34695 17.1408 2.02737 16.5136C1.8213 16.1092 1.73916 15.6786 1.70089 15.2102C1.66404 14.7592 1.66405 14.2056 1.66406 13.5347L1.66406 12.5003C1.66406 12.0401 2.03716 11.667 2.4974 11.667Z" fill="#A2A8B4"/>
</g>
<defs>
<clipPath id="clip0_2121_6951">
<rect width="20" height="20" fill="white"/>
</clipPath>
</defs>
</svg>
