<svg width="20" height="20" viewBox="0 0 20 20" fill="none" xmlns="http://www.w3.org/2000/svg">
<g clip-path="url(#clip0_2121_6911)">
<path fill-rule="evenodd" clip-rule="evenodd" d="M10.0098 2.91696C10.661 2.91696 10.8507 2.92232 11.0202 2.96301C11.1903 3.00384 11.3528 3.07118 11.502 3.16256C11.6506 3.25365 11.7886 3.38403 12.249 3.84446L14.9058 6.50131C15.3663 6.96174 15.4967 7.0997 15.5877 7.24833C15.6791 7.39745 15.7465 7.56003 15.7873 7.73009C15.828 7.89959 15.8333 8.08934 15.8333 8.74048V13.917C15.8333 14.6308 15.8327 15.116 15.802 15.4911C15.7722 15.8564 15.7181 16.0433 15.6517 16.1736C15.4919 16.4872 15.2369 16.7422 14.9233 16.902C14.793 16.9684 14.6061 17.0225 14.2408 17.0523C13.8657 17.083 13.3805 17.0836 12.6667 17.0836H7.33333C6.61952 17.0836 6.13427 17.083 5.7592 17.0523C5.39385 17.0225 5.20702 16.9684 5.07668 16.902C4.76308 16.7422 4.50811 16.4872 4.34832 16.1736C4.28192 16.0433 4.22781 15.8564 4.19796 15.4911C4.16732 15.116 4.16667 14.6308 4.16667 13.917V6.08363C4.16667 5.36981 4.16732 4.88457 4.19796 4.50949C4.22781 4.14415 4.28192 3.95731 4.34832 3.82698C4.50811 3.51338 4.76308 3.25841 5.07668 3.09862C5.20702 3.03221 5.39385 2.97811 5.7592 2.94826C6.13427 2.91761 6.61952 2.91696 7.33333 2.91696H10.0098ZM11.4093 1.3424C11.0237 1.24983 10.6239 1.25002 10.0947 1.25027L10.0098 1.2503H7.33333L7.29892 1.2503C6.62811 1.25029 6.07448 1.25028 5.62348 1.28712C5.15507 1.3254 4.72448 1.40753 4.32003 1.61361C3.69283 1.93319 3.18289 2.44312 2.86331 3.07033C2.65724 3.47477 2.5751 3.90536 2.53683 4.37378C2.49998 4.82477 2.49999 5.3784 2.5 6.0492V6.04921V6.08363V13.917V13.9514V13.9514C2.49999 14.6222 2.49998 15.1758 2.53683 15.6268C2.5751 16.0952 2.65724 16.5258 2.86331 16.9303C3.18289 17.5575 3.69283 18.0674 4.32003 18.387C4.72448 18.5931 5.15507 18.6752 5.62348 18.7135C6.07447 18.7503 6.6281 18.7503 7.2989 18.7503H7.33333H12.6667H12.7011C13.3719 18.7503 13.9255 18.7503 14.3765 18.7135C14.8449 18.6752 15.2755 18.5931 15.68 18.387C16.3072 18.0674 16.8171 17.5575 17.1367 16.9303C17.3428 16.5258 17.4249 16.0952 17.4632 15.6268C17.5 15.1758 17.5 14.6222 17.5 13.9514V13.917V8.74048L17.5 8.65559C17.5003 8.12642 17.5005 7.72659 17.4079 7.34101C17.3262 7.00089 17.1916 6.67574 17.0088 6.3775C16.8016 6.0394 16.5188 5.75682 16.1444 5.38282L16.0843 5.3228L13.4275 2.66595L13.3675 2.60589C12.9935 2.23154 12.7109 1.94868 12.3728 1.7415C12.0746 1.55873 11.7494 1.42405 11.4093 1.3424ZM6.66667 10.0003C6.20643 10.0003 5.83333 10.3734 5.83333 10.8336C5.83333 11.2939 6.20643 11.667 6.66667 11.667H11.6667C12.1269 11.667 12.5 11.2939 12.5 10.8336C12.5 10.3734 12.1269 10.0003 11.6667 10.0003H6.66667ZM6.66667 13.3336C6.20643 13.3336 5.83333 13.7067 5.83333 14.167C5.83333 14.6272 6.20643 15.0003 6.66667 15.0003H13.3333C13.7936 15.0003 14.1667 14.6272 14.1667 14.167C14.1667 13.7067 13.7936 13.3336 13.3333 13.3336H6.66667Z" fill="#A2A8B4"/>
</g>
<defs>
<clipPath id="clip0_2121_6911">
<rect width="20" height="20" fill="white"/>
</clipPath>
</defs>
</svg>
