<svg width="16" height="16" viewBox="0 0 16 16" fill="none" xmlns="http://www.w3.org/2000/svg">
<path fill-rule="evenodd" clip-rule="evenodd" d="M1.33594 4.66667C1.33594 4.29848 1.63441 4 2.0026 4H14.0026C14.3708 4 14.6693 4.29848 14.6693 4.66667C14.6693 5.03486 14.3708 5.33333 14.0026 5.33333H2.0026C1.63441 5.33333 1.33594 5.03486 1.33594 4.66667ZM2.66911 8.33333C2.66911 7.96514 2.96758 7.66667 3.33577 7.66667H12.6691C13.0373 7.66667 13.3358 7.96514 13.3358 8.33333C13.3358 8.70152 13.0373 9 12.6691 9H3.33577C2.96758 9 2.66911 8.70152 2.66911 8.33333ZM4.66911 11.3333C4.30092 11.3333 4.00244 11.6318 4.00244 12C4.00244 12.3682 4.30092 12.6667 4.66911 12.6667H11.3358C11.704 12.6667 12.0024 12.3682 12.0024 12C12.0024 11.6318 11.704 11.3333 11.3358 11.3333H4.66911Z" fill="#A2A8B4"/>
</svg>
