<svg width="21" height="21" viewBox="0 0 21 21" fill="none" xmlns="http://www.w3.org/2000/svg">
<path d="M7.90987 16.6277H13.0864C12.9829 17.2393 12.6662 17.7945 12.1925 18.1949C11.7187 18.5953 11.1184 18.815 10.4981 18.815C9.87781 18.815 9.27755 18.5953 8.80376 18.1949C8.32998 17.7945 8.0133 17.2393 7.90987 16.6277ZM10.4981 1.75269C12.2386 1.75269 13.9078 2.44409 15.1385 3.6748C16.3692 4.9055 17.0606 6.5747 17.0606 8.31519V11.8152L18.3014 14.5802C18.3578 14.7066 18.3817 14.8452 18.371 14.9833C18.3602 15.1213 18.3152 15.2545 18.2399 15.3707C18.1646 15.4869 18.0615 15.5825 17.9399 15.6488C17.8183 15.715 17.6821 15.7498 17.5436 15.7501H3.45612C3.31746 15.75 3.181 15.7153 3.05919 15.6491C2.93737 15.5829 2.83405 15.4872 2.75865 15.3708C2.68325 15.2545 2.63815 15.1211 2.62747 14.9829C2.61679 14.8446 2.64086 14.7059 2.69749 14.5793L3.93562 11.8143V8.30381L3.93999 8.08506C3.99985 6.38568 4.71699 4.77588 5.94033 3.59482C7.16367 2.41375 8.79768 1.75277 10.4981 1.75269Z" fill="#999999"/>
</svg>
