<svg width="17" height="16" viewBox="0 0 17 16" fill="none" xmlns="http://www.w3.org/2000/svg">
<path opacity="0.2" d="M14.5 6.5L11.5 9.5V3.5L14.5 6.5Z" fill="#F6F6F6"/>
<path d="M14.8538 6.14616L11.8538 3.14616C11.7838 3.07615 11.6947 3.02847 11.5977 3.00914C11.5006 2.98982 11.4 2.99972 11.3086 3.03759C11.2172 3.07547 11.1391 3.13962 11.0841 3.22191C11.0292 3.30421 10.9999 3.40096 11 3.49991V5.99991H10.8125C9.37075 5.99853 7.96951 6.47681 6.82949 7.35941C5.68946 8.24201 4.87544 9.47878 4.51562 10.8749C4.48247 11.0034 4.50171 11.1397 4.56911 11.254C4.6365 11.3683 4.74654 11.4511 4.875 11.4843C5.00346 11.5174 5.13984 11.4982 5.25412 11.4308C5.3684 11.3634 5.45122 11.2534 5.48438 11.1249C5.78933 9.94384 6.47825 8.89765 7.44277 8.15092C8.4073 7.40419 9.5927 6.99929 10.8125 6.99991H11V9.49991C10.9999 9.59885 11.0292 9.6956 11.0841 9.7779C11.1391 9.86019 11.2172 9.92434 11.3086 9.96222C11.4 10.0001 11.5006 10.01 11.5977 9.99067C11.6947 9.97134 11.7838 9.92366 11.8538 9.85366L14.8538 6.85366C14.9002 6.80722 14.9371 6.75207 14.9623 6.69138C14.9874 6.63068 15.0004 6.56561 15.0004 6.49991C15.0004 6.4342 14.9874 6.36913 14.9623 6.30844C14.9371 6.24774 14.9002 6.19259 14.8538 6.14616ZM12 8.29303V4.70678L13.7931 6.49991L12 8.29303ZM13 13.4999C13 13.6325 12.9473 13.7597 12.8536 13.8535C12.7598 13.9472 12.6326 13.9999 12.5 13.9999H2.5C2.36739 13.9999 2.24021 13.9472 2.14645 13.8535C2.05268 13.7597 2 13.6325 2 13.4999V5.49991C2 5.3673 2.05268 5.24012 2.14645 5.14635C2.24021 5.05258 2.36739 4.99991 2.5 4.99991C2.63261 4.99991 2.75979 5.05258 2.85355 5.14635C2.94732 5.24012 3 5.3673 3 5.49991V12.9999H12.5C12.6326 12.9999 12.7598 13.0526 12.8536 13.1464C12.9473 13.2401 13 13.3673 13 13.4999Z" fill="#F6F6F6"/>
</svg>
