<svg width="20" height="20" viewBox="0 0 20 20" fill="none" xmlns="http://www.w3.org/2000/svg">
<path opacity="0.2" d="M17.4533 2.507L6.24939 10.5367L1.64001 9.63278C1.5368 9.61185 1.44315 9.55801 1.37313 9.47934C1.30312 9.40066 1.26051 9.3014 1.2517 9.19645C1.2429 9.0915 1.26837 8.98653 1.3243 8.89729C1.38023 8.80805 1.4636 8.73936 1.56189 8.70153L17.3924 2.50543C17.4021 2.5016 17.4125 2.49976 17.423 2.50003C17.4335 2.50029 17.4438 2.50266 17.4533 2.507ZM6.24939 15.625C6.24926 15.7496 6.28641 15.8714 6.35606 15.9748C6.4257 16.0782 6.52467 16.1584 6.64024 16.2051C6.75581 16.2518 6.8827 16.2629 7.00461 16.2369C7.12653 16.2109 7.23789 16.1491 7.32439 16.0593L9.7158 13.5781L6.24939 10.5367V15.625Z" fill="#F6F6F6"/>
<path d="M17.8818 2.04595C17.7849 1.96233 17.6671 1.90672 17.541 1.88511C17.4149 1.86349 17.2853 1.8767 17.1661 1.92329L1.33331 8.11939C1.10893 8.20664 0.918959 8.36443 0.792006 8.56899C0.665054 8.77355 0.60799 9.01382 0.629405 9.25362C0.65082 9.49342 0.749556 9.71977 0.910748 9.8986C1.07194 10.0774 1.28686 10.1991 1.52316 10.2452L5.6255 11.0506V15.6249C5.62469 15.874 5.69874 16.1177 5.83803 16.3242C5.97733 16.5308 6.17546 16.6908 6.40675 16.7835C6.63768 16.8778 6.89164 16.9004 7.13561 16.8484C7.37958 16.7964 7.60227 16.6723 7.77472 16.492L9.75285 14.4405L12.8911 17.1874C13.1175 17.3882 13.4096 17.4993 13.7122 17.4999C13.8448 17.4998 13.9766 17.4789 14.1028 17.4381C14.3091 17.3727 14.4945 17.2544 14.6408 17.095C14.787 16.9356 14.889 16.7406 14.9364 16.5295L18.1075 2.73423C18.1359 2.60982 18.1299 2.48003 18.0901 2.35878C18.0503 2.23753 17.9783 2.12939 17.8818 2.04595ZM6.10597 9.87095L2.23019 9.11079L13.1052 4.85454L6.10597 9.87095ZM6.8755 15.6249V11.9155L8.81222 13.6139L6.8755 15.6249ZM13.7138 16.2499L7.25441 10.5858L16.5513 3.92251L13.7138 16.2499Z" fill="#F6F6F6"/>
</svg>
