<svg width="20" height="20" viewBox="0 0 20 20" fill="none" xmlns="http://www.w3.org/2000/svg">
<path opacity="0.2" d="M17.7023 5.58835C17.6542 5.39564 17.5609 5.21716 17.4301 5.06771C17.2992 4.91826 17.1347 4.80214 16.95 4.72898C14.3344 3.72273 10 3.75007 10 3.75007C10 3.75007 5.66563 3.72273 3.04688 4.73289C2.86221 4.80605 2.69765 4.92217 2.56681 5.07162C2.43597 5.22107 2.34264 5.39955 2.29453 5.59226C2.11484 6.29226 1.875 7.66335 1.875 10.0001C1.875 12.3368 2.11484 13.7079 2.29766 14.4118C2.346 14.6035 2.43911 14.7809 2.56935 14.9297C2.69959 15.0784 2.86325 15.1941 3.04688 15.2673C5.66563 16.2774 10 16.2501 10 16.2501C10 16.2501 14.3344 16.2774 16.9531 15.2673C17.1373 15.1945 17.3016 15.079 17.4324 14.9302C17.5632 14.7815 17.6568 14.6038 17.7055 14.4118C17.8883 13.7087 18.1281 12.3368 18.1281 10.0001C18.1281 7.66335 17.8852 6.29226 17.7023 5.58835ZM8.75 12.5001V7.50007L12.5 10.0001L8.75 12.5001Z" fill="#F6F6F6"/>
<path d="M12.8469 9.47969L9.09688 6.97969C9.00273 6.91688 8.89329 6.88081 8.78024 6.87533C8.6672 6.86985 8.55479 6.89517 8.45501 6.94859C8.35523 7.00201 8.27183 7.08152 8.21371 7.17864C8.15559 7.27575 8.12493 7.38682 8.125 7.5V12.5C8.12493 12.6132 8.15559 12.7243 8.21371 12.8214C8.27183 12.9185 8.35523 12.998 8.45501 13.0514C8.55479 13.1048 8.6672 13.1302 8.78024 13.1247C8.89329 13.1192 9.00273 13.0831 9.09688 13.0203L12.8469 10.5203C12.9326 10.4633 13.0029 10.3859 13.0515 10.2951C13.1002 10.2044 13.1256 10.103 13.1256 10C13.1256 9.89702 13.1002 9.79564 13.0515 9.70487C13.0029 9.61409 12.9326 9.53674 12.8469 9.47969ZM9.375 11.332V8.67188L11.3734 10L9.375 11.332ZM18.307 5.43125C18.2334 5.14324 18.0924 4.87686 17.8955 4.65409C17.6987 4.43132 17.4517 4.25854 17.175 4.15C14.4969 3.11563 10.2344 3.125 10 3.125C9.76562 3.125 5.50312 3.11563 2.825 4.15C2.54825 4.25854 2.30128 4.43132 2.10445 4.65409C1.90762 4.87686 1.76658 5.14324 1.69297 5.43125C1.49063 6.21094 1.25 7.63594 1.25 10C1.25 12.3641 1.49063 13.7891 1.69297 14.5688C1.76647 14.8569 1.90746 15.1234 2.1043 15.3464C2.30113 15.5693 2.54816 15.7422 2.825 15.8508C5.39062 16.8406 9.40625 16.875 9.94844 16.875H10.0516C10.5938 16.875 14.6117 16.8406 17.175 15.8508C17.4518 15.7422 17.6989 15.5693 17.8957 15.3464C18.0925 15.1234 18.2335 14.8569 18.307 14.5688C18.5094 13.7875 18.75 12.3641 18.75 10C18.75 7.63594 18.5094 6.21094 18.307 5.43125ZM17.0969 14.2594C17.0731 14.3552 17.0269 14.4441 16.9621 14.5186C16.8973 14.5932 16.8158 14.6513 16.7242 14.6883C14.2516 15.643 10.0461 15.6258 9.99609 15.6258C9.94609 15.6258 5.74844 15.6398 3.27734 14.6883C3.18576 14.6513 3.10424 14.5932 3.03946 14.5186C2.97468 14.4441 2.9285 14.3552 2.90469 14.2594C2.71875 13.5461 2.5 12.232 2.5 10C2.5 7.76797 2.71875 6.45391 2.90313 5.74453C2.92649 5.64811 2.97248 5.55864 3.03728 5.48351C3.10208 5.40839 3.18383 5.34977 3.27578 5.3125C5.74844 4.36094 9.95312 4.375 10.0039 4.375C10.0547 4.375 14.2516 4.36094 16.7227 5.3125C16.8142 5.34947 16.8958 5.40761 16.9605 5.48216C17.0253 5.55671 17.0715 5.64556 17.0953 5.74141C17.2812 6.45391 17.5 7.76797 17.5 10C17.5 12.232 17.2812 13.5461 17.0969 14.2555V14.2594Z" fill="#F6F6F6"/>
</svg>
