<svg width="29" height="25" viewBox="0 0 29 25" fill="none" xmlns="http://www.w3.org/2000/svg">
<path d="M28.667 15.0008V23.0008C28.667 23.5312 28.4563 24.0399 28.0812 24.415C27.7061 24.7901 27.1974 25.0008 26.667 25.0008H2.66699C2.13656 25.0008 1.62785 24.7901 1.25278 24.415C0.877706 24.0399 0.666992 23.5312 0.666992 23.0008V15.0008C0.666992 14.4704 0.877706 13.9616 1.25278 13.5866C1.62785 13.2115 2.13656 13.0008 2.66699 13.0008H8.66699C8.93221 13.0008 9.18656 13.1061 9.3741 13.2937C9.56164 13.4812 9.66699 13.7356 9.66699 14.0008C9.66699 14.266 9.56164 14.5204 9.3741 14.7079C9.18656 14.8954 8.93221 15.0008 8.66699 15.0008H2.66699V23.0008H26.667V15.0008H20.667C20.4018 15.0008 20.1474 14.8954 19.9599 14.7079C19.7723 14.5204 19.667 14.266 19.667 14.0008C19.667 13.7356 19.7723 13.4812 19.9599 13.2937C20.1474 13.1061 20.4018 13.0008 20.667 13.0008H26.667C27.1974 13.0008 27.7061 13.2115 28.0812 13.5866C28.4563 13.9616 28.667 14.4704 28.667 15.0008ZM9.37449 7.70829L13.667 3.41454V14.0008C13.667 14.266 13.7723 14.5204 13.9599 14.7079C14.1474 14.8954 14.4018 15.0008 14.667 15.0008C14.9322 15.0008 15.1866 14.8954 15.3741 14.7079C15.5616 14.5204 15.667 14.266 15.667 14.0008V3.41454L19.9595 7.70829C20.1471 7.89593 20.4016 8.00134 20.667 8.00134C20.9324 8.00134 21.1869 7.89593 21.3745 7.70829C21.5621 7.52065 21.6675 7.26615 21.6675 7.00079C21.6675 6.73542 21.5621 6.48093 21.3745 6.29329L15.3745 0.293287C15.2816 0.20031 15.1713 0.126551 15.0499 0.0762268C14.9285 0.0259025 14.7984 0 14.667 0C14.5356 0 14.4054 0.0259025 14.2841 0.0762268C14.1627 0.126551 14.0524 0.20031 13.9595 0.293287L7.95949 6.29329C7.77185 6.48093 7.66644 6.73542 7.66644 7.00079C7.66644 7.26615 7.77185 7.52065 7.95949 7.70829C8.14713 7.89593 8.40163 8.00134 8.66699 8.00134C8.93236 8.00134 9.18685 7.89593 9.37449 7.70829ZM23.667 19.0008C23.667 18.7041 23.579 18.4141 23.4142 18.1674C23.2494 17.9208 23.0151 17.7285 22.741 17.615C22.4669 17.5014 22.1653 17.4717 21.8744 17.5296C21.5834 17.5875 21.3161 17.7303 21.1063 17.9401C20.8966 18.1499 20.7537 18.4172 20.6958 18.7082C20.6379 18.9991 20.6676 19.3007 20.7812 19.5748C20.8947 19.8489 21.087 20.0832 21.3336 20.248C21.5803 20.4128 21.8703 20.5008 22.167 20.5008C22.5648 20.5008 22.9463 20.3427 23.2277 20.0614C23.509 19.7801 23.667 19.3986 23.667 19.0008Z" fill="#278BFE"/>
</svg>
