<svg width="17" height="16" viewBox="0 0 17 16" fill="none" xmlns="http://www.w3.org/2000/svg">
<path d="M14.667 8C14.667 8.13261 14.6143 8.25979 14.5205 8.35355C14.4268 8.44732 14.2996 8.5 14.167 8.5H9.16699V13.5C9.16699 13.6326 9.11431 13.7598 9.02055 13.8536C8.92678 13.9473 8.7996 14 8.66699 14C8.53438 14 8.40721 13.9473 8.31344 13.8536C8.21967 13.7598 8.16699 13.6326 8.16699 13.5V8.5H3.16699C3.03438 8.5 2.90721 8.44732 2.81344 8.35355C2.71967 8.25979 2.66699 8.13261 2.66699 8C2.66699 7.86739 2.71967 7.74021 2.81344 7.64645C2.90721 7.55268 3.03438 7.5 3.16699 7.5H8.16699V2.5C8.16699 2.36739 8.21967 2.24021 8.31344 2.14645C8.40721 2.05268 8.53438 2 8.66699 2C8.7996 2 8.92678 2.05268 9.02055 2.14645C9.11431 2.24021 9.16699 2.36739 9.16699 2.5V7.5H14.167C14.2996 7.5 14.4268 7.55268 14.5205 7.64645C14.6143 7.74021 14.667 7.86739 14.667 8Z" fill="#278BFE"/>
</svg>
