<svg width="12" height="16" viewBox="0 0 12 16" fill="none" xmlns="http://www.w3.org/2000/svg">
<path d="M11.5 9.61539V7.73077C11.5 6.39254 10.4423 5.30769 9.1375 5.30769H8.0875C7.65258 5.30769 7.3 4.94608 7.3 4.5V3.42308C7.3 2.08485 6.24227 1 4.9375 1H3.625M4.15 11.2308V11.7692M6.25 9.61539V11.7692M8.35 8V11.7692M5.2 1H1.7875C1.35258 1 1 1.36162 1 1.80769V14.1923C1 14.6384 1.35258 15 1.7875 15H10.7125C11.1474 15 11.5 14.6384 11.5 14.1923V7.46154C11.5 3.89293 8.67939 1 5.2 1Z" stroke="white" stroke-linecap="round" stroke-linejoin="round"/>
</svg>
